G04*
G04 #@! TF.GenerationSoftware,Altium Limited,Altium Designer,20.0.13 (296)*
G04*
G04 Layer_Physical_Order=1*
G04 Layer_Color=255*
%FSLAX25Y25*%
%MOIN*%
G70*
G01*
G75*
%ADD10R,0.04500X0.05500*%
%ADD11R,0.05000X0.06000*%
%ADD12C,0.01000*%
%ADD13R,0.06000X0.06000*%
%ADD14C,0.06000*%
%ADD15O,0.09000X0.18000*%
%ADD16O,0.18000X0.09000*%
%ADD17O,0.10000X0.20000*%
G36*
X572961Y627039D02*
X502039D01*
Y697961D01*
X572961D01*
Y627039D01*
D02*
G37*
G36*
X447961D02*
X377039D01*
Y697961D01*
X447961D01*
Y627039D01*
D02*
G37*
G36*
X322961D02*
X252039D01*
Y697961D01*
X322961D01*
Y627039D01*
D02*
G37*
G36*
X197961D02*
X127039D01*
Y697961D01*
X197961D01*
Y627039D01*
D02*
G37*
G36*
X72961D02*
X2039D01*
Y697961D01*
X72961D01*
Y627039D01*
D02*
G37*
G36*
X572961Y502039D02*
X502039D01*
Y572961D01*
X572961D01*
Y502039D01*
D02*
G37*
G36*
X447961D02*
X377039D01*
Y572961D01*
X447961D01*
Y502039D01*
D02*
G37*
G36*
X322961D02*
X252039D01*
Y572961D01*
X322961D01*
Y502039D01*
D02*
G37*
G36*
X197961D02*
X127039D01*
Y572961D01*
X197961D01*
Y502039D01*
D02*
G37*
G36*
X72961D02*
X2039D01*
Y572961D01*
X72961D01*
Y502039D01*
D02*
G37*
G36*
X572961Y377039D02*
X502039D01*
Y447961D01*
X572961D01*
Y377039D01*
D02*
G37*
G36*
X447961D02*
X377039D01*
Y447961D01*
X447961D01*
Y377039D01*
D02*
G37*
G36*
X322961D02*
X252039D01*
Y447961D01*
X322961D01*
Y377039D01*
D02*
G37*
G36*
X197961D02*
X127039D01*
Y447961D01*
X197961D01*
Y377039D01*
D02*
G37*
G36*
X72961D02*
X2039D01*
Y447961D01*
X72961D01*
Y377039D01*
D02*
G37*
G36*
X572961Y252039D02*
X502039D01*
Y322961D01*
X572961D01*
Y252039D01*
D02*
G37*
G36*
X447961D02*
X377039D01*
Y322961D01*
X447961D01*
Y252039D01*
D02*
G37*
G36*
X322961D02*
X252039D01*
Y322961D01*
X322961D01*
Y252039D01*
D02*
G37*
G36*
X197961D02*
X127039D01*
Y322961D01*
X197961D01*
Y252039D01*
D02*
G37*
G36*
X72961D02*
X2039D01*
Y322961D01*
X72961D01*
Y252039D01*
D02*
G37*
G36*
X572961Y127039D02*
X502039D01*
Y197961D01*
X572961D01*
Y127039D01*
D02*
G37*
G36*
X447961D02*
X377039D01*
Y197961D01*
X447961D01*
Y127039D01*
D02*
G37*
G36*
X322961D02*
X252039D01*
Y197961D01*
X322961D01*
Y127039D01*
D02*
G37*
G36*
X197961D02*
X127039D01*
Y197961D01*
X197961D01*
Y127039D01*
D02*
G37*
G36*
X72961D02*
X2039D01*
Y197961D01*
X72961D01*
Y127039D01*
D02*
G37*
G36*
X572961Y2039D02*
X502039D01*
Y72961D01*
X572961D01*
Y2039D01*
D02*
G37*
G36*
X447961D02*
X377039D01*
Y72961D01*
X447961D01*
Y2039D01*
D02*
G37*
G36*
X322961D02*
X252039D01*
Y72961D01*
X322961D01*
Y2039D01*
D02*
G37*
G36*
X197961D02*
X127039D01*
Y72961D01*
X197961D01*
Y2039D01*
D02*
G37*
G36*
X72961D02*
X2039D01*
Y72961D01*
X72961D01*
Y2039D01*
D02*
G37*
%LPC*%
G36*
X533500Y690469D02*
Y687000D01*
X536969D01*
X536897Y687544D01*
X536494Y688517D01*
X535853Y689353D01*
X535017Y689994D01*
X534044Y690397D01*
X533500Y690469D01*
D02*
G37*
G36*
X532500D02*
X531956Y690397D01*
X530983Y689994D01*
X530147Y689353D01*
X529506Y688517D01*
X529103Y687544D01*
X529031Y687000D01*
X532500D01*
Y690469D01*
D02*
G37*
G36*
X536969Y686000D02*
X533500D01*
Y682531D01*
X534044Y682603D01*
X535017Y683006D01*
X535853Y683647D01*
X536494Y684483D01*
X536897Y685456D01*
X536969Y686000D01*
D02*
G37*
G36*
X532500D02*
X529031D01*
X529103Y685456D01*
X529506Y684483D01*
X530147Y683647D01*
X530983Y683006D01*
X531956Y682603D01*
X532500Y682531D01*
Y686000D01*
D02*
G37*
G36*
X547000Y690500D02*
X539000D01*
Y682500D01*
X547000D01*
Y683971D01*
X560366D01*
X561471Y682866D01*
Y680500D01*
X559500D01*
Y679029D01*
X554000D01*
X553415Y678913D01*
X552919Y678581D01*
X548419Y674081D01*
X548087Y673585D01*
X547971Y673000D01*
Y671306D01*
X547193Y671070D01*
X546150Y670513D01*
X545237Y669763D01*
X544487Y668850D01*
X543930Y667807D01*
X543587Y666676D01*
X543471Y665500D01*
Y655500D01*
X543587Y654324D01*
X543930Y653193D01*
X544487Y652150D01*
X545237Y651237D01*
X546150Y650487D01*
X547193Y649930D01*
X548324Y649587D01*
X549500Y649471D01*
X550676Y649587D01*
X551807Y649930D01*
X552849Y650487D01*
X553763Y651237D01*
X554513Y652150D01*
X555070Y653193D01*
X555413Y654324D01*
X555529Y655500D01*
Y665500D01*
X555413Y666676D01*
X555070Y667807D01*
X554513Y668850D01*
X553763Y669763D01*
X552849Y670513D01*
X551807Y671070D01*
X551029Y671306D01*
Y672367D01*
X554634Y675971D01*
X559500D01*
Y672500D01*
X566500D01*
Y680500D01*
X564529D01*
Y683500D01*
X564413Y684085D01*
X564081Y684581D01*
X562081Y686581D01*
X561585Y686913D01*
X561000Y687029D01*
X547000D01*
Y690500D01*
D02*
G37*
G36*
X524000Y670482D02*
Y661000D01*
X529047D01*
Y665000D01*
X528858Y666436D01*
X528304Y667774D01*
X527423Y668923D01*
X526274Y669804D01*
X524936Y670358D01*
X524000Y670482D01*
D02*
G37*
G36*
X523000D02*
X522064Y670358D01*
X520726Y669804D01*
X519577Y668923D01*
X518696Y667774D01*
X518142Y666436D01*
X517952Y665000D01*
Y661000D01*
X523000D01*
Y670482D01*
D02*
G37*
G36*
X566500Y671500D02*
X559500D01*
Y663500D01*
X560971D01*
Y659750D01*
X559250D01*
Y652250D01*
X565750D01*
Y659750D01*
X564029D01*
Y663500D01*
X566500D01*
Y671500D01*
D02*
G37*
G36*
X529047Y660000D02*
X524000D01*
Y650518D01*
X524936Y650642D01*
X526274Y651196D01*
X527423Y652077D01*
X528304Y653226D01*
X528858Y654564D01*
X529047Y656000D01*
Y660000D01*
D02*
G37*
G36*
X523000D02*
X517952D01*
Y656000D01*
X518142Y654564D01*
X518696Y653226D01*
X519577Y652077D01*
X520726Y651196D01*
X522064Y650642D01*
X523000Y650518D01*
Y660000D01*
D02*
G37*
G36*
X565750Y650750D02*
X563000D01*
Y647500D01*
X565750D01*
Y650750D01*
D02*
G37*
G36*
X562000D02*
X559250D01*
Y647500D01*
X562000D01*
Y650750D01*
D02*
G37*
G36*
X565750Y646500D02*
X563000D01*
Y643250D01*
X565750D01*
Y646500D01*
D02*
G37*
G36*
X562000D02*
X559250D01*
Y643250D01*
X562000D01*
Y646500D01*
D02*
G37*
G36*
X541000Y648047D02*
X537000D01*
Y643000D01*
X546482D01*
X546358Y643936D01*
X545804Y645274D01*
X544923Y646423D01*
X543774Y647304D01*
X542436Y647858D01*
X541000Y648047D01*
D02*
G37*
G36*
X536000D02*
X532000D01*
X530564Y647858D01*
X529226Y647304D01*
X528077Y646423D01*
X527196Y645274D01*
X526642Y643936D01*
X526518Y643000D01*
X536000D01*
Y648047D01*
D02*
G37*
G36*
X546482Y642000D02*
X537000D01*
Y636952D01*
X541000D01*
X542436Y637142D01*
X543774Y637696D01*
X544923Y638577D01*
X545804Y639726D01*
X546358Y641064D01*
X546482Y642000D01*
D02*
G37*
G36*
X536000D02*
X526518D01*
X526642Y641064D01*
X527196Y639726D01*
X528077Y638577D01*
X529226Y637696D01*
X530564Y637142D01*
X532000Y636952D01*
X536000D01*
Y642000D01*
D02*
G37*
G36*
X408500Y690469D02*
Y687000D01*
X411969D01*
X411897Y687544D01*
X411494Y688517D01*
X410853Y689353D01*
X410017Y689994D01*
X409044Y690397D01*
X408500Y690469D01*
D02*
G37*
G36*
X407500D02*
X406956Y690397D01*
X405983Y689994D01*
X405147Y689353D01*
X404506Y688517D01*
X404103Y687544D01*
X404031Y687000D01*
X407500D01*
Y690469D01*
D02*
G37*
G36*
X411969Y686000D02*
X408500D01*
Y682531D01*
X409044Y682603D01*
X410017Y683006D01*
X410853Y683647D01*
X411494Y684483D01*
X411897Y685456D01*
X411969Y686000D01*
D02*
G37*
G36*
X407500D02*
X404031D01*
X404103Y685456D01*
X404506Y684483D01*
X405147Y683647D01*
X405983Y683006D01*
X406956Y682603D01*
X407500Y682531D01*
Y686000D01*
D02*
G37*
G36*
X422000Y690500D02*
X414000D01*
Y682500D01*
X422000D01*
Y683971D01*
X435366D01*
X436471Y682866D01*
Y680500D01*
X434500D01*
Y679029D01*
X429000D01*
X428415Y678913D01*
X427919Y678581D01*
X423419Y674081D01*
X423087Y673585D01*
X422971Y673000D01*
Y671306D01*
X422193Y671070D01*
X421150Y670513D01*
X420237Y669763D01*
X419487Y668850D01*
X418930Y667807D01*
X418587Y666676D01*
X418471Y665500D01*
Y655500D01*
X418587Y654324D01*
X418930Y653193D01*
X419487Y652150D01*
X420237Y651237D01*
X421150Y650487D01*
X422193Y649930D01*
X423324Y649587D01*
X424500Y649471D01*
X425676Y649587D01*
X426807Y649930D01*
X427849Y650487D01*
X428763Y651237D01*
X429513Y652150D01*
X430070Y653193D01*
X430413Y654324D01*
X430529Y655500D01*
Y665500D01*
X430413Y666676D01*
X430070Y667807D01*
X429513Y668850D01*
X428763Y669763D01*
X427849Y670513D01*
X426807Y671070D01*
X426029Y671306D01*
Y672367D01*
X429634Y675971D01*
X434500D01*
Y672500D01*
X441500D01*
Y680500D01*
X439529D01*
Y683500D01*
X439413Y684085D01*
X439081Y684581D01*
X437081Y686581D01*
X436585Y686913D01*
X436000Y687029D01*
X422000D01*
Y690500D01*
D02*
G37*
G36*
X399000Y670482D02*
Y661000D01*
X404047D01*
Y665000D01*
X403858Y666436D01*
X403304Y667774D01*
X402423Y668923D01*
X401274Y669804D01*
X399936Y670358D01*
X399000Y670482D01*
D02*
G37*
G36*
X398000D02*
X397064Y670358D01*
X395726Y669804D01*
X394577Y668923D01*
X393696Y667774D01*
X393142Y666436D01*
X392952Y665000D01*
Y661000D01*
X398000D01*
Y670482D01*
D02*
G37*
G36*
X441500Y671500D02*
X434500D01*
Y663500D01*
X435971D01*
Y659750D01*
X434250D01*
Y652250D01*
X440750D01*
Y659750D01*
X439029D01*
Y663500D01*
X441500D01*
Y671500D01*
D02*
G37*
G36*
X404047Y660000D02*
X399000D01*
Y650518D01*
X399936Y650642D01*
X401274Y651196D01*
X402423Y652077D01*
X403304Y653226D01*
X403858Y654564D01*
X404047Y656000D01*
Y660000D01*
D02*
G37*
G36*
X398000D02*
X392952D01*
Y656000D01*
X393142Y654564D01*
X393696Y653226D01*
X394577Y652077D01*
X395726Y651196D01*
X397064Y650642D01*
X398000Y650518D01*
Y660000D01*
D02*
G37*
G36*
X440750Y650750D02*
X438000D01*
Y647500D01*
X440750D01*
Y650750D01*
D02*
G37*
G36*
X437000D02*
X434250D01*
Y647500D01*
X437000D01*
Y650750D01*
D02*
G37*
G36*
X440750Y646500D02*
X438000D01*
Y643250D01*
X440750D01*
Y646500D01*
D02*
G37*
G36*
X437000D02*
X434250D01*
Y643250D01*
X437000D01*
Y646500D01*
D02*
G37*
G36*
X416000Y648047D02*
X412000D01*
Y643000D01*
X421482D01*
X421358Y643936D01*
X420804Y645274D01*
X419923Y646423D01*
X418774Y647304D01*
X417436Y647858D01*
X416000Y648047D01*
D02*
G37*
G36*
X411000D02*
X407000D01*
X405564Y647858D01*
X404226Y647304D01*
X403077Y646423D01*
X402196Y645274D01*
X401642Y643936D01*
X401518Y643000D01*
X411000D01*
Y648047D01*
D02*
G37*
G36*
X421482Y642000D02*
X412000D01*
Y636952D01*
X416000D01*
X417436Y637142D01*
X418774Y637696D01*
X419923Y638577D01*
X420804Y639726D01*
X421358Y641064D01*
X421482Y642000D01*
D02*
G37*
G36*
X411000D02*
X401518D01*
X401642Y641064D01*
X402196Y639726D01*
X403077Y638577D01*
X404226Y637696D01*
X405564Y637142D01*
X407000Y636952D01*
X411000D01*
Y642000D01*
D02*
G37*
G36*
X283500Y690469D02*
Y687000D01*
X286969D01*
X286897Y687544D01*
X286494Y688517D01*
X285853Y689353D01*
X285017Y689994D01*
X284044Y690397D01*
X283500Y690469D01*
D02*
G37*
G36*
X282500D02*
X281956Y690397D01*
X280983Y689994D01*
X280147Y689353D01*
X279506Y688517D01*
X279103Y687544D01*
X279031Y687000D01*
X282500D01*
Y690469D01*
D02*
G37*
G36*
X286969Y686000D02*
X283500D01*
Y682531D01*
X284044Y682603D01*
X285017Y683006D01*
X285853Y683647D01*
X286494Y684483D01*
X286897Y685456D01*
X286969Y686000D01*
D02*
G37*
G36*
X282500D02*
X279031D01*
X279103Y685456D01*
X279506Y684483D01*
X280147Y683647D01*
X280983Y683006D01*
X281956Y682603D01*
X282500Y682531D01*
Y686000D01*
D02*
G37*
G36*
X297000Y690500D02*
X289000D01*
Y682500D01*
X297000D01*
Y683971D01*
X310367D01*
X311471Y682866D01*
Y680500D01*
X309500D01*
Y679029D01*
X304000D01*
X303415Y678913D01*
X302919Y678581D01*
X298419Y674081D01*
X298087Y673585D01*
X297971Y673000D01*
Y671306D01*
X297193Y671070D01*
X296150Y670513D01*
X295237Y669763D01*
X294487Y668850D01*
X293930Y667807D01*
X293587Y666676D01*
X293471Y665500D01*
Y655500D01*
X293587Y654324D01*
X293930Y653193D01*
X294487Y652150D01*
X295237Y651237D01*
X296150Y650487D01*
X297193Y649930D01*
X298324Y649587D01*
X299500Y649471D01*
X300676Y649587D01*
X301807Y649930D01*
X302850Y650487D01*
X303763Y651237D01*
X304513Y652150D01*
X305070Y653193D01*
X305413Y654324D01*
X305529Y655500D01*
Y665500D01*
X305413Y666676D01*
X305070Y667807D01*
X304513Y668850D01*
X303763Y669763D01*
X302850Y670513D01*
X301807Y671070D01*
X301029Y671306D01*
Y672367D01*
X304633Y675971D01*
X309500D01*
Y672500D01*
X316500D01*
Y680500D01*
X314529D01*
Y683500D01*
X314413Y684085D01*
X314081Y684581D01*
X312081Y686581D01*
X311585Y686913D01*
X311000Y687029D01*
X297000D01*
Y690500D01*
D02*
G37*
G36*
X274000Y670482D02*
Y661000D01*
X279047D01*
Y665000D01*
X278858Y666436D01*
X278304Y667774D01*
X277423Y668923D01*
X276274Y669804D01*
X274936Y670358D01*
X274000Y670482D01*
D02*
G37*
G36*
X273000D02*
X272064Y670358D01*
X270726Y669804D01*
X269577Y668923D01*
X268696Y667774D01*
X268142Y666436D01*
X267952Y665000D01*
Y661000D01*
X273000D01*
Y670482D01*
D02*
G37*
G36*
X316500Y671500D02*
X309500D01*
Y663500D01*
X310971D01*
Y659750D01*
X309250D01*
Y652250D01*
X315750D01*
Y659750D01*
X314029D01*
Y663500D01*
X316500D01*
Y671500D01*
D02*
G37*
G36*
X279047Y660000D02*
X274000D01*
Y650518D01*
X274936Y650642D01*
X276274Y651196D01*
X277423Y652077D01*
X278304Y653226D01*
X278858Y654564D01*
X279047Y656000D01*
Y660000D01*
D02*
G37*
G36*
X273000D02*
X267952D01*
Y656000D01*
X268142Y654564D01*
X268696Y653226D01*
X269577Y652077D01*
X270726Y651196D01*
X272064Y650642D01*
X273000Y650518D01*
Y660000D01*
D02*
G37*
G36*
X315750Y650750D02*
X313000D01*
Y647500D01*
X315750D01*
Y650750D01*
D02*
G37*
G36*
X312000D02*
X309250D01*
Y647500D01*
X312000D01*
Y650750D01*
D02*
G37*
G36*
X315750Y646500D02*
X313000D01*
Y643250D01*
X315750D01*
Y646500D01*
D02*
G37*
G36*
X312000D02*
X309250D01*
Y643250D01*
X312000D01*
Y646500D01*
D02*
G37*
G36*
X291000Y648047D02*
X287000D01*
Y643000D01*
X296482D01*
X296358Y643936D01*
X295804Y645274D01*
X294923Y646423D01*
X293774Y647304D01*
X292436Y647858D01*
X291000Y648047D01*
D02*
G37*
G36*
X286000D02*
X282000D01*
X280564Y647858D01*
X279226Y647304D01*
X278077Y646423D01*
X277196Y645274D01*
X276642Y643936D01*
X276518Y643000D01*
X286000D01*
Y648047D01*
D02*
G37*
G36*
X296482Y642000D02*
X287000D01*
Y636952D01*
X291000D01*
X292436Y637142D01*
X293774Y637696D01*
X294923Y638577D01*
X295804Y639726D01*
X296358Y641064D01*
X296482Y642000D01*
D02*
G37*
G36*
X286000D02*
X276518D01*
X276642Y641064D01*
X277196Y639726D01*
X278077Y638577D01*
X279226Y637696D01*
X280564Y637142D01*
X282000Y636952D01*
X286000D01*
Y642000D01*
D02*
G37*
G36*
X158500Y690469D02*
Y687000D01*
X161969D01*
X161897Y687544D01*
X161494Y688517D01*
X160853Y689353D01*
X160017Y689994D01*
X159044Y690397D01*
X158500Y690469D01*
D02*
G37*
G36*
X157500D02*
X156956Y690397D01*
X155983Y689994D01*
X155147Y689353D01*
X154506Y688517D01*
X154103Y687544D01*
X154031Y687000D01*
X157500D01*
Y690469D01*
D02*
G37*
G36*
X161969Y686000D02*
X158500D01*
Y682531D01*
X159044Y682603D01*
X160017Y683006D01*
X160853Y683647D01*
X161494Y684483D01*
X161897Y685456D01*
X161969Y686000D01*
D02*
G37*
G36*
X157500D02*
X154031D01*
X154103Y685456D01*
X154506Y684483D01*
X155147Y683647D01*
X155983Y683006D01*
X156956Y682603D01*
X157500Y682531D01*
Y686000D01*
D02*
G37*
G36*
X172000Y690500D02*
X164000D01*
Y682500D01*
X172000D01*
Y683971D01*
X185366D01*
X186471Y682866D01*
Y680500D01*
X184500D01*
Y679029D01*
X179000D01*
X178415Y678913D01*
X177919Y678581D01*
X173419Y674081D01*
X173087Y673585D01*
X172971Y673000D01*
Y671306D01*
X172193Y671070D01*
X171151Y670513D01*
X170237Y669763D01*
X169487Y668850D01*
X168930Y667807D01*
X168587Y666676D01*
X168471Y665500D01*
Y655500D01*
X168587Y654324D01*
X168930Y653193D01*
X169487Y652150D01*
X170237Y651237D01*
X171151Y650487D01*
X172193Y649930D01*
X173324Y649587D01*
X174500Y649471D01*
X175676Y649587D01*
X176807Y649930D01*
X177849Y650487D01*
X178763Y651237D01*
X179513Y652150D01*
X180070Y653193D01*
X180413Y654324D01*
X180529Y655500D01*
Y665500D01*
X180413Y666676D01*
X180070Y667807D01*
X179513Y668850D01*
X178763Y669763D01*
X177849Y670513D01*
X176807Y671070D01*
X176029Y671306D01*
Y672367D01*
X179633Y675971D01*
X184500D01*
Y672500D01*
X191500D01*
Y680500D01*
X189529D01*
Y683500D01*
X189413Y684085D01*
X189081Y684581D01*
X187081Y686581D01*
X186585Y686913D01*
X186000Y687029D01*
X172000D01*
Y690500D01*
D02*
G37*
G36*
X149000Y670482D02*
Y661000D01*
X154048D01*
Y665000D01*
X153858Y666436D01*
X153304Y667774D01*
X152423Y668923D01*
X151274Y669804D01*
X149936Y670358D01*
X149000Y670482D01*
D02*
G37*
G36*
X148000D02*
X147064Y670358D01*
X145726Y669804D01*
X144577Y668923D01*
X143696Y667774D01*
X143142Y666436D01*
X142953Y665000D01*
Y661000D01*
X148000D01*
Y670482D01*
D02*
G37*
G36*
X191500Y671500D02*
X184500D01*
Y663500D01*
X185971D01*
Y659750D01*
X184250D01*
Y652250D01*
X190750D01*
Y659750D01*
X189029D01*
Y663500D01*
X191500D01*
Y671500D01*
D02*
G37*
G36*
X154048Y660000D02*
X149000D01*
Y650518D01*
X149936Y650642D01*
X151274Y651196D01*
X152423Y652077D01*
X153304Y653226D01*
X153858Y654564D01*
X154048Y656000D01*
Y660000D01*
D02*
G37*
G36*
X148000D02*
X142953D01*
Y656000D01*
X143142Y654564D01*
X143696Y653226D01*
X144577Y652077D01*
X145726Y651196D01*
X147064Y650642D01*
X148000Y650518D01*
Y660000D01*
D02*
G37*
G36*
X190750Y650750D02*
X188000D01*
Y647500D01*
X190750D01*
Y650750D01*
D02*
G37*
G36*
X187000D02*
X184250D01*
Y647500D01*
X187000D01*
Y650750D01*
D02*
G37*
G36*
X190750Y646500D02*
X188000D01*
Y643250D01*
X190750D01*
Y646500D01*
D02*
G37*
G36*
X187000D02*
X184250D01*
Y643250D01*
X187000D01*
Y646500D01*
D02*
G37*
G36*
X166000Y648047D02*
X162000D01*
Y643000D01*
X171482D01*
X171358Y643936D01*
X170804Y645274D01*
X169923Y646423D01*
X168774Y647304D01*
X167436Y647858D01*
X166000Y648047D01*
D02*
G37*
G36*
X161000D02*
X157000D01*
X155564Y647858D01*
X154226Y647304D01*
X153077Y646423D01*
X152196Y645274D01*
X151642Y643936D01*
X151518Y643000D01*
X161000D01*
Y648047D01*
D02*
G37*
G36*
X171482Y642000D02*
X162000D01*
Y636952D01*
X166000D01*
X167436Y637142D01*
X168774Y637696D01*
X169923Y638577D01*
X170804Y639726D01*
X171358Y641064D01*
X171482Y642000D01*
D02*
G37*
G36*
X161000D02*
X151518D01*
X151642Y641064D01*
X152196Y639726D01*
X153077Y638577D01*
X154226Y637696D01*
X155564Y637142D01*
X157000Y636952D01*
X161000D01*
Y642000D01*
D02*
G37*
G36*
X33500Y690469D02*
Y687000D01*
X36969D01*
X36897Y687544D01*
X36494Y688517D01*
X35853Y689353D01*
X35017Y689994D01*
X34044Y690397D01*
X33500Y690469D01*
D02*
G37*
G36*
X32500D02*
X31956Y690397D01*
X30983Y689994D01*
X30147Y689353D01*
X29506Y688517D01*
X29103Y687544D01*
X29031Y687000D01*
X32500D01*
Y690469D01*
D02*
G37*
G36*
X36969Y686000D02*
X33500D01*
Y682531D01*
X34044Y682603D01*
X35017Y683006D01*
X35853Y683647D01*
X36494Y684483D01*
X36897Y685456D01*
X36969Y686000D01*
D02*
G37*
G36*
X32500D02*
X29031D01*
X29103Y685456D01*
X29506Y684483D01*
X30147Y683647D01*
X30983Y683006D01*
X31956Y682603D01*
X32500Y682531D01*
Y686000D01*
D02*
G37*
G36*
X47000Y690500D02*
X39000D01*
Y682500D01*
X47000D01*
Y683971D01*
X60366D01*
X61471Y682866D01*
Y680500D01*
X59500D01*
Y679029D01*
X54000D01*
X53415Y678913D01*
X52919Y678581D01*
X48419Y674081D01*
X48087Y673585D01*
X47971Y673000D01*
Y671306D01*
X47193Y671070D01*
X46150Y670513D01*
X45237Y669763D01*
X44487Y668850D01*
X43930Y667807D01*
X43587Y666676D01*
X43471Y665500D01*
Y655500D01*
X43587Y654324D01*
X43930Y653193D01*
X44487Y652150D01*
X45237Y651237D01*
X46150Y650487D01*
X47193Y649930D01*
X48324Y649587D01*
X49500Y649471D01*
X50676Y649587D01*
X51807Y649930D01*
X52850Y650487D01*
X53763Y651237D01*
X54513Y652150D01*
X55070Y653193D01*
X55413Y654324D01*
X55529Y655500D01*
Y665500D01*
X55413Y666676D01*
X55070Y667807D01*
X54513Y668850D01*
X53763Y669763D01*
X52850Y670513D01*
X51807Y671070D01*
X51029Y671306D01*
Y672367D01*
X54633Y675971D01*
X59500D01*
Y672500D01*
X66500D01*
Y680500D01*
X64529D01*
Y683500D01*
X64413Y684085D01*
X64081Y684581D01*
X62081Y686581D01*
X61585Y686913D01*
X61000Y687029D01*
X47000D01*
Y690500D01*
D02*
G37*
G36*
X24000Y670482D02*
Y661000D01*
X29048D01*
Y665000D01*
X28858Y666436D01*
X28304Y667774D01*
X27423Y668923D01*
X26274Y669804D01*
X24936Y670358D01*
X24000Y670482D01*
D02*
G37*
G36*
X23000D02*
X22064Y670358D01*
X20726Y669804D01*
X19577Y668923D01*
X18696Y667774D01*
X18142Y666436D01*
X17953Y665000D01*
Y661000D01*
X23000D01*
Y670482D01*
D02*
G37*
G36*
X66500Y671500D02*
X59500D01*
Y663500D01*
X60971D01*
Y659750D01*
X59250D01*
Y652250D01*
X65750D01*
Y659750D01*
X64029D01*
Y663500D01*
X66500D01*
Y671500D01*
D02*
G37*
G36*
X29048Y660000D02*
X24000D01*
Y650518D01*
X24936Y650642D01*
X26274Y651196D01*
X27423Y652077D01*
X28304Y653226D01*
X28858Y654564D01*
X29048Y656000D01*
Y660000D01*
D02*
G37*
G36*
X23000D02*
X17953D01*
Y656000D01*
X18142Y654564D01*
X18696Y653226D01*
X19577Y652077D01*
X20726Y651196D01*
X22064Y650642D01*
X23000Y650518D01*
Y660000D01*
D02*
G37*
G36*
X65750Y650750D02*
X63000D01*
Y647500D01*
X65750D01*
Y650750D01*
D02*
G37*
G36*
X62000D02*
X59250D01*
Y647500D01*
X62000D01*
Y650750D01*
D02*
G37*
G36*
X65750Y646500D02*
X63000D01*
Y643250D01*
X65750D01*
Y646500D01*
D02*
G37*
G36*
X62000D02*
X59250D01*
Y643250D01*
X62000D01*
Y646500D01*
D02*
G37*
G36*
X41000Y648047D02*
X37000D01*
Y643000D01*
X46482D01*
X46358Y643936D01*
X45804Y645274D01*
X44923Y646423D01*
X43774Y647304D01*
X42436Y647858D01*
X41000Y648047D01*
D02*
G37*
G36*
X36000D02*
X32000D01*
X30564Y647858D01*
X29226Y647304D01*
X28077Y646423D01*
X27196Y645274D01*
X26642Y643936D01*
X26518Y643000D01*
X36000D01*
Y648047D01*
D02*
G37*
G36*
X46482Y642000D02*
X37000D01*
Y636952D01*
X41000D01*
X42436Y637142D01*
X43774Y637696D01*
X44923Y638577D01*
X45804Y639726D01*
X46358Y641064D01*
X46482Y642000D01*
D02*
G37*
G36*
X36000D02*
X26518D01*
X26642Y641064D01*
X27196Y639726D01*
X28077Y638577D01*
X29226Y637696D01*
X30564Y637142D01*
X32000Y636952D01*
X36000D01*
Y642000D01*
D02*
G37*
G36*
X533500Y565469D02*
Y562000D01*
X536969D01*
X536897Y562544D01*
X536494Y563517D01*
X535853Y564353D01*
X535017Y564994D01*
X534044Y565397D01*
X533500Y565469D01*
D02*
G37*
G36*
X532500D02*
X531956Y565397D01*
X530983Y564994D01*
X530147Y564353D01*
X529506Y563517D01*
X529103Y562544D01*
X529031Y562000D01*
X532500D01*
Y565469D01*
D02*
G37*
G36*
X536969Y561000D02*
X533500D01*
Y557531D01*
X534044Y557603D01*
X535017Y558006D01*
X535853Y558647D01*
X536494Y559483D01*
X536897Y560456D01*
X536969Y561000D01*
D02*
G37*
G36*
X532500D02*
X529031D01*
X529103Y560456D01*
X529506Y559483D01*
X530147Y558647D01*
X530983Y558006D01*
X531956Y557603D01*
X532500Y557531D01*
Y561000D01*
D02*
G37*
G36*
X547000Y565500D02*
X539000D01*
Y557500D01*
X547000D01*
Y558971D01*
X560366D01*
X561471Y557866D01*
Y555500D01*
X559500D01*
Y554029D01*
X554000D01*
X553415Y553913D01*
X552919Y553581D01*
X548419Y549081D01*
X548087Y548585D01*
X547971Y548000D01*
Y546306D01*
X547193Y546070D01*
X546150Y545513D01*
X545237Y544763D01*
X544487Y543850D01*
X543930Y542807D01*
X543587Y541676D01*
X543471Y540500D01*
Y530500D01*
X543587Y529324D01*
X543930Y528193D01*
X544487Y527150D01*
X545237Y526237D01*
X546150Y525487D01*
X547193Y524930D01*
X548324Y524587D01*
X549500Y524471D01*
X550676Y524587D01*
X551807Y524930D01*
X552849Y525487D01*
X553763Y526237D01*
X554513Y527150D01*
X555070Y528193D01*
X555413Y529324D01*
X555529Y530500D01*
Y540500D01*
X555413Y541676D01*
X555070Y542807D01*
X554513Y543850D01*
X553763Y544763D01*
X552849Y545513D01*
X551807Y546070D01*
X551029Y546306D01*
Y547367D01*
X554634Y550971D01*
X559500D01*
Y547500D01*
X566500D01*
Y555500D01*
X564529D01*
Y558500D01*
X564413Y559085D01*
X564081Y559581D01*
X562081Y561581D01*
X561585Y561913D01*
X561000Y562029D01*
X547000D01*
Y565500D01*
D02*
G37*
G36*
X524000Y545482D02*
Y536000D01*
X529047D01*
Y540000D01*
X528858Y541436D01*
X528304Y542774D01*
X527423Y543923D01*
X526274Y544804D01*
X524936Y545358D01*
X524000Y545482D01*
D02*
G37*
G36*
X523000D02*
X522064Y545358D01*
X520726Y544804D01*
X519577Y543923D01*
X518696Y542774D01*
X518142Y541436D01*
X517952Y540000D01*
Y536000D01*
X523000D01*
Y545482D01*
D02*
G37*
G36*
X566500Y546500D02*
X559500D01*
Y538500D01*
X560971D01*
Y534750D01*
X559250D01*
Y527250D01*
X565750D01*
Y534750D01*
X564029D01*
Y538500D01*
X566500D01*
Y546500D01*
D02*
G37*
G36*
X529047Y535000D02*
X524000D01*
Y525518D01*
X524936Y525642D01*
X526274Y526196D01*
X527423Y527077D01*
X528304Y528226D01*
X528858Y529564D01*
X529047Y531000D01*
Y535000D01*
D02*
G37*
G36*
X523000D02*
X517952D01*
Y531000D01*
X518142Y529564D01*
X518696Y528226D01*
X519577Y527077D01*
X520726Y526196D01*
X522064Y525642D01*
X523000Y525518D01*
Y535000D01*
D02*
G37*
G36*
X565750Y525750D02*
X563000D01*
Y522500D01*
X565750D01*
Y525750D01*
D02*
G37*
G36*
X562000D02*
X559250D01*
Y522500D01*
X562000D01*
Y525750D01*
D02*
G37*
G36*
X565750Y521500D02*
X563000D01*
Y518250D01*
X565750D01*
Y521500D01*
D02*
G37*
G36*
X562000D02*
X559250D01*
Y518250D01*
X562000D01*
Y521500D01*
D02*
G37*
G36*
X541000Y523047D02*
X537000D01*
Y518000D01*
X546482D01*
X546358Y518936D01*
X545804Y520274D01*
X544923Y521423D01*
X543774Y522304D01*
X542436Y522858D01*
X541000Y523047D01*
D02*
G37*
G36*
X536000D02*
X532000D01*
X530564Y522858D01*
X529226Y522304D01*
X528077Y521423D01*
X527196Y520274D01*
X526642Y518936D01*
X526518Y518000D01*
X536000D01*
Y523047D01*
D02*
G37*
G36*
X546482Y517000D02*
X537000D01*
Y511952D01*
X541000D01*
X542436Y512142D01*
X543774Y512696D01*
X544923Y513577D01*
X545804Y514726D01*
X546358Y516064D01*
X546482Y517000D01*
D02*
G37*
G36*
X536000D02*
X526518D01*
X526642Y516064D01*
X527196Y514726D01*
X528077Y513577D01*
X529226Y512696D01*
X530564Y512142D01*
X532000Y511952D01*
X536000D01*
Y517000D01*
D02*
G37*
G36*
X408500Y565469D02*
Y562000D01*
X411969D01*
X411897Y562544D01*
X411494Y563517D01*
X410853Y564353D01*
X410017Y564994D01*
X409044Y565397D01*
X408500Y565469D01*
D02*
G37*
G36*
X407500D02*
X406956Y565397D01*
X405983Y564994D01*
X405147Y564353D01*
X404506Y563517D01*
X404103Y562544D01*
X404031Y562000D01*
X407500D01*
Y565469D01*
D02*
G37*
G36*
X411969Y561000D02*
X408500D01*
Y557531D01*
X409044Y557603D01*
X410017Y558006D01*
X410853Y558647D01*
X411494Y559483D01*
X411897Y560456D01*
X411969Y561000D01*
D02*
G37*
G36*
X407500D02*
X404031D01*
X404103Y560456D01*
X404506Y559483D01*
X405147Y558647D01*
X405983Y558006D01*
X406956Y557603D01*
X407500Y557531D01*
Y561000D01*
D02*
G37*
G36*
X422000Y565500D02*
X414000D01*
Y557500D01*
X422000D01*
Y558971D01*
X435366D01*
X436471Y557866D01*
Y555500D01*
X434500D01*
Y554029D01*
X429000D01*
X428415Y553913D01*
X427919Y553581D01*
X423419Y549081D01*
X423087Y548585D01*
X422971Y548000D01*
Y546306D01*
X422193Y546070D01*
X421150Y545513D01*
X420237Y544763D01*
X419487Y543850D01*
X418930Y542807D01*
X418587Y541676D01*
X418471Y540500D01*
Y530500D01*
X418587Y529324D01*
X418930Y528193D01*
X419487Y527150D01*
X420237Y526237D01*
X421150Y525487D01*
X422193Y524930D01*
X423324Y524587D01*
X424500Y524471D01*
X425676Y524587D01*
X426807Y524930D01*
X427849Y525487D01*
X428763Y526237D01*
X429513Y527150D01*
X430070Y528193D01*
X430413Y529324D01*
X430529Y530500D01*
Y540500D01*
X430413Y541676D01*
X430070Y542807D01*
X429513Y543850D01*
X428763Y544763D01*
X427849Y545513D01*
X426807Y546070D01*
X426029Y546306D01*
Y547367D01*
X429634Y550971D01*
X434500D01*
Y547500D01*
X441500D01*
Y555500D01*
X439529D01*
Y558500D01*
X439413Y559085D01*
X439081Y559581D01*
X437081Y561581D01*
X436585Y561913D01*
X436000Y562029D01*
X422000D01*
Y565500D01*
D02*
G37*
G36*
X399000Y545482D02*
Y536000D01*
X404047D01*
Y540000D01*
X403858Y541436D01*
X403304Y542774D01*
X402423Y543923D01*
X401274Y544804D01*
X399936Y545358D01*
X399000Y545482D01*
D02*
G37*
G36*
X398000D02*
X397064Y545358D01*
X395726Y544804D01*
X394577Y543923D01*
X393696Y542774D01*
X393142Y541436D01*
X392952Y540000D01*
Y536000D01*
X398000D01*
Y545482D01*
D02*
G37*
G36*
X441500Y546500D02*
X434500D01*
Y538500D01*
X435971D01*
Y534750D01*
X434250D01*
Y527250D01*
X440750D01*
Y534750D01*
X439029D01*
Y538500D01*
X441500D01*
Y546500D01*
D02*
G37*
G36*
X404047Y535000D02*
X399000D01*
Y525518D01*
X399936Y525642D01*
X401274Y526196D01*
X402423Y527077D01*
X403304Y528226D01*
X403858Y529564D01*
X404047Y531000D01*
Y535000D01*
D02*
G37*
G36*
X398000D02*
X392952D01*
Y531000D01*
X393142Y529564D01*
X393696Y528226D01*
X394577Y527077D01*
X395726Y526196D01*
X397064Y525642D01*
X398000Y525518D01*
Y535000D01*
D02*
G37*
G36*
X440750Y525750D02*
X438000D01*
Y522500D01*
X440750D01*
Y525750D01*
D02*
G37*
G36*
X437000D02*
X434250D01*
Y522500D01*
X437000D01*
Y525750D01*
D02*
G37*
G36*
X440750Y521500D02*
X438000D01*
Y518250D01*
X440750D01*
Y521500D01*
D02*
G37*
G36*
X437000D02*
X434250D01*
Y518250D01*
X437000D01*
Y521500D01*
D02*
G37*
G36*
X416000Y523047D02*
X412000D01*
Y518000D01*
X421482D01*
X421358Y518936D01*
X420804Y520274D01*
X419923Y521423D01*
X418774Y522304D01*
X417436Y522858D01*
X416000Y523047D01*
D02*
G37*
G36*
X411000D02*
X407000D01*
X405564Y522858D01*
X404226Y522304D01*
X403077Y521423D01*
X402196Y520274D01*
X401642Y518936D01*
X401518Y518000D01*
X411000D01*
Y523047D01*
D02*
G37*
G36*
X421482Y517000D02*
X412000D01*
Y511952D01*
X416000D01*
X417436Y512142D01*
X418774Y512696D01*
X419923Y513577D01*
X420804Y514726D01*
X421358Y516064D01*
X421482Y517000D01*
D02*
G37*
G36*
X411000D02*
X401518D01*
X401642Y516064D01*
X402196Y514726D01*
X403077Y513577D01*
X404226Y512696D01*
X405564Y512142D01*
X407000Y511952D01*
X411000D01*
Y517000D01*
D02*
G37*
G36*
X283500Y565469D02*
Y562000D01*
X286969D01*
X286897Y562544D01*
X286494Y563517D01*
X285853Y564353D01*
X285017Y564994D01*
X284044Y565397D01*
X283500Y565469D01*
D02*
G37*
G36*
X282500D02*
X281956Y565397D01*
X280983Y564994D01*
X280147Y564353D01*
X279506Y563517D01*
X279103Y562544D01*
X279031Y562000D01*
X282500D01*
Y565469D01*
D02*
G37*
G36*
X286969Y561000D02*
X283500D01*
Y557531D01*
X284044Y557603D01*
X285017Y558006D01*
X285853Y558647D01*
X286494Y559483D01*
X286897Y560456D01*
X286969Y561000D01*
D02*
G37*
G36*
X282500D02*
X279031D01*
X279103Y560456D01*
X279506Y559483D01*
X280147Y558647D01*
X280983Y558006D01*
X281956Y557603D01*
X282500Y557531D01*
Y561000D01*
D02*
G37*
G36*
X297000Y565500D02*
X289000D01*
Y557500D01*
X297000D01*
Y558971D01*
X310367D01*
X311471Y557866D01*
Y555500D01*
X309500D01*
Y554029D01*
X304000D01*
X303415Y553913D01*
X302919Y553581D01*
X298419Y549081D01*
X298087Y548585D01*
X297971Y548000D01*
Y546306D01*
X297193Y546070D01*
X296150Y545513D01*
X295237Y544763D01*
X294487Y543850D01*
X293930Y542807D01*
X293587Y541676D01*
X293471Y540500D01*
Y530500D01*
X293587Y529324D01*
X293930Y528193D01*
X294487Y527150D01*
X295237Y526237D01*
X296150Y525487D01*
X297193Y524930D01*
X298324Y524587D01*
X299500Y524471D01*
X300676Y524587D01*
X301807Y524930D01*
X302850Y525487D01*
X303763Y526237D01*
X304513Y527150D01*
X305070Y528193D01*
X305413Y529324D01*
X305529Y530500D01*
Y540500D01*
X305413Y541676D01*
X305070Y542807D01*
X304513Y543850D01*
X303763Y544763D01*
X302850Y545513D01*
X301807Y546070D01*
X301029Y546306D01*
Y547367D01*
X304633Y550971D01*
X309500D01*
Y547500D01*
X316500D01*
Y555500D01*
X314529D01*
Y558500D01*
X314413Y559085D01*
X314081Y559581D01*
X312081Y561581D01*
X311585Y561913D01*
X311000Y562029D01*
X297000D01*
Y565500D01*
D02*
G37*
G36*
X274000Y545482D02*
Y536000D01*
X279047D01*
Y540000D01*
X278858Y541436D01*
X278304Y542774D01*
X277423Y543923D01*
X276274Y544804D01*
X274936Y545358D01*
X274000Y545482D01*
D02*
G37*
G36*
X273000D02*
X272064Y545358D01*
X270726Y544804D01*
X269577Y543923D01*
X268696Y542774D01*
X268142Y541436D01*
X267952Y540000D01*
Y536000D01*
X273000D01*
Y545482D01*
D02*
G37*
G36*
X316500Y546500D02*
X309500D01*
Y538500D01*
X310971D01*
Y534750D01*
X309250D01*
Y527250D01*
X315750D01*
Y534750D01*
X314029D01*
Y538500D01*
X316500D01*
Y546500D01*
D02*
G37*
G36*
X279047Y535000D02*
X274000D01*
Y525518D01*
X274936Y525642D01*
X276274Y526196D01*
X277423Y527077D01*
X278304Y528226D01*
X278858Y529564D01*
X279047Y531000D01*
Y535000D01*
D02*
G37*
G36*
X273000D02*
X267952D01*
Y531000D01*
X268142Y529564D01*
X268696Y528226D01*
X269577Y527077D01*
X270726Y526196D01*
X272064Y525642D01*
X273000Y525518D01*
Y535000D01*
D02*
G37*
G36*
X315750Y525750D02*
X313000D01*
Y522500D01*
X315750D01*
Y525750D01*
D02*
G37*
G36*
X312000D02*
X309250D01*
Y522500D01*
X312000D01*
Y525750D01*
D02*
G37*
G36*
X315750Y521500D02*
X313000D01*
Y518250D01*
X315750D01*
Y521500D01*
D02*
G37*
G36*
X312000D02*
X309250D01*
Y518250D01*
X312000D01*
Y521500D01*
D02*
G37*
G36*
X291000Y523047D02*
X287000D01*
Y518000D01*
X296482D01*
X296358Y518936D01*
X295804Y520274D01*
X294923Y521423D01*
X293774Y522304D01*
X292436Y522858D01*
X291000Y523047D01*
D02*
G37*
G36*
X286000D02*
X282000D01*
X280564Y522858D01*
X279226Y522304D01*
X278077Y521423D01*
X277196Y520274D01*
X276642Y518936D01*
X276518Y518000D01*
X286000D01*
Y523047D01*
D02*
G37*
G36*
X296482Y517000D02*
X287000D01*
Y511952D01*
X291000D01*
X292436Y512142D01*
X293774Y512696D01*
X294923Y513577D01*
X295804Y514726D01*
X296358Y516064D01*
X296482Y517000D01*
D02*
G37*
G36*
X286000D02*
X276518D01*
X276642Y516064D01*
X277196Y514726D01*
X278077Y513577D01*
X279226Y512696D01*
X280564Y512142D01*
X282000Y511952D01*
X286000D01*
Y517000D01*
D02*
G37*
G36*
X158500Y565469D02*
Y562000D01*
X161969D01*
X161897Y562544D01*
X161494Y563517D01*
X160853Y564353D01*
X160017Y564994D01*
X159044Y565397D01*
X158500Y565469D01*
D02*
G37*
G36*
X157500D02*
X156956Y565397D01*
X155983Y564994D01*
X155147Y564353D01*
X154506Y563517D01*
X154103Y562544D01*
X154031Y562000D01*
X157500D01*
Y565469D01*
D02*
G37*
G36*
X161969Y561000D02*
X158500D01*
Y557531D01*
X159044Y557603D01*
X160017Y558006D01*
X160853Y558647D01*
X161494Y559483D01*
X161897Y560456D01*
X161969Y561000D01*
D02*
G37*
G36*
X157500D02*
X154031D01*
X154103Y560456D01*
X154506Y559483D01*
X155147Y558647D01*
X155983Y558006D01*
X156956Y557603D01*
X157500Y557531D01*
Y561000D01*
D02*
G37*
G36*
X172000Y565500D02*
X164000D01*
Y557500D01*
X172000D01*
Y558971D01*
X185366D01*
X186471Y557866D01*
Y555500D01*
X184500D01*
Y554029D01*
X179000D01*
X178415Y553913D01*
X177919Y553581D01*
X173419Y549081D01*
X173087Y548585D01*
X172971Y548000D01*
Y546306D01*
X172193Y546070D01*
X171151Y545513D01*
X170237Y544763D01*
X169487Y543850D01*
X168930Y542807D01*
X168587Y541676D01*
X168471Y540500D01*
Y530500D01*
X168587Y529324D01*
X168930Y528193D01*
X169487Y527150D01*
X170237Y526237D01*
X171151Y525487D01*
X172193Y524930D01*
X173324Y524587D01*
X174500Y524471D01*
X175676Y524587D01*
X176807Y524930D01*
X177849Y525487D01*
X178763Y526237D01*
X179513Y527150D01*
X180070Y528193D01*
X180413Y529324D01*
X180529Y530500D01*
Y540500D01*
X180413Y541676D01*
X180070Y542807D01*
X179513Y543850D01*
X178763Y544763D01*
X177849Y545513D01*
X176807Y546070D01*
X176029Y546306D01*
Y547367D01*
X179633Y550971D01*
X184500D01*
Y547500D01*
X191500D01*
Y555500D01*
X189529D01*
Y558500D01*
X189413Y559085D01*
X189081Y559581D01*
X187081Y561581D01*
X186585Y561913D01*
X186000Y562029D01*
X172000D01*
Y565500D01*
D02*
G37*
G36*
X149000Y545482D02*
Y536000D01*
X154048D01*
Y540000D01*
X153858Y541436D01*
X153304Y542774D01*
X152423Y543923D01*
X151274Y544804D01*
X149936Y545358D01*
X149000Y545482D01*
D02*
G37*
G36*
X148000D02*
X147064Y545358D01*
X145726Y544804D01*
X144577Y543923D01*
X143696Y542774D01*
X143142Y541436D01*
X142953Y540000D01*
Y536000D01*
X148000D01*
Y545482D01*
D02*
G37*
G36*
X191500Y546500D02*
X184500D01*
Y538500D01*
X185971D01*
Y534750D01*
X184250D01*
Y527250D01*
X190750D01*
Y534750D01*
X189029D01*
Y538500D01*
X191500D01*
Y546500D01*
D02*
G37*
G36*
X154048Y535000D02*
X149000D01*
Y525518D01*
X149936Y525642D01*
X151274Y526196D01*
X152423Y527077D01*
X153304Y528226D01*
X153858Y529564D01*
X154048Y531000D01*
Y535000D01*
D02*
G37*
G36*
X148000D02*
X142953D01*
Y531000D01*
X143142Y529564D01*
X143696Y528226D01*
X144577Y527077D01*
X145726Y526196D01*
X147064Y525642D01*
X148000Y525518D01*
Y535000D01*
D02*
G37*
G36*
X190750Y525750D02*
X188000D01*
Y522500D01*
X190750D01*
Y525750D01*
D02*
G37*
G36*
X187000D02*
X184250D01*
Y522500D01*
X187000D01*
Y525750D01*
D02*
G37*
G36*
X190750Y521500D02*
X188000D01*
Y518250D01*
X190750D01*
Y521500D01*
D02*
G37*
G36*
X187000D02*
X184250D01*
Y518250D01*
X187000D01*
Y521500D01*
D02*
G37*
G36*
X166000Y523047D02*
X162000D01*
Y518000D01*
X171482D01*
X171358Y518936D01*
X170804Y520274D01*
X169923Y521423D01*
X168774Y522304D01*
X167436Y522858D01*
X166000Y523047D01*
D02*
G37*
G36*
X161000D02*
X157000D01*
X155564Y522858D01*
X154226Y522304D01*
X153077Y521423D01*
X152196Y520274D01*
X151642Y518936D01*
X151518Y518000D01*
X161000D01*
Y523047D01*
D02*
G37*
G36*
X171482Y517000D02*
X162000D01*
Y511952D01*
X166000D01*
X167436Y512142D01*
X168774Y512696D01*
X169923Y513577D01*
X170804Y514726D01*
X171358Y516064D01*
X171482Y517000D01*
D02*
G37*
G36*
X161000D02*
X151518D01*
X151642Y516064D01*
X152196Y514726D01*
X153077Y513577D01*
X154226Y512696D01*
X155564Y512142D01*
X157000Y511952D01*
X161000D01*
Y517000D01*
D02*
G37*
G36*
X33500Y565469D02*
Y562000D01*
X36969D01*
X36897Y562544D01*
X36494Y563517D01*
X35853Y564353D01*
X35017Y564994D01*
X34044Y565397D01*
X33500Y565469D01*
D02*
G37*
G36*
X32500D02*
X31956Y565397D01*
X30983Y564994D01*
X30147Y564353D01*
X29506Y563517D01*
X29103Y562544D01*
X29031Y562000D01*
X32500D01*
Y565469D01*
D02*
G37*
G36*
X36969Y561000D02*
X33500D01*
Y557531D01*
X34044Y557603D01*
X35017Y558006D01*
X35853Y558647D01*
X36494Y559483D01*
X36897Y560456D01*
X36969Y561000D01*
D02*
G37*
G36*
X32500D02*
X29031D01*
X29103Y560456D01*
X29506Y559483D01*
X30147Y558647D01*
X30983Y558006D01*
X31956Y557603D01*
X32500Y557531D01*
Y561000D01*
D02*
G37*
G36*
X47000Y565500D02*
X39000D01*
Y557500D01*
X47000D01*
Y558971D01*
X60366D01*
X61471Y557866D01*
Y555500D01*
X59500D01*
Y554029D01*
X54000D01*
X53415Y553913D01*
X52919Y553581D01*
X48419Y549081D01*
X48087Y548585D01*
X47971Y548000D01*
Y546306D01*
X47193Y546070D01*
X46150Y545513D01*
X45237Y544763D01*
X44487Y543850D01*
X43930Y542807D01*
X43587Y541676D01*
X43471Y540500D01*
Y530500D01*
X43587Y529324D01*
X43930Y528193D01*
X44487Y527150D01*
X45237Y526237D01*
X46150Y525487D01*
X47193Y524930D01*
X48324Y524587D01*
X49500Y524471D01*
X50676Y524587D01*
X51807Y524930D01*
X52850Y525487D01*
X53763Y526237D01*
X54513Y527150D01*
X55070Y528193D01*
X55413Y529324D01*
X55529Y530500D01*
Y540500D01*
X55413Y541676D01*
X55070Y542807D01*
X54513Y543850D01*
X53763Y544763D01*
X52850Y545513D01*
X51807Y546070D01*
X51029Y546306D01*
Y547367D01*
X54633Y550971D01*
X59500D01*
Y547500D01*
X66500D01*
Y555500D01*
X64529D01*
Y558500D01*
X64413Y559085D01*
X64081Y559581D01*
X62081Y561581D01*
X61585Y561913D01*
X61000Y562029D01*
X47000D01*
Y565500D01*
D02*
G37*
G36*
X24000Y545482D02*
Y536000D01*
X29048D01*
Y540000D01*
X28858Y541436D01*
X28304Y542774D01*
X27423Y543923D01*
X26274Y544804D01*
X24936Y545358D01*
X24000Y545482D01*
D02*
G37*
G36*
X23000D02*
X22064Y545358D01*
X20726Y544804D01*
X19577Y543923D01*
X18696Y542774D01*
X18142Y541436D01*
X17953Y540000D01*
Y536000D01*
X23000D01*
Y545482D01*
D02*
G37*
G36*
X66500Y546500D02*
X59500D01*
Y538500D01*
X60971D01*
Y534750D01*
X59250D01*
Y527250D01*
X65750D01*
Y534750D01*
X64029D01*
Y538500D01*
X66500D01*
Y546500D01*
D02*
G37*
G36*
X29048Y535000D02*
X24000D01*
Y525518D01*
X24936Y525642D01*
X26274Y526196D01*
X27423Y527077D01*
X28304Y528226D01*
X28858Y529564D01*
X29048Y531000D01*
Y535000D01*
D02*
G37*
G36*
X23000D02*
X17953D01*
Y531000D01*
X18142Y529564D01*
X18696Y528226D01*
X19577Y527077D01*
X20726Y526196D01*
X22064Y525642D01*
X23000Y525518D01*
Y535000D01*
D02*
G37*
G36*
X65750Y525750D02*
X63000D01*
Y522500D01*
X65750D01*
Y525750D01*
D02*
G37*
G36*
X62000D02*
X59250D01*
Y522500D01*
X62000D01*
Y525750D01*
D02*
G37*
G36*
X65750Y521500D02*
X63000D01*
Y518250D01*
X65750D01*
Y521500D01*
D02*
G37*
G36*
X62000D02*
X59250D01*
Y518250D01*
X62000D01*
Y521500D01*
D02*
G37*
G36*
X41000Y523047D02*
X37000D01*
Y518000D01*
X46482D01*
X46358Y518936D01*
X45804Y520274D01*
X44923Y521423D01*
X43774Y522304D01*
X42436Y522858D01*
X41000Y523047D01*
D02*
G37*
G36*
X36000D02*
X32000D01*
X30564Y522858D01*
X29226Y522304D01*
X28077Y521423D01*
X27196Y520274D01*
X26642Y518936D01*
X26518Y518000D01*
X36000D01*
Y523047D01*
D02*
G37*
G36*
X46482Y517000D02*
X37000D01*
Y511952D01*
X41000D01*
X42436Y512142D01*
X43774Y512696D01*
X44923Y513577D01*
X45804Y514726D01*
X46358Y516064D01*
X46482Y517000D01*
D02*
G37*
G36*
X36000D02*
X26518D01*
X26642Y516064D01*
X27196Y514726D01*
X28077Y513577D01*
X29226Y512696D01*
X30564Y512142D01*
X32000Y511952D01*
X36000D01*
Y517000D01*
D02*
G37*
G36*
X533500Y440469D02*
Y437000D01*
X536969D01*
X536897Y437544D01*
X536494Y438517D01*
X535853Y439353D01*
X535017Y439994D01*
X534044Y440397D01*
X533500Y440469D01*
D02*
G37*
G36*
X532500D02*
X531956Y440397D01*
X530983Y439994D01*
X530147Y439353D01*
X529506Y438517D01*
X529103Y437544D01*
X529031Y437000D01*
X532500D01*
Y440469D01*
D02*
G37*
G36*
X536969Y436000D02*
X533500D01*
Y432531D01*
X534044Y432603D01*
X535017Y433006D01*
X535853Y433647D01*
X536494Y434483D01*
X536897Y435456D01*
X536969Y436000D01*
D02*
G37*
G36*
X532500D02*
X529031D01*
X529103Y435456D01*
X529506Y434483D01*
X530147Y433647D01*
X530983Y433006D01*
X531956Y432603D01*
X532500Y432531D01*
Y436000D01*
D02*
G37*
G36*
X547000Y440500D02*
X539000D01*
Y432500D01*
X547000D01*
Y433971D01*
X560366D01*
X561471Y432866D01*
Y430500D01*
X559500D01*
Y429029D01*
X554000D01*
X553415Y428913D01*
X552919Y428581D01*
X548419Y424081D01*
X548087Y423585D01*
X547971Y423000D01*
Y421306D01*
X547193Y421070D01*
X546150Y420513D01*
X545237Y419763D01*
X544487Y418850D01*
X543930Y417807D01*
X543587Y416676D01*
X543471Y415500D01*
Y405500D01*
X543587Y404324D01*
X543930Y403193D01*
X544487Y402150D01*
X545237Y401237D01*
X546150Y400487D01*
X547193Y399930D01*
X548324Y399587D01*
X549500Y399471D01*
X550676Y399587D01*
X551807Y399930D01*
X552849Y400487D01*
X553763Y401237D01*
X554513Y402150D01*
X555070Y403193D01*
X555413Y404324D01*
X555529Y405500D01*
Y415500D01*
X555413Y416676D01*
X555070Y417807D01*
X554513Y418850D01*
X553763Y419763D01*
X552849Y420513D01*
X551807Y421070D01*
X551029Y421306D01*
Y422367D01*
X554634Y425971D01*
X559500D01*
Y422500D01*
X566500D01*
Y430500D01*
X564529D01*
Y433500D01*
X564413Y434085D01*
X564081Y434581D01*
X562081Y436581D01*
X561585Y436913D01*
X561000Y437029D01*
X547000D01*
Y440500D01*
D02*
G37*
G36*
X524000Y420482D02*
Y411000D01*
X529047D01*
Y415000D01*
X528858Y416436D01*
X528304Y417774D01*
X527423Y418923D01*
X526274Y419804D01*
X524936Y420358D01*
X524000Y420482D01*
D02*
G37*
G36*
X523000D02*
X522064Y420358D01*
X520726Y419804D01*
X519577Y418923D01*
X518696Y417774D01*
X518142Y416436D01*
X517952Y415000D01*
Y411000D01*
X523000D01*
Y420482D01*
D02*
G37*
G36*
X566500Y421500D02*
X559500D01*
Y413500D01*
X560971D01*
Y409750D01*
X559250D01*
Y402250D01*
X565750D01*
Y409750D01*
X564029D01*
Y413500D01*
X566500D01*
Y421500D01*
D02*
G37*
G36*
X529047Y410000D02*
X524000D01*
Y400518D01*
X524936Y400642D01*
X526274Y401196D01*
X527423Y402077D01*
X528304Y403226D01*
X528858Y404564D01*
X529047Y406000D01*
Y410000D01*
D02*
G37*
G36*
X523000D02*
X517952D01*
Y406000D01*
X518142Y404564D01*
X518696Y403226D01*
X519577Y402077D01*
X520726Y401196D01*
X522064Y400642D01*
X523000Y400518D01*
Y410000D01*
D02*
G37*
G36*
X565750Y400750D02*
X563000D01*
Y397500D01*
X565750D01*
Y400750D01*
D02*
G37*
G36*
X562000D02*
X559250D01*
Y397500D01*
X562000D01*
Y400750D01*
D02*
G37*
G36*
X565750Y396500D02*
X563000D01*
Y393250D01*
X565750D01*
Y396500D01*
D02*
G37*
G36*
X562000D02*
X559250D01*
Y393250D01*
X562000D01*
Y396500D01*
D02*
G37*
G36*
X541000Y398047D02*
X537000D01*
Y393000D01*
X546482D01*
X546358Y393936D01*
X545804Y395274D01*
X544923Y396423D01*
X543774Y397304D01*
X542436Y397858D01*
X541000Y398047D01*
D02*
G37*
G36*
X536000D02*
X532000D01*
X530564Y397858D01*
X529226Y397304D01*
X528077Y396423D01*
X527196Y395274D01*
X526642Y393936D01*
X526518Y393000D01*
X536000D01*
Y398047D01*
D02*
G37*
G36*
X546482Y392000D02*
X537000D01*
Y386952D01*
X541000D01*
X542436Y387142D01*
X543774Y387696D01*
X544923Y388577D01*
X545804Y389726D01*
X546358Y391064D01*
X546482Y392000D01*
D02*
G37*
G36*
X536000D02*
X526518D01*
X526642Y391064D01*
X527196Y389726D01*
X528077Y388577D01*
X529226Y387696D01*
X530564Y387142D01*
X532000Y386952D01*
X536000D01*
Y392000D01*
D02*
G37*
G36*
X408500Y440469D02*
Y437000D01*
X411969D01*
X411897Y437544D01*
X411494Y438517D01*
X410853Y439353D01*
X410017Y439994D01*
X409044Y440397D01*
X408500Y440469D01*
D02*
G37*
G36*
X407500D02*
X406956Y440397D01*
X405983Y439994D01*
X405147Y439353D01*
X404506Y438517D01*
X404103Y437544D01*
X404031Y437000D01*
X407500D01*
Y440469D01*
D02*
G37*
G36*
X411969Y436000D02*
X408500D01*
Y432531D01*
X409044Y432603D01*
X410017Y433006D01*
X410853Y433647D01*
X411494Y434483D01*
X411897Y435456D01*
X411969Y436000D01*
D02*
G37*
G36*
X407500D02*
X404031D01*
X404103Y435456D01*
X404506Y434483D01*
X405147Y433647D01*
X405983Y433006D01*
X406956Y432603D01*
X407500Y432531D01*
Y436000D01*
D02*
G37*
G36*
X422000Y440500D02*
X414000D01*
Y432500D01*
X422000D01*
Y433971D01*
X435366D01*
X436471Y432866D01*
Y430500D01*
X434500D01*
Y429029D01*
X429000D01*
X428415Y428913D01*
X427919Y428581D01*
X423419Y424081D01*
X423087Y423585D01*
X422971Y423000D01*
Y421306D01*
X422193Y421070D01*
X421150Y420513D01*
X420237Y419763D01*
X419487Y418850D01*
X418930Y417807D01*
X418587Y416676D01*
X418471Y415500D01*
Y405500D01*
X418587Y404324D01*
X418930Y403193D01*
X419487Y402150D01*
X420237Y401237D01*
X421150Y400487D01*
X422193Y399930D01*
X423324Y399587D01*
X424500Y399471D01*
X425676Y399587D01*
X426807Y399930D01*
X427849Y400487D01*
X428763Y401237D01*
X429513Y402150D01*
X430070Y403193D01*
X430413Y404324D01*
X430529Y405500D01*
Y415500D01*
X430413Y416676D01*
X430070Y417807D01*
X429513Y418850D01*
X428763Y419763D01*
X427849Y420513D01*
X426807Y421070D01*
X426029Y421306D01*
Y422367D01*
X429634Y425971D01*
X434500D01*
Y422500D01*
X441500D01*
Y430500D01*
X439529D01*
Y433500D01*
X439413Y434085D01*
X439081Y434581D01*
X437081Y436581D01*
X436585Y436913D01*
X436000Y437029D01*
X422000D01*
Y440500D01*
D02*
G37*
G36*
X399000Y420482D02*
Y411000D01*
X404047D01*
Y415000D01*
X403858Y416436D01*
X403304Y417774D01*
X402423Y418923D01*
X401274Y419804D01*
X399936Y420358D01*
X399000Y420482D01*
D02*
G37*
G36*
X398000D02*
X397064Y420358D01*
X395726Y419804D01*
X394577Y418923D01*
X393696Y417774D01*
X393142Y416436D01*
X392952Y415000D01*
Y411000D01*
X398000D01*
Y420482D01*
D02*
G37*
G36*
X441500Y421500D02*
X434500D01*
Y413500D01*
X435971D01*
Y409750D01*
X434250D01*
Y402250D01*
X440750D01*
Y409750D01*
X439029D01*
Y413500D01*
X441500D01*
Y421500D01*
D02*
G37*
G36*
X404047Y410000D02*
X399000D01*
Y400518D01*
X399936Y400642D01*
X401274Y401196D01*
X402423Y402077D01*
X403304Y403226D01*
X403858Y404564D01*
X404047Y406000D01*
Y410000D01*
D02*
G37*
G36*
X398000D02*
X392952D01*
Y406000D01*
X393142Y404564D01*
X393696Y403226D01*
X394577Y402077D01*
X395726Y401196D01*
X397064Y400642D01*
X398000Y400518D01*
Y410000D01*
D02*
G37*
G36*
X440750Y400750D02*
X438000D01*
Y397500D01*
X440750D01*
Y400750D01*
D02*
G37*
G36*
X437000D02*
X434250D01*
Y397500D01*
X437000D01*
Y400750D01*
D02*
G37*
G36*
X440750Y396500D02*
X438000D01*
Y393250D01*
X440750D01*
Y396500D01*
D02*
G37*
G36*
X437000D02*
X434250D01*
Y393250D01*
X437000D01*
Y396500D01*
D02*
G37*
G36*
X416000Y398047D02*
X412000D01*
Y393000D01*
X421482D01*
X421358Y393936D01*
X420804Y395274D01*
X419923Y396423D01*
X418774Y397304D01*
X417436Y397858D01*
X416000Y398047D01*
D02*
G37*
G36*
X411000D02*
X407000D01*
X405564Y397858D01*
X404226Y397304D01*
X403077Y396423D01*
X402196Y395274D01*
X401642Y393936D01*
X401518Y393000D01*
X411000D01*
Y398047D01*
D02*
G37*
G36*
X421482Y392000D02*
X412000D01*
Y386952D01*
X416000D01*
X417436Y387142D01*
X418774Y387696D01*
X419923Y388577D01*
X420804Y389726D01*
X421358Y391064D01*
X421482Y392000D01*
D02*
G37*
G36*
X411000D02*
X401518D01*
X401642Y391064D01*
X402196Y389726D01*
X403077Y388577D01*
X404226Y387696D01*
X405564Y387142D01*
X407000Y386952D01*
X411000D01*
Y392000D01*
D02*
G37*
G36*
X283500Y440469D02*
Y437000D01*
X286969D01*
X286897Y437544D01*
X286494Y438517D01*
X285853Y439353D01*
X285017Y439994D01*
X284044Y440397D01*
X283500Y440469D01*
D02*
G37*
G36*
X282500D02*
X281956Y440397D01*
X280983Y439994D01*
X280147Y439353D01*
X279506Y438517D01*
X279103Y437544D01*
X279031Y437000D01*
X282500D01*
Y440469D01*
D02*
G37*
G36*
X286969Y436000D02*
X283500D01*
Y432531D01*
X284044Y432603D01*
X285017Y433006D01*
X285853Y433647D01*
X286494Y434483D01*
X286897Y435456D01*
X286969Y436000D01*
D02*
G37*
G36*
X282500D02*
X279031D01*
X279103Y435456D01*
X279506Y434483D01*
X280147Y433647D01*
X280983Y433006D01*
X281956Y432603D01*
X282500Y432531D01*
Y436000D01*
D02*
G37*
G36*
X297000Y440500D02*
X289000D01*
Y432500D01*
X297000D01*
Y433971D01*
X310367D01*
X311471Y432866D01*
Y430500D01*
X309500D01*
Y429029D01*
X304000D01*
X303415Y428913D01*
X302919Y428581D01*
X298419Y424081D01*
X298087Y423585D01*
X297971Y423000D01*
Y421306D01*
X297193Y421070D01*
X296150Y420513D01*
X295237Y419763D01*
X294487Y418850D01*
X293930Y417807D01*
X293587Y416676D01*
X293471Y415500D01*
Y405500D01*
X293587Y404324D01*
X293930Y403193D01*
X294487Y402150D01*
X295237Y401237D01*
X296150Y400487D01*
X297193Y399930D01*
X298324Y399587D01*
X299500Y399471D01*
X300676Y399587D01*
X301807Y399930D01*
X302850Y400487D01*
X303763Y401237D01*
X304513Y402150D01*
X305070Y403193D01*
X305413Y404324D01*
X305529Y405500D01*
Y415500D01*
X305413Y416676D01*
X305070Y417807D01*
X304513Y418850D01*
X303763Y419763D01*
X302850Y420513D01*
X301807Y421070D01*
X301029Y421306D01*
Y422367D01*
X304633Y425971D01*
X309500D01*
Y422500D01*
X316500D01*
Y430500D01*
X314529D01*
Y433500D01*
X314413Y434085D01*
X314081Y434581D01*
X312081Y436581D01*
X311585Y436913D01*
X311000Y437029D01*
X297000D01*
Y440500D01*
D02*
G37*
G36*
X274000Y420482D02*
Y411000D01*
X279047D01*
Y415000D01*
X278858Y416436D01*
X278304Y417774D01*
X277423Y418923D01*
X276274Y419804D01*
X274936Y420358D01*
X274000Y420482D01*
D02*
G37*
G36*
X273000D02*
X272064Y420358D01*
X270726Y419804D01*
X269577Y418923D01*
X268696Y417774D01*
X268142Y416436D01*
X267952Y415000D01*
Y411000D01*
X273000D01*
Y420482D01*
D02*
G37*
G36*
X316500Y421500D02*
X309500D01*
Y413500D01*
X310971D01*
Y409750D01*
X309250D01*
Y402250D01*
X315750D01*
Y409750D01*
X314029D01*
Y413500D01*
X316500D01*
Y421500D01*
D02*
G37*
G36*
X279047Y410000D02*
X274000D01*
Y400518D01*
X274936Y400642D01*
X276274Y401196D01*
X277423Y402077D01*
X278304Y403226D01*
X278858Y404564D01*
X279047Y406000D01*
Y410000D01*
D02*
G37*
G36*
X273000D02*
X267952D01*
Y406000D01*
X268142Y404564D01*
X268696Y403226D01*
X269577Y402077D01*
X270726Y401196D01*
X272064Y400642D01*
X273000Y400518D01*
Y410000D01*
D02*
G37*
G36*
X315750Y400750D02*
X313000D01*
Y397500D01*
X315750D01*
Y400750D01*
D02*
G37*
G36*
X312000D02*
X309250D01*
Y397500D01*
X312000D01*
Y400750D01*
D02*
G37*
G36*
X315750Y396500D02*
X313000D01*
Y393250D01*
X315750D01*
Y396500D01*
D02*
G37*
G36*
X312000D02*
X309250D01*
Y393250D01*
X312000D01*
Y396500D01*
D02*
G37*
G36*
X291000Y398047D02*
X287000D01*
Y393000D01*
X296482D01*
X296358Y393936D01*
X295804Y395274D01*
X294923Y396423D01*
X293774Y397304D01*
X292436Y397858D01*
X291000Y398047D01*
D02*
G37*
G36*
X286000D02*
X282000D01*
X280564Y397858D01*
X279226Y397304D01*
X278077Y396423D01*
X277196Y395274D01*
X276642Y393936D01*
X276518Y393000D01*
X286000D01*
Y398047D01*
D02*
G37*
G36*
X296482Y392000D02*
X287000D01*
Y386952D01*
X291000D01*
X292436Y387142D01*
X293774Y387696D01*
X294923Y388577D01*
X295804Y389726D01*
X296358Y391064D01*
X296482Y392000D01*
D02*
G37*
G36*
X286000D02*
X276518D01*
X276642Y391064D01*
X277196Y389726D01*
X278077Y388577D01*
X279226Y387696D01*
X280564Y387142D01*
X282000Y386952D01*
X286000D01*
Y392000D01*
D02*
G37*
G36*
X158500Y440469D02*
Y437000D01*
X161969D01*
X161897Y437544D01*
X161494Y438517D01*
X160853Y439353D01*
X160017Y439994D01*
X159044Y440397D01*
X158500Y440469D01*
D02*
G37*
G36*
X157500D02*
X156956Y440397D01*
X155983Y439994D01*
X155147Y439353D01*
X154506Y438517D01*
X154103Y437544D01*
X154031Y437000D01*
X157500D01*
Y440469D01*
D02*
G37*
G36*
X161969Y436000D02*
X158500D01*
Y432531D01*
X159044Y432603D01*
X160017Y433006D01*
X160853Y433647D01*
X161494Y434483D01*
X161897Y435456D01*
X161969Y436000D01*
D02*
G37*
G36*
X157500D02*
X154031D01*
X154103Y435456D01*
X154506Y434483D01*
X155147Y433647D01*
X155983Y433006D01*
X156956Y432603D01*
X157500Y432531D01*
Y436000D01*
D02*
G37*
G36*
X172000Y440500D02*
X164000D01*
Y432500D01*
X172000D01*
Y433971D01*
X185366D01*
X186471Y432866D01*
Y430500D01*
X184500D01*
Y429029D01*
X179000D01*
X178415Y428913D01*
X177919Y428581D01*
X173419Y424081D01*
X173087Y423585D01*
X172971Y423000D01*
Y421306D01*
X172193Y421070D01*
X171151Y420513D01*
X170237Y419763D01*
X169487Y418850D01*
X168930Y417807D01*
X168587Y416676D01*
X168471Y415500D01*
Y405500D01*
X168587Y404324D01*
X168930Y403193D01*
X169487Y402150D01*
X170237Y401237D01*
X171151Y400487D01*
X172193Y399930D01*
X173324Y399587D01*
X174500Y399471D01*
X175676Y399587D01*
X176807Y399930D01*
X177849Y400487D01*
X178763Y401237D01*
X179513Y402150D01*
X180070Y403193D01*
X180413Y404324D01*
X180529Y405500D01*
Y415500D01*
X180413Y416676D01*
X180070Y417807D01*
X179513Y418850D01*
X178763Y419763D01*
X177849Y420513D01*
X176807Y421070D01*
X176029Y421306D01*
Y422367D01*
X179633Y425971D01*
X184500D01*
Y422500D01*
X191500D01*
Y430500D01*
X189529D01*
Y433500D01*
X189413Y434085D01*
X189081Y434581D01*
X187081Y436581D01*
X186585Y436913D01*
X186000Y437029D01*
X172000D01*
Y440500D01*
D02*
G37*
G36*
X149000Y420482D02*
Y411000D01*
X154048D01*
Y415000D01*
X153858Y416436D01*
X153304Y417774D01*
X152423Y418923D01*
X151274Y419804D01*
X149936Y420358D01*
X149000Y420482D01*
D02*
G37*
G36*
X148000D02*
X147064Y420358D01*
X145726Y419804D01*
X144577Y418923D01*
X143696Y417774D01*
X143142Y416436D01*
X142953Y415000D01*
Y411000D01*
X148000D01*
Y420482D01*
D02*
G37*
G36*
X191500Y421500D02*
X184500D01*
Y413500D01*
X185971D01*
Y409750D01*
X184250D01*
Y402250D01*
X190750D01*
Y409750D01*
X189029D01*
Y413500D01*
X191500D01*
Y421500D01*
D02*
G37*
G36*
X154048Y410000D02*
X149000D01*
Y400518D01*
X149936Y400642D01*
X151274Y401196D01*
X152423Y402077D01*
X153304Y403226D01*
X153858Y404564D01*
X154048Y406000D01*
Y410000D01*
D02*
G37*
G36*
X148000D02*
X142953D01*
Y406000D01*
X143142Y404564D01*
X143696Y403226D01*
X144577Y402077D01*
X145726Y401196D01*
X147064Y400642D01*
X148000Y400518D01*
Y410000D01*
D02*
G37*
G36*
X190750Y400750D02*
X188000D01*
Y397500D01*
X190750D01*
Y400750D01*
D02*
G37*
G36*
X187000D02*
X184250D01*
Y397500D01*
X187000D01*
Y400750D01*
D02*
G37*
G36*
X190750Y396500D02*
X188000D01*
Y393250D01*
X190750D01*
Y396500D01*
D02*
G37*
G36*
X187000D02*
X184250D01*
Y393250D01*
X187000D01*
Y396500D01*
D02*
G37*
G36*
X166000Y398047D02*
X162000D01*
Y393000D01*
X171482D01*
X171358Y393936D01*
X170804Y395274D01*
X169923Y396423D01*
X168774Y397304D01*
X167436Y397858D01*
X166000Y398047D01*
D02*
G37*
G36*
X161000D02*
X157000D01*
X155564Y397858D01*
X154226Y397304D01*
X153077Y396423D01*
X152196Y395274D01*
X151642Y393936D01*
X151518Y393000D01*
X161000D01*
Y398047D01*
D02*
G37*
G36*
X171482Y392000D02*
X162000D01*
Y386952D01*
X166000D01*
X167436Y387142D01*
X168774Y387696D01*
X169923Y388577D01*
X170804Y389726D01*
X171358Y391064D01*
X171482Y392000D01*
D02*
G37*
G36*
X161000D02*
X151518D01*
X151642Y391064D01*
X152196Y389726D01*
X153077Y388577D01*
X154226Y387696D01*
X155564Y387142D01*
X157000Y386952D01*
X161000D01*
Y392000D01*
D02*
G37*
G36*
X33500Y440469D02*
Y437000D01*
X36969D01*
X36897Y437544D01*
X36494Y438517D01*
X35853Y439353D01*
X35017Y439994D01*
X34044Y440397D01*
X33500Y440469D01*
D02*
G37*
G36*
X32500D02*
X31956Y440397D01*
X30983Y439994D01*
X30147Y439353D01*
X29506Y438517D01*
X29103Y437544D01*
X29031Y437000D01*
X32500D01*
Y440469D01*
D02*
G37*
G36*
X36969Y436000D02*
X33500D01*
Y432531D01*
X34044Y432603D01*
X35017Y433006D01*
X35853Y433647D01*
X36494Y434483D01*
X36897Y435456D01*
X36969Y436000D01*
D02*
G37*
G36*
X32500D02*
X29031D01*
X29103Y435456D01*
X29506Y434483D01*
X30147Y433647D01*
X30983Y433006D01*
X31956Y432603D01*
X32500Y432531D01*
Y436000D01*
D02*
G37*
G36*
X47000Y440500D02*
X39000D01*
Y432500D01*
X47000D01*
Y433971D01*
X60366D01*
X61471Y432866D01*
Y430500D01*
X59500D01*
Y429029D01*
X54000D01*
X53415Y428913D01*
X52919Y428581D01*
X48419Y424081D01*
X48087Y423585D01*
X47971Y423000D01*
Y421306D01*
X47193Y421070D01*
X46150Y420513D01*
X45237Y419763D01*
X44487Y418850D01*
X43930Y417807D01*
X43587Y416676D01*
X43471Y415500D01*
Y405500D01*
X43587Y404324D01*
X43930Y403193D01*
X44487Y402150D01*
X45237Y401237D01*
X46150Y400487D01*
X47193Y399930D01*
X48324Y399587D01*
X49500Y399471D01*
X50676Y399587D01*
X51807Y399930D01*
X52850Y400487D01*
X53763Y401237D01*
X54513Y402150D01*
X55070Y403193D01*
X55413Y404324D01*
X55529Y405500D01*
Y415500D01*
X55413Y416676D01*
X55070Y417807D01*
X54513Y418850D01*
X53763Y419763D01*
X52850Y420513D01*
X51807Y421070D01*
X51029Y421306D01*
Y422367D01*
X54633Y425971D01*
X59500D01*
Y422500D01*
X66500D01*
Y430500D01*
X64529D01*
Y433500D01*
X64413Y434085D01*
X64081Y434581D01*
X62081Y436581D01*
X61585Y436913D01*
X61000Y437029D01*
X47000D01*
Y440500D01*
D02*
G37*
G36*
X24000Y420482D02*
Y411000D01*
X29048D01*
Y415000D01*
X28858Y416436D01*
X28304Y417774D01*
X27423Y418923D01*
X26274Y419804D01*
X24936Y420358D01*
X24000Y420482D01*
D02*
G37*
G36*
X23000D02*
X22064Y420358D01*
X20726Y419804D01*
X19577Y418923D01*
X18696Y417774D01*
X18142Y416436D01*
X17953Y415000D01*
Y411000D01*
X23000D01*
Y420482D01*
D02*
G37*
G36*
X66500Y421500D02*
X59500D01*
Y413500D01*
X60971D01*
Y409750D01*
X59250D01*
Y402250D01*
X65750D01*
Y409750D01*
X64029D01*
Y413500D01*
X66500D01*
Y421500D01*
D02*
G37*
G36*
X29048Y410000D02*
X24000D01*
Y400518D01*
X24936Y400642D01*
X26274Y401196D01*
X27423Y402077D01*
X28304Y403226D01*
X28858Y404564D01*
X29048Y406000D01*
Y410000D01*
D02*
G37*
G36*
X23000D02*
X17953D01*
Y406000D01*
X18142Y404564D01*
X18696Y403226D01*
X19577Y402077D01*
X20726Y401196D01*
X22064Y400642D01*
X23000Y400518D01*
Y410000D01*
D02*
G37*
G36*
X65750Y400750D02*
X63000D01*
Y397500D01*
X65750D01*
Y400750D01*
D02*
G37*
G36*
X62000D02*
X59250D01*
Y397500D01*
X62000D01*
Y400750D01*
D02*
G37*
G36*
X65750Y396500D02*
X63000D01*
Y393250D01*
X65750D01*
Y396500D01*
D02*
G37*
G36*
X62000D02*
X59250D01*
Y393250D01*
X62000D01*
Y396500D01*
D02*
G37*
G36*
X41000Y398047D02*
X37000D01*
Y393000D01*
X46482D01*
X46358Y393936D01*
X45804Y395274D01*
X44923Y396423D01*
X43774Y397304D01*
X42436Y397858D01*
X41000Y398047D01*
D02*
G37*
G36*
X36000D02*
X32000D01*
X30564Y397858D01*
X29226Y397304D01*
X28077Y396423D01*
X27196Y395274D01*
X26642Y393936D01*
X26518Y393000D01*
X36000D01*
Y398047D01*
D02*
G37*
G36*
X46482Y392000D02*
X37000D01*
Y386952D01*
X41000D01*
X42436Y387142D01*
X43774Y387696D01*
X44923Y388577D01*
X45804Y389726D01*
X46358Y391064D01*
X46482Y392000D01*
D02*
G37*
G36*
X36000D02*
X26518D01*
X26642Y391064D01*
X27196Y389726D01*
X28077Y388577D01*
X29226Y387696D01*
X30564Y387142D01*
X32000Y386952D01*
X36000D01*
Y392000D01*
D02*
G37*
G36*
X533500Y315469D02*
Y312000D01*
X536969D01*
X536897Y312544D01*
X536494Y313517D01*
X535853Y314353D01*
X535017Y314994D01*
X534044Y315397D01*
X533500Y315469D01*
D02*
G37*
G36*
X532500D02*
X531956Y315397D01*
X530983Y314994D01*
X530147Y314353D01*
X529506Y313517D01*
X529103Y312544D01*
X529031Y312000D01*
X532500D01*
Y315469D01*
D02*
G37*
G36*
X536969Y311000D02*
X533500D01*
Y307531D01*
X534044Y307603D01*
X535017Y308006D01*
X535853Y308647D01*
X536494Y309483D01*
X536897Y310456D01*
X536969Y311000D01*
D02*
G37*
G36*
X532500D02*
X529031D01*
X529103Y310456D01*
X529506Y309483D01*
X530147Y308647D01*
X530983Y308006D01*
X531956Y307603D01*
X532500Y307531D01*
Y311000D01*
D02*
G37*
G36*
X547000Y315500D02*
X539000D01*
Y307500D01*
X547000D01*
Y308971D01*
X560366D01*
X561471Y307867D01*
Y305500D01*
X559500D01*
Y304029D01*
X554000D01*
X553415Y303913D01*
X552919Y303581D01*
X548419Y299081D01*
X548087Y298585D01*
X547971Y298000D01*
Y296306D01*
X547193Y296070D01*
X546150Y295513D01*
X545237Y294763D01*
X544487Y293849D01*
X543930Y292807D01*
X543587Y291676D01*
X543471Y290500D01*
Y280500D01*
X543587Y279324D01*
X543930Y278193D01*
X544487Y277151D01*
X545237Y276237D01*
X546150Y275487D01*
X547193Y274930D01*
X548324Y274587D01*
X549500Y274471D01*
X550676Y274587D01*
X551807Y274930D01*
X552849Y275487D01*
X553763Y276237D01*
X554513Y277151D01*
X555070Y278193D01*
X555413Y279324D01*
X555529Y280500D01*
Y290500D01*
X555413Y291676D01*
X555070Y292807D01*
X554513Y293849D01*
X553763Y294763D01*
X552849Y295513D01*
X551807Y296070D01*
X551029Y296306D01*
Y297366D01*
X554634Y300971D01*
X559500D01*
Y297500D01*
X566500D01*
Y305500D01*
X564529D01*
Y308500D01*
X564413Y309085D01*
X564081Y309581D01*
X562081Y311581D01*
X561585Y311913D01*
X561000Y312029D01*
X547000D01*
Y315500D01*
D02*
G37*
G36*
X524000Y295482D02*
Y286000D01*
X529047D01*
Y290000D01*
X528858Y291436D01*
X528304Y292774D01*
X527423Y293923D01*
X526274Y294804D01*
X524936Y295358D01*
X524000Y295482D01*
D02*
G37*
G36*
X523000D02*
X522064Y295358D01*
X520726Y294804D01*
X519577Y293923D01*
X518696Y292774D01*
X518142Y291436D01*
X517952Y290000D01*
Y286000D01*
X523000D01*
Y295482D01*
D02*
G37*
G36*
X566500Y296500D02*
X559500D01*
Y288500D01*
X560971D01*
Y284750D01*
X559250D01*
Y277250D01*
X565750D01*
Y284750D01*
X564029D01*
Y288500D01*
X566500D01*
Y296500D01*
D02*
G37*
G36*
X529047Y285000D02*
X524000D01*
Y275518D01*
X524936Y275642D01*
X526274Y276196D01*
X527423Y277077D01*
X528304Y278226D01*
X528858Y279564D01*
X529047Y281000D01*
Y285000D01*
D02*
G37*
G36*
X523000D02*
X517952D01*
Y281000D01*
X518142Y279564D01*
X518696Y278226D01*
X519577Y277077D01*
X520726Y276196D01*
X522064Y275642D01*
X523000Y275518D01*
Y285000D01*
D02*
G37*
G36*
X565750Y275750D02*
X563000D01*
Y272500D01*
X565750D01*
Y275750D01*
D02*
G37*
G36*
X562000D02*
X559250D01*
Y272500D01*
X562000D01*
Y275750D01*
D02*
G37*
G36*
X565750Y271500D02*
X563000D01*
Y268250D01*
X565750D01*
Y271500D01*
D02*
G37*
G36*
X562000D02*
X559250D01*
Y268250D01*
X562000D01*
Y271500D01*
D02*
G37*
G36*
X541000Y273047D02*
X537000D01*
Y268000D01*
X546482D01*
X546358Y268936D01*
X545804Y270274D01*
X544923Y271423D01*
X543774Y272304D01*
X542436Y272858D01*
X541000Y273047D01*
D02*
G37*
G36*
X536000D02*
X532000D01*
X530564Y272858D01*
X529226Y272304D01*
X528077Y271423D01*
X527196Y270274D01*
X526642Y268936D01*
X526518Y268000D01*
X536000D01*
Y273047D01*
D02*
G37*
G36*
X546482Y267000D02*
X537000D01*
Y261952D01*
X541000D01*
X542436Y262142D01*
X543774Y262696D01*
X544923Y263577D01*
X545804Y264726D01*
X546358Y266064D01*
X546482Y267000D01*
D02*
G37*
G36*
X536000D02*
X526518D01*
X526642Y266064D01*
X527196Y264726D01*
X528077Y263577D01*
X529226Y262696D01*
X530564Y262142D01*
X532000Y261952D01*
X536000D01*
Y267000D01*
D02*
G37*
G36*
X408500Y315469D02*
Y312000D01*
X411969D01*
X411897Y312544D01*
X411494Y313517D01*
X410853Y314353D01*
X410017Y314994D01*
X409044Y315397D01*
X408500Y315469D01*
D02*
G37*
G36*
X407500D02*
X406956Y315397D01*
X405983Y314994D01*
X405147Y314353D01*
X404506Y313517D01*
X404103Y312544D01*
X404031Y312000D01*
X407500D01*
Y315469D01*
D02*
G37*
G36*
X411969Y311000D02*
X408500D01*
Y307531D01*
X409044Y307603D01*
X410017Y308006D01*
X410853Y308647D01*
X411494Y309483D01*
X411897Y310456D01*
X411969Y311000D01*
D02*
G37*
G36*
X407500D02*
X404031D01*
X404103Y310456D01*
X404506Y309483D01*
X405147Y308647D01*
X405983Y308006D01*
X406956Y307603D01*
X407500Y307531D01*
Y311000D01*
D02*
G37*
G36*
X422000Y315500D02*
X414000D01*
Y307500D01*
X422000D01*
Y308971D01*
X435366D01*
X436471Y307867D01*
Y305500D01*
X434500D01*
Y304029D01*
X429000D01*
X428415Y303913D01*
X427919Y303581D01*
X423419Y299081D01*
X423087Y298585D01*
X422971Y298000D01*
Y296306D01*
X422193Y296070D01*
X421150Y295513D01*
X420237Y294763D01*
X419487Y293849D01*
X418930Y292807D01*
X418587Y291676D01*
X418471Y290500D01*
Y280500D01*
X418587Y279324D01*
X418930Y278193D01*
X419487Y277151D01*
X420237Y276237D01*
X421150Y275487D01*
X422193Y274930D01*
X423324Y274587D01*
X424500Y274471D01*
X425676Y274587D01*
X426807Y274930D01*
X427849Y275487D01*
X428763Y276237D01*
X429513Y277151D01*
X430070Y278193D01*
X430413Y279324D01*
X430529Y280500D01*
Y290500D01*
X430413Y291676D01*
X430070Y292807D01*
X429513Y293849D01*
X428763Y294763D01*
X427849Y295513D01*
X426807Y296070D01*
X426029Y296306D01*
Y297366D01*
X429634Y300971D01*
X434500D01*
Y297500D01*
X441500D01*
Y305500D01*
X439529D01*
Y308500D01*
X439413Y309085D01*
X439081Y309581D01*
X437081Y311581D01*
X436585Y311913D01*
X436000Y312029D01*
X422000D01*
Y315500D01*
D02*
G37*
G36*
X399000Y295482D02*
Y286000D01*
X404047D01*
Y290000D01*
X403858Y291436D01*
X403304Y292774D01*
X402423Y293923D01*
X401274Y294804D01*
X399936Y295358D01*
X399000Y295482D01*
D02*
G37*
G36*
X398000D02*
X397064Y295358D01*
X395726Y294804D01*
X394577Y293923D01*
X393696Y292774D01*
X393142Y291436D01*
X392952Y290000D01*
Y286000D01*
X398000D01*
Y295482D01*
D02*
G37*
G36*
X441500Y296500D02*
X434500D01*
Y288500D01*
X435971D01*
Y284750D01*
X434250D01*
Y277250D01*
X440750D01*
Y284750D01*
X439029D01*
Y288500D01*
X441500D01*
Y296500D01*
D02*
G37*
G36*
X404047Y285000D02*
X399000D01*
Y275518D01*
X399936Y275642D01*
X401274Y276196D01*
X402423Y277077D01*
X403304Y278226D01*
X403858Y279564D01*
X404047Y281000D01*
Y285000D01*
D02*
G37*
G36*
X398000D02*
X392952D01*
Y281000D01*
X393142Y279564D01*
X393696Y278226D01*
X394577Y277077D01*
X395726Y276196D01*
X397064Y275642D01*
X398000Y275518D01*
Y285000D01*
D02*
G37*
G36*
X440750Y275750D02*
X438000D01*
Y272500D01*
X440750D01*
Y275750D01*
D02*
G37*
G36*
X437000D02*
X434250D01*
Y272500D01*
X437000D01*
Y275750D01*
D02*
G37*
G36*
X440750Y271500D02*
X438000D01*
Y268250D01*
X440750D01*
Y271500D01*
D02*
G37*
G36*
X437000D02*
X434250D01*
Y268250D01*
X437000D01*
Y271500D01*
D02*
G37*
G36*
X416000Y273047D02*
X412000D01*
Y268000D01*
X421482D01*
X421358Y268936D01*
X420804Y270274D01*
X419923Y271423D01*
X418774Y272304D01*
X417436Y272858D01*
X416000Y273047D01*
D02*
G37*
G36*
X411000D02*
X407000D01*
X405564Y272858D01*
X404226Y272304D01*
X403077Y271423D01*
X402196Y270274D01*
X401642Y268936D01*
X401518Y268000D01*
X411000D01*
Y273047D01*
D02*
G37*
G36*
X421482Y267000D02*
X412000D01*
Y261952D01*
X416000D01*
X417436Y262142D01*
X418774Y262696D01*
X419923Y263577D01*
X420804Y264726D01*
X421358Y266064D01*
X421482Y267000D01*
D02*
G37*
G36*
X411000D02*
X401518D01*
X401642Y266064D01*
X402196Y264726D01*
X403077Y263577D01*
X404226Y262696D01*
X405564Y262142D01*
X407000Y261952D01*
X411000D01*
Y267000D01*
D02*
G37*
G36*
X283500Y315469D02*
Y312000D01*
X286969D01*
X286897Y312544D01*
X286494Y313517D01*
X285853Y314353D01*
X285017Y314994D01*
X284044Y315397D01*
X283500Y315469D01*
D02*
G37*
G36*
X282500D02*
X281956Y315397D01*
X280983Y314994D01*
X280147Y314353D01*
X279506Y313517D01*
X279103Y312544D01*
X279031Y312000D01*
X282500D01*
Y315469D01*
D02*
G37*
G36*
X286969Y311000D02*
X283500D01*
Y307531D01*
X284044Y307603D01*
X285017Y308006D01*
X285853Y308647D01*
X286494Y309483D01*
X286897Y310456D01*
X286969Y311000D01*
D02*
G37*
G36*
X282500D02*
X279031D01*
X279103Y310456D01*
X279506Y309483D01*
X280147Y308647D01*
X280983Y308006D01*
X281956Y307603D01*
X282500Y307531D01*
Y311000D01*
D02*
G37*
G36*
X297000Y315500D02*
X289000D01*
Y307500D01*
X297000D01*
Y308971D01*
X310367D01*
X311471Y307867D01*
Y305500D01*
X309500D01*
Y304029D01*
X304000D01*
X303415Y303913D01*
X302919Y303581D01*
X298419Y299081D01*
X298087Y298585D01*
X297971Y298000D01*
Y296306D01*
X297193Y296070D01*
X296150Y295513D01*
X295237Y294763D01*
X294487Y293849D01*
X293930Y292807D01*
X293587Y291676D01*
X293471Y290500D01*
Y280500D01*
X293587Y279324D01*
X293930Y278193D01*
X294487Y277151D01*
X295237Y276237D01*
X296150Y275487D01*
X297193Y274930D01*
X298324Y274587D01*
X299500Y274471D01*
X300676Y274587D01*
X301807Y274930D01*
X302850Y275487D01*
X303763Y276237D01*
X304513Y277151D01*
X305070Y278193D01*
X305413Y279324D01*
X305529Y280500D01*
Y290500D01*
X305413Y291676D01*
X305070Y292807D01*
X304513Y293849D01*
X303763Y294763D01*
X302850Y295513D01*
X301807Y296070D01*
X301029Y296306D01*
Y297366D01*
X304633Y300971D01*
X309500D01*
Y297500D01*
X316500D01*
Y305500D01*
X314529D01*
Y308500D01*
X314413Y309085D01*
X314081Y309581D01*
X312081Y311581D01*
X311585Y311913D01*
X311000Y312029D01*
X297000D01*
Y315500D01*
D02*
G37*
G36*
X274000Y295482D02*
Y286000D01*
X279047D01*
Y290000D01*
X278858Y291436D01*
X278304Y292774D01*
X277423Y293923D01*
X276274Y294804D01*
X274936Y295358D01*
X274000Y295482D01*
D02*
G37*
G36*
X273000D02*
X272064Y295358D01*
X270726Y294804D01*
X269577Y293923D01*
X268696Y292774D01*
X268142Y291436D01*
X267952Y290000D01*
Y286000D01*
X273000D01*
Y295482D01*
D02*
G37*
G36*
X316500Y296500D02*
X309500D01*
Y288500D01*
X310971D01*
Y284750D01*
X309250D01*
Y277250D01*
X315750D01*
Y284750D01*
X314029D01*
Y288500D01*
X316500D01*
Y296500D01*
D02*
G37*
G36*
X279047Y285000D02*
X274000D01*
Y275518D01*
X274936Y275642D01*
X276274Y276196D01*
X277423Y277077D01*
X278304Y278226D01*
X278858Y279564D01*
X279047Y281000D01*
Y285000D01*
D02*
G37*
G36*
X273000D02*
X267952D01*
Y281000D01*
X268142Y279564D01*
X268696Y278226D01*
X269577Y277077D01*
X270726Y276196D01*
X272064Y275642D01*
X273000Y275518D01*
Y285000D01*
D02*
G37*
G36*
X315750Y275750D02*
X313000D01*
Y272500D01*
X315750D01*
Y275750D01*
D02*
G37*
G36*
X312000D02*
X309250D01*
Y272500D01*
X312000D01*
Y275750D01*
D02*
G37*
G36*
X315750Y271500D02*
X313000D01*
Y268250D01*
X315750D01*
Y271500D01*
D02*
G37*
G36*
X312000D02*
X309250D01*
Y268250D01*
X312000D01*
Y271500D01*
D02*
G37*
G36*
X291000Y273047D02*
X287000D01*
Y268000D01*
X296482D01*
X296358Y268936D01*
X295804Y270274D01*
X294923Y271423D01*
X293774Y272304D01*
X292436Y272858D01*
X291000Y273047D01*
D02*
G37*
G36*
X286000D02*
X282000D01*
X280564Y272858D01*
X279226Y272304D01*
X278077Y271423D01*
X277196Y270274D01*
X276642Y268936D01*
X276518Y268000D01*
X286000D01*
Y273047D01*
D02*
G37*
G36*
X296482Y267000D02*
X287000D01*
Y261952D01*
X291000D01*
X292436Y262142D01*
X293774Y262696D01*
X294923Y263577D01*
X295804Y264726D01*
X296358Y266064D01*
X296482Y267000D01*
D02*
G37*
G36*
X286000D02*
X276518D01*
X276642Y266064D01*
X277196Y264726D01*
X278077Y263577D01*
X279226Y262696D01*
X280564Y262142D01*
X282000Y261952D01*
X286000D01*
Y267000D01*
D02*
G37*
G36*
X158500Y315469D02*
Y312000D01*
X161969D01*
X161897Y312544D01*
X161494Y313517D01*
X160853Y314353D01*
X160017Y314994D01*
X159044Y315397D01*
X158500Y315469D01*
D02*
G37*
G36*
X157500D02*
X156956Y315397D01*
X155983Y314994D01*
X155147Y314353D01*
X154506Y313517D01*
X154103Y312544D01*
X154031Y312000D01*
X157500D01*
Y315469D01*
D02*
G37*
G36*
X161969Y311000D02*
X158500D01*
Y307531D01*
X159044Y307603D01*
X160017Y308006D01*
X160853Y308647D01*
X161494Y309483D01*
X161897Y310456D01*
X161969Y311000D01*
D02*
G37*
G36*
X157500D02*
X154031D01*
X154103Y310456D01*
X154506Y309483D01*
X155147Y308647D01*
X155983Y308006D01*
X156956Y307603D01*
X157500Y307531D01*
Y311000D01*
D02*
G37*
G36*
X172000Y315500D02*
X164000D01*
Y307500D01*
X172000D01*
Y308971D01*
X185366D01*
X186471Y307867D01*
Y305500D01*
X184500D01*
Y304029D01*
X179000D01*
X178415Y303913D01*
X177919Y303581D01*
X173419Y299081D01*
X173087Y298585D01*
X172971Y298000D01*
Y296306D01*
X172193Y296070D01*
X171151Y295513D01*
X170237Y294763D01*
X169487Y293849D01*
X168930Y292807D01*
X168587Y291676D01*
X168471Y290500D01*
Y280500D01*
X168587Y279324D01*
X168930Y278193D01*
X169487Y277151D01*
X170237Y276237D01*
X171151Y275487D01*
X172193Y274930D01*
X173324Y274587D01*
X174500Y274471D01*
X175676Y274587D01*
X176807Y274930D01*
X177849Y275487D01*
X178763Y276237D01*
X179513Y277151D01*
X180070Y278193D01*
X180413Y279324D01*
X180529Y280500D01*
Y290500D01*
X180413Y291676D01*
X180070Y292807D01*
X179513Y293849D01*
X178763Y294763D01*
X177849Y295513D01*
X176807Y296070D01*
X176029Y296306D01*
Y297366D01*
X179633Y300971D01*
X184500D01*
Y297500D01*
X191500D01*
Y305500D01*
X189529D01*
Y308500D01*
X189413Y309085D01*
X189081Y309581D01*
X187081Y311581D01*
X186585Y311913D01*
X186000Y312029D01*
X172000D01*
Y315500D01*
D02*
G37*
G36*
X149000Y295482D02*
Y286000D01*
X154048D01*
Y290000D01*
X153858Y291436D01*
X153304Y292774D01*
X152423Y293923D01*
X151274Y294804D01*
X149936Y295358D01*
X149000Y295482D01*
D02*
G37*
G36*
X148000D02*
X147064Y295358D01*
X145726Y294804D01*
X144577Y293923D01*
X143696Y292774D01*
X143142Y291436D01*
X142953Y290000D01*
Y286000D01*
X148000D01*
Y295482D01*
D02*
G37*
G36*
X191500Y296500D02*
X184500D01*
Y288500D01*
X185971D01*
Y284750D01*
X184250D01*
Y277250D01*
X190750D01*
Y284750D01*
X189029D01*
Y288500D01*
X191500D01*
Y296500D01*
D02*
G37*
G36*
X154048Y285000D02*
X149000D01*
Y275518D01*
X149936Y275642D01*
X151274Y276196D01*
X152423Y277077D01*
X153304Y278226D01*
X153858Y279564D01*
X154048Y281000D01*
Y285000D01*
D02*
G37*
G36*
X148000D02*
X142953D01*
Y281000D01*
X143142Y279564D01*
X143696Y278226D01*
X144577Y277077D01*
X145726Y276196D01*
X147064Y275642D01*
X148000Y275518D01*
Y285000D01*
D02*
G37*
G36*
X190750Y275750D02*
X188000D01*
Y272500D01*
X190750D01*
Y275750D01*
D02*
G37*
G36*
X187000D02*
X184250D01*
Y272500D01*
X187000D01*
Y275750D01*
D02*
G37*
G36*
X190750Y271500D02*
X188000D01*
Y268250D01*
X190750D01*
Y271500D01*
D02*
G37*
G36*
X187000D02*
X184250D01*
Y268250D01*
X187000D01*
Y271500D01*
D02*
G37*
G36*
X166000Y273047D02*
X162000D01*
Y268000D01*
X171482D01*
X171358Y268936D01*
X170804Y270274D01*
X169923Y271423D01*
X168774Y272304D01*
X167436Y272858D01*
X166000Y273047D01*
D02*
G37*
G36*
X161000D02*
X157000D01*
X155564Y272858D01*
X154226Y272304D01*
X153077Y271423D01*
X152196Y270274D01*
X151642Y268936D01*
X151518Y268000D01*
X161000D01*
Y273047D01*
D02*
G37*
G36*
X171482Y267000D02*
X162000D01*
Y261952D01*
X166000D01*
X167436Y262142D01*
X168774Y262696D01*
X169923Y263577D01*
X170804Y264726D01*
X171358Y266064D01*
X171482Y267000D01*
D02*
G37*
G36*
X161000D02*
X151518D01*
X151642Y266064D01*
X152196Y264726D01*
X153077Y263577D01*
X154226Y262696D01*
X155564Y262142D01*
X157000Y261952D01*
X161000D01*
Y267000D01*
D02*
G37*
G36*
X33500Y315469D02*
Y312000D01*
X36969D01*
X36897Y312544D01*
X36494Y313517D01*
X35853Y314353D01*
X35017Y314994D01*
X34044Y315397D01*
X33500Y315469D01*
D02*
G37*
G36*
X32500D02*
X31956Y315397D01*
X30983Y314994D01*
X30147Y314353D01*
X29506Y313517D01*
X29103Y312544D01*
X29031Y312000D01*
X32500D01*
Y315469D01*
D02*
G37*
G36*
X36969Y311000D02*
X33500D01*
Y307531D01*
X34044Y307603D01*
X35017Y308006D01*
X35853Y308647D01*
X36494Y309483D01*
X36897Y310456D01*
X36969Y311000D01*
D02*
G37*
G36*
X32500D02*
X29031D01*
X29103Y310456D01*
X29506Y309483D01*
X30147Y308647D01*
X30983Y308006D01*
X31956Y307603D01*
X32500Y307531D01*
Y311000D01*
D02*
G37*
G36*
X47000Y315500D02*
X39000D01*
Y307500D01*
X47000D01*
Y308971D01*
X60366D01*
X61471Y307867D01*
Y305500D01*
X59500D01*
Y304029D01*
X54000D01*
X53415Y303913D01*
X52919Y303581D01*
X48419Y299081D01*
X48087Y298585D01*
X47971Y298000D01*
Y296306D01*
X47193Y296070D01*
X46150Y295513D01*
X45237Y294763D01*
X44487Y293849D01*
X43930Y292807D01*
X43587Y291676D01*
X43471Y290500D01*
Y280500D01*
X43587Y279324D01*
X43930Y278193D01*
X44487Y277151D01*
X45237Y276237D01*
X46150Y275487D01*
X47193Y274930D01*
X48324Y274587D01*
X49500Y274471D01*
X50676Y274587D01*
X51807Y274930D01*
X52850Y275487D01*
X53763Y276237D01*
X54513Y277151D01*
X55070Y278193D01*
X55413Y279324D01*
X55529Y280500D01*
Y290500D01*
X55413Y291676D01*
X55070Y292807D01*
X54513Y293849D01*
X53763Y294763D01*
X52850Y295513D01*
X51807Y296070D01*
X51029Y296306D01*
Y297366D01*
X54633Y300971D01*
X59500D01*
Y297500D01*
X66500D01*
Y305500D01*
X64529D01*
Y308500D01*
X64413Y309085D01*
X64081Y309581D01*
X62081Y311581D01*
X61585Y311913D01*
X61000Y312029D01*
X47000D01*
Y315500D01*
D02*
G37*
G36*
X24000Y295482D02*
Y286000D01*
X29048D01*
Y290000D01*
X28858Y291436D01*
X28304Y292774D01*
X27423Y293923D01*
X26274Y294804D01*
X24936Y295358D01*
X24000Y295482D01*
D02*
G37*
G36*
X23000D02*
X22064Y295358D01*
X20726Y294804D01*
X19577Y293923D01*
X18696Y292774D01*
X18142Y291436D01*
X17953Y290000D01*
Y286000D01*
X23000D01*
Y295482D01*
D02*
G37*
G36*
X66500Y296500D02*
X59500D01*
Y288500D01*
X60971D01*
Y284750D01*
X59250D01*
Y277250D01*
X65750D01*
Y284750D01*
X64029D01*
Y288500D01*
X66500D01*
Y296500D01*
D02*
G37*
G36*
X29048Y285000D02*
X24000D01*
Y275518D01*
X24936Y275642D01*
X26274Y276196D01*
X27423Y277077D01*
X28304Y278226D01*
X28858Y279564D01*
X29048Y281000D01*
Y285000D01*
D02*
G37*
G36*
X23000D02*
X17953D01*
Y281000D01*
X18142Y279564D01*
X18696Y278226D01*
X19577Y277077D01*
X20726Y276196D01*
X22064Y275642D01*
X23000Y275518D01*
Y285000D01*
D02*
G37*
G36*
X65750Y275750D02*
X63000D01*
Y272500D01*
X65750D01*
Y275750D01*
D02*
G37*
G36*
X62000D02*
X59250D01*
Y272500D01*
X62000D01*
Y275750D01*
D02*
G37*
G36*
X65750Y271500D02*
X63000D01*
Y268250D01*
X65750D01*
Y271500D01*
D02*
G37*
G36*
X62000D02*
X59250D01*
Y268250D01*
X62000D01*
Y271500D01*
D02*
G37*
G36*
X41000Y273047D02*
X37000D01*
Y268000D01*
X46482D01*
X46358Y268936D01*
X45804Y270274D01*
X44923Y271423D01*
X43774Y272304D01*
X42436Y272858D01*
X41000Y273047D01*
D02*
G37*
G36*
X36000D02*
X32000D01*
X30564Y272858D01*
X29226Y272304D01*
X28077Y271423D01*
X27196Y270274D01*
X26642Y268936D01*
X26518Y268000D01*
X36000D01*
Y273047D01*
D02*
G37*
G36*
X46482Y267000D02*
X37000D01*
Y261952D01*
X41000D01*
X42436Y262142D01*
X43774Y262696D01*
X44923Y263577D01*
X45804Y264726D01*
X46358Y266064D01*
X46482Y267000D01*
D02*
G37*
G36*
X36000D02*
X26518D01*
X26642Y266064D01*
X27196Y264726D01*
X28077Y263577D01*
X29226Y262696D01*
X30564Y262142D01*
X32000Y261952D01*
X36000D01*
Y267000D01*
D02*
G37*
G36*
X533500Y190469D02*
Y187000D01*
X536969D01*
X536897Y187544D01*
X536494Y188517D01*
X535853Y189353D01*
X535017Y189994D01*
X534044Y190397D01*
X533500Y190469D01*
D02*
G37*
G36*
X532500D02*
X531956Y190397D01*
X530983Y189994D01*
X530147Y189353D01*
X529506Y188517D01*
X529103Y187544D01*
X529031Y187000D01*
X532500D01*
Y190469D01*
D02*
G37*
G36*
X536969Y186000D02*
X533500D01*
Y182531D01*
X534044Y182603D01*
X535017Y183006D01*
X535853Y183647D01*
X536494Y184483D01*
X536897Y185456D01*
X536969Y186000D01*
D02*
G37*
G36*
X532500D02*
X529031D01*
X529103Y185456D01*
X529506Y184483D01*
X530147Y183647D01*
X530983Y183006D01*
X531956Y182603D01*
X532500Y182531D01*
Y186000D01*
D02*
G37*
G36*
X547000Y190500D02*
X539000D01*
Y182500D01*
X547000D01*
Y183971D01*
X560366D01*
X561471Y182867D01*
Y180500D01*
X559500D01*
Y179029D01*
X554000D01*
X553415Y178913D01*
X552919Y178581D01*
X548419Y174081D01*
X548087Y173585D01*
X547971Y173000D01*
Y171306D01*
X547193Y171070D01*
X546150Y170513D01*
X545237Y169763D01*
X544487Y168850D01*
X543930Y167807D01*
X543587Y166676D01*
X543471Y165500D01*
Y155500D01*
X543587Y154324D01*
X543930Y153193D01*
X544487Y152150D01*
X545237Y151237D01*
X546150Y150487D01*
X547193Y149930D01*
X548324Y149587D01*
X549500Y149471D01*
X550676Y149587D01*
X551807Y149930D01*
X552849Y150487D01*
X553763Y151237D01*
X554513Y152150D01*
X555070Y153193D01*
X555413Y154324D01*
X555529Y155500D01*
Y165500D01*
X555413Y166676D01*
X555070Y167807D01*
X554513Y168850D01*
X553763Y169763D01*
X552849Y170513D01*
X551807Y171070D01*
X551029Y171306D01*
Y172366D01*
X554634Y175971D01*
X559500D01*
Y172500D01*
X566500D01*
Y180500D01*
X564529D01*
Y183500D01*
X564413Y184085D01*
X564081Y184581D01*
X562081Y186581D01*
X561585Y186913D01*
X561000Y187029D01*
X547000D01*
Y190500D01*
D02*
G37*
G36*
X524000Y170482D02*
Y161000D01*
X529047D01*
Y165000D01*
X528858Y166436D01*
X528304Y167774D01*
X527423Y168923D01*
X526274Y169804D01*
X524936Y170358D01*
X524000Y170482D01*
D02*
G37*
G36*
X523000D02*
X522064Y170358D01*
X520726Y169804D01*
X519577Y168923D01*
X518696Y167774D01*
X518142Y166436D01*
X517952Y165000D01*
Y161000D01*
X523000D01*
Y170482D01*
D02*
G37*
G36*
X566500Y171500D02*
X559500D01*
Y163500D01*
X560971D01*
Y159750D01*
X559250D01*
Y152250D01*
X565750D01*
Y159750D01*
X564029D01*
Y163500D01*
X566500D01*
Y171500D01*
D02*
G37*
G36*
X529047Y160000D02*
X524000D01*
Y150518D01*
X524936Y150642D01*
X526274Y151196D01*
X527423Y152077D01*
X528304Y153226D01*
X528858Y154564D01*
X529047Y156000D01*
Y160000D01*
D02*
G37*
G36*
X523000D02*
X517952D01*
Y156000D01*
X518142Y154564D01*
X518696Y153226D01*
X519577Y152077D01*
X520726Y151196D01*
X522064Y150642D01*
X523000Y150518D01*
Y160000D01*
D02*
G37*
G36*
X565750Y150750D02*
X563000D01*
Y147500D01*
X565750D01*
Y150750D01*
D02*
G37*
G36*
X562000D02*
X559250D01*
Y147500D01*
X562000D01*
Y150750D01*
D02*
G37*
G36*
X565750Y146500D02*
X563000D01*
Y143250D01*
X565750D01*
Y146500D01*
D02*
G37*
G36*
X562000D02*
X559250D01*
Y143250D01*
X562000D01*
Y146500D01*
D02*
G37*
G36*
X541000Y148047D02*
X537000D01*
Y143000D01*
X546482D01*
X546358Y143936D01*
X545804Y145274D01*
X544923Y146423D01*
X543774Y147304D01*
X542436Y147858D01*
X541000Y148047D01*
D02*
G37*
G36*
X536000D02*
X532000D01*
X530564Y147858D01*
X529226Y147304D01*
X528077Y146423D01*
X527196Y145274D01*
X526642Y143936D01*
X526518Y143000D01*
X536000D01*
Y148047D01*
D02*
G37*
G36*
X546482Y142000D02*
X537000D01*
Y136952D01*
X541000D01*
X542436Y137142D01*
X543774Y137696D01*
X544923Y138577D01*
X545804Y139726D01*
X546358Y141064D01*
X546482Y142000D01*
D02*
G37*
G36*
X536000D02*
X526518D01*
X526642Y141064D01*
X527196Y139726D01*
X528077Y138577D01*
X529226Y137696D01*
X530564Y137142D01*
X532000Y136952D01*
X536000D01*
Y142000D01*
D02*
G37*
G36*
X408500Y190469D02*
Y187000D01*
X411969D01*
X411897Y187544D01*
X411494Y188517D01*
X410853Y189353D01*
X410017Y189994D01*
X409044Y190397D01*
X408500Y190469D01*
D02*
G37*
G36*
X407500D02*
X406956Y190397D01*
X405983Y189994D01*
X405147Y189353D01*
X404506Y188517D01*
X404103Y187544D01*
X404031Y187000D01*
X407500D01*
Y190469D01*
D02*
G37*
G36*
X411969Y186000D02*
X408500D01*
Y182531D01*
X409044Y182603D01*
X410017Y183006D01*
X410853Y183647D01*
X411494Y184483D01*
X411897Y185456D01*
X411969Y186000D01*
D02*
G37*
G36*
X407500D02*
X404031D01*
X404103Y185456D01*
X404506Y184483D01*
X405147Y183647D01*
X405983Y183006D01*
X406956Y182603D01*
X407500Y182531D01*
Y186000D01*
D02*
G37*
G36*
X422000Y190500D02*
X414000D01*
Y182500D01*
X422000D01*
Y183971D01*
X435366D01*
X436471Y182867D01*
Y180500D01*
X434500D01*
Y179029D01*
X429000D01*
X428415Y178913D01*
X427919Y178581D01*
X423419Y174081D01*
X423087Y173585D01*
X422971Y173000D01*
Y171306D01*
X422193Y171070D01*
X421150Y170513D01*
X420237Y169763D01*
X419487Y168850D01*
X418930Y167807D01*
X418587Y166676D01*
X418471Y165500D01*
Y155500D01*
X418587Y154324D01*
X418930Y153193D01*
X419487Y152150D01*
X420237Y151237D01*
X421150Y150487D01*
X422193Y149930D01*
X423324Y149587D01*
X424500Y149471D01*
X425676Y149587D01*
X426807Y149930D01*
X427849Y150487D01*
X428763Y151237D01*
X429513Y152150D01*
X430070Y153193D01*
X430413Y154324D01*
X430529Y155500D01*
Y165500D01*
X430413Y166676D01*
X430070Y167807D01*
X429513Y168850D01*
X428763Y169763D01*
X427849Y170513D01*
X426807Y171070D01*
X426029Y171306D01*
Y172366D01*
X429634Y175971D01*
X434500D01*
Y172500D01*
X441500D01*
Y180500D01*
X439529D01*
Y183500D01*
X439413Y184085D01*
X439081Y184581D01*
X437081Y186581D01*
X436585Y186913D01*
X436000Y187029D01*
X422000D01*
Y190500D01*
D02*
G37*
G36*
X399000Y170482D02*
Y161000D01*
X404047D01*
Y165000D01*
X403858Y166436D01*
X403304Y167774D01*
X402423Y168923D01*
X401274Y169804D01*
X399936Y170358D01*
X399000Y170482D01*
D02*
G37*
G36*
X398000D02*
X397064Y170358D01*
X395726Y169804D01*
X394577Y168923D01*
X393696Y167774D01*
X393142Y166436D01*
X392952Y165000D01*
Y161000D01*
X398000D01*
Y170482D01*
D02*
G37*
G36*
X441500Y171500D02*
X434500D01*
Y163500D01*
X435971D01*
Y159750D01*
X434250D01*
Y152250D01*
X440750D01*
Y159750D01*
X439029D01*
Y163500D01*
X441500D01*
Y171500D01*
D02*
G37*
G36*
X404047Y160000D02*
X399000D01*
Y150518D01*
X399936Y150642D01*
X401274Y151196D01*
X402423Y152077D01*
X403304Y153226D01*
X403858Y154564D01*
X404047Y156000D01*
Y160000D01*
D02*
G37*
G36*
X398000D02*
X392952D01*
Y156000D01*
X393142Y154564D01*
X393696Y153226D01*
X394577Y152077D01*
X395726Y151196D01*
X397064Y150642D01*
X398000Y150518D01*
Y160000D01*
D02*
G37*
G36*
X440750Y150750D02*
X438000D01*
Y147500D01*
X440750D01*
Y150750D01*
D02*
G37*
G36*
X437000D02*
X434250D01*
Y147500D01*
X437000D01*
Y150750D01*
D02*
G37*
G36*
X440750Y146500D02*
X438000D01*
Y143250D01*
X440750D01*
Y146500D01*
D02*
G37*
G36*
X437000D02*
X434250D01*
Y143250D01*
X437000D01*
Y146500D01*
D02*
G37*
G36*
X416000Y148047D02*
X412000D01*
Y143000D01*
X421482D01*
X421358Y143936D01*
X420804Y145274D01*
X419923Y146423D01*
X418774Y147304D01*
X417436Y147858D01*
X416000Y148047D01*
D02*
G37*
G36*
X411000D02*
X407000D01*
X405564Y147858D01*
X404226Y147304D01*
X403077Y146423D01*
X402196Y145274D01*
X401642Y143936D01*
X401518Y143000D01*
X411000D01*
Y148047D01*
D02*
G37*
G36*
X421482Y142000D02*
X412000D01*
Y136952D01*
X416000D01*
X417436Y137142D01*
X418774Y137696D01*
X419923Y138577D01*
X420804Y139726D01*
X421358Y141064D01*
X421482Y142000D01*
D02*
G37*
G36*
X411000D02*
X401518D01*
X401642Y141064D01*
X402196Y139726D01*
X403077Y138577D01*
X404226Y137696D01*
X405564Y137142D01*
X407000Y136952D01*
X411000D01*
Y142000D01*
D02*
G37*
G36*
X283500Y190469D02*
Y187000D01*
X286969D01*
X286897Y187544D01*
X286494Y188517D01*
X285853Y189353D01*
X285017Y189994D01*
X284044Y190397D01*
X283500Y190469D01*
D02*
G37*
G36*
X282500D02*
X281956Y190397D01*
X280983Y189994D01*
X280147Y189353D01*
X279506Y188517D01*
X279103Y187544D01*
X279031Y187000D01*
X282500D01*
Y190469D01*
D02*
G37*
G36*
X286969Y186000D02*
X283500D01*
Y182531D01*
X284044Y182603D01*
X285017Y183006D01*
X285853Y183647D01*
X286494Y184483D01*
X286897Y185456D01*
X286969Y186000D01*
D02*
G37*
G36*
X282500D02*
X279031D01*
X279103Y185456D01*
X279506Y184483D01*
X280147Y183647D01*
X280983Y183006D01*
X281956Y182603D01*
X282500Y182531D01*
Y186000D01*
D02*
G37*
G36*
X297000Y190500D02*
X289000D01*
Y182500D01*
X297000D01*
Y183971D01*
X310367D01*
X311471Y182867D01*
Y180500D01*
X309500D01*
Y179029D01*
X304000D01*
X303415Y178913D01*
X302919Y178581D01*
X298419Y174081D01*
X298087Y173585D01*
X297971Y173000D01*
Y171306D01*
X297193Y171070D01*
X296150Y170513D01*
X295237Y169763D01*
X294487Y168850D01*
X293930Y167807D01*
X293587Y166676D01*
X293471Y165500D01*
Y155500D01*
X293587Y154324D01*
X293930Y153193D01*
X294487Y152150D01*
X295237Y151237D01*
X296150Y150487D01*
X297193Y149930D01*
X298324Y149587D01*
X299500Y149471D01*
X300676Y149587D01*
X301807Y149930D01*
X302850Y150487D01*
X303763Y151237D01*
X304513Y152150D01*
X305070Y153193D01*
X305413Y154324D01*
X305529Y155500D01*
Y165500D01*
X305413Y166676D01*
X305070Y167807D01*
X304513Y168850D01*
X303763Y169763D01*
X302850Y170513D01*
X301807Y171070D01*
X301029Y171306D01*
Y172366D01*
X304633Y175971D01*
X309500D01*
Y172500D01*
X316500D01*
Y180500D01*
X314529D01*
Y183500D01*
X314413Y184085D01*
X314081Y184581D01*
X312081Y186581D01*
X311585Y186913D01*
X311000Y187029D01*
X297000D01*
Y190500D01*
D02*
G37*
G36*
X274000Y170482D02*
Y161000D01*
X279047D01*
Y165000D01*
X278858Y166436D01*
X278304Y167774D01*
X277423Y168923D01*
X276274Y169804D01*
X274936Y170358D01*
X274000Y170482D01*
D02*
G37*
G36*
X273000D02*
X272064Y170358D01*
X270726Y169804D01*
X269577Y168923D01*
X268696Y167774D01*
X268142Y166436D01*
X267952Y165000D01*
Y161000D01*
X273000D01*
Y170482D01*
D02*
G37*
G36*
X316500Y171500D02*
X309500D01*
Y163500D01*
X310971D01*
Y159750D01*
X309250D01*
Y152250D01*
X315750D01*
Y159750D01*
X314029D01*
Y163500D01*
X316500D01*
Y171500D01*
D02*
G37*
G36*
X279047Y160000D02*
X274000D01*
Y150518D01*
X274936Y150642D01*
X276274Y151196D01*
X277423Y152077D01*
X278304Y153226D01*
X278858Y154564D01*
X279047Y156000D01*
Y160000D01*
D02*
G37*
G36*
X273000D02*
X267952D01*
Y156000D01*
X268142Y154564D01*
X268696Y153226D01*
X269577Y152077D01*
X270726Y151196D01*
X272064Y150642D01*
X273000Y150518D01*
Y160000D01*
D02*
G37*
G36*
X315750Y150750D02*
X313000D01*
Y147500D01*
X315750D01*
Y150750D01*
D02*
G37*
G36*
X312000D02*
X309250D01*
Y147500D01*
X312000D01*
Y150750D01*
D02*
G37*
G36*
X315750Y146500D02*
X313000D01*
Y143250D01*
X315750D01*
Y146500D01*
D02*
G37*
G36*
X312000D02*
X309250D01*
Y143250D01*
X312000D01*
Y146500D01*
D02*
G37*
G36*
X291000Y148047D02*
X287000D01*
Y143000D01*
X296482D01*
X296358Y143936D01*
X295804Y145274D01*
X294923Y146423D01*
X293774Y147304D01*
X292436Y147858D01*
X291000Y148047D01*
D02*
G37*
G36*
X286000D02*
X282000D01*
X280564Y147858D01*
X279226Y147304D01*
X278077Y146423D01*
X277196Y145274D01*
X276642Y143936D01*
X276518Y143000D01*
X286000D01*
Y148047D01*
D02*
G37*
G36*
X296482Y142000D02*
X287000D01*
Y136952D01*
X291000D01*
X292436Y137142D01*
X293774Y137696D01*
X294923Y138577D01*
X295804Y139726D01*
X296358Y141064D01*
X296482Y142000D01*
D02*
G37*
G36*
X286000D02*
X276518D01*
X276642Y141064D01*
X277196Y139726D01*
X278077Y138577D01*
X279226Y137696D01*
X280564Y137142D01*
X282000Y136952D01*
X286000D01*
Y142000D01*
D02*
G37*
G36*
X158500Y190469D02*
Y187000D01*
X161969D01*
X161897Y187544D01*
X161494Y188517D01*
X160853Y189353D01*
X160017Y189994D01*
X159044Y190397D01*
X158500Y190469D01*
D02*
G37*
G36*
X157500D02*
X156956Y190397D01*
X155983Y189994D01*
X155147Y189353D01*
X154506Y188517D01*
X154103Y187544D01*
X154031Y187000D01*
X157500D01*
Y190469D01*
D02*
G37*
G36*
X161969Y186000D02*
X158500D01*
Y182531D01*
X159044Y182603D01*
X160017Y183006D01*
X160853Y183647D01*
X161494Y184483D01*
X161897Y185456D01*
X161969Y186000D01*
D02*
G37*
G36*
X157500D02*
X154031D01*
X154103Y185456D01*
X154506Y184483D01*
X155147Y183647D01*
X155983Y183006D01*
X156956Y182603D01*
X157500Y182531D01*
Y186000D01*
D02*
G37*
G36*
X172000Y190500D02*
X164000D01*
Y182500D01*
X172000D01*
Y183971D01*
X185366D01*
X186471Y182867D01*
Y180500D01*
X184500D01*
Y179029D01*
X179000D01*
X178415Y178913D01*
X177919Y178581D01*
X173419Y174081D01*
X173087Y173585D01*
X172971Y173000D01*
Y171306D01*
X172193Y171070D01*
X171151Y170513D01*
X170237Y169763D01*
X169487Y168850D01*
X168930Y167807D01*
X168587Y166676D01*
X168471Y165500D01*
Y155500D01*
X168587Y154324D01*
X168930Y153193D01*
X169487Y152150D01*
X170237Y151237D01*
X171151Y150487D01*
X172193Y149930D01*
X173324Y149587D01*
X174500Y149471D01*
X175676Y149587D01*
X176807Y149930D01*
X177849Y150487D01*
X178763Y151237D01*
X179513Y152150D01*
X180070Y153193D01*
X180413Y154324D01*
X180529Y155500D01*
Y165500D01*
X180413Y166676D01*
X180070Y167807D01*
X179513Y168850D01*
X178763Y169763D01*
X177849Y170513D01*
X176807Y171070D01*
X176029Y171306D01*
Y172366D01*
X179633Y175971D01*
X184500D01*
Y172500D01*
X191500D01*
Y180500D01*
X189529D01*
Y183500D01*
X189413Y184085D01*
X189081Y184581D01*
X187081Y186581D01*
X186585Y186913D01*
X186000Y187029D01*
X172000D01*
Y190500D01*
D02*
G37*
G36*
X149000Y170482D02*
Y161000D01*
X154048D01*
Y165000D01*
X153858Y166436D01*
X153304Y167774D01*
X152423Y168923D01*
X151274Y169804D01*
X149936Y170358D01*
X149000Y170482D01*
D02*
G37*
G36*
X148000D02*
X147064Y170358D01*
X145726Y169804D01*
X144577Y168923D01*
X143696Y167774D01*
X143142Y166436D01*
X142953Y165000D01*
Y161000D01*
X148000D01*
Y170482D01*
D02*
G37*
G36*
X191500Y171500D02*
X184500D01*
Y163500D01*
X185971D01*
Y159750D01*
X184250D01*
Y152250D01*
X190750D01*
Y159750D01*
X189029D01*
Y163500D01*
X191500D01*
Y171500D01*
D02*
G37*
G36*
X154048Y160000D02*
X149000D01*
Y150518D01*
X149936Y150642D01*
X151274Y151196D01*
X152423Y152077D01*
X153304Y153226D01*
X153858Y154564D01*
X154048Y156000D01*
Y160000D01*
D02*
G37*
G36*
X148000D02*
X142953D01*
Y156000D01*
X143142Y154564D01*
X143696Y153226D01*
X144577Y152077D01*
X145726Y151196D01*
X147064Y150642D01*
X148000Y150518D01*
Y160000D01*
D02*
G37*
G36*
X190750Y150750D02*
X188000D01*
Y147500D01*
X190750D01*
Y150750D01*
D02*
G37*
G36*
X187000D02*
X184250D01*
Y147500D01*
X187000D01*
Y150750D01*
D02*
G37*
G36*
X190750Y146500D02*
X188000D01*
Y143250D01*
X190750D01*
Y146500D01*
D02*
G37*
G36*
X187000D02*
X184250D01*
Y143250D01*
X187000D01*
Y146500D01*
D02*
G37*
G36*
X166000Y148047D02*
X162000D01*
Y143000D01*
X171482D01*
X171358Y143936D01*
X170804Y145274D01*
X169923Y146423D01*
X168774Y147304D01*
X167436Y147858D01*
X166000Y148047D01*
D02*
G37*
G36*
X161000D02*
X157000D01*
X155564Y147858D01*
X154226Y147304D01*
X153077Y146423D01*
X152196Y145274D01*
X151642Y143936D01*
X151518Y143000D01*
X161000D01*
Y148047D01*
D02*
G37*
G36*
X171482Y142000D02*
X162000D01*
Y136952D01*
X166000D01*
X167436Y137142D01*
X168774Y137696D01*
X169923Y138577D01*
X170804Y139726D01*
X171358Y141064D01*
X171482Y142000D01*
D02*
G37*
G36*
X161000D02*
X151518D01*
X151642Y141064D01*
X152196Y139726D01*
X153077Y138577D01*
X154226Y137696D01*
X155564Y137142D01*
X157000Y136952D01*
X161000D01*
Y142000D01*
D02*
G37*
G36*
X33500Y190469D02*
Y187000D01*
X36969D01*
X36897Y187544D01*
X36494Y188517D01*
X35853Y189353D01*
X35017Y189994D01*
X34044Y190397D01*
X33500Y190469D01*
D02*
G37*
G36*
X32500D02*
X31956Y190397D01*
X30983Y189994D01*
X30147Y189353D01*
X29506Y188517D01*
X29103Y187544D01*
X29031Y187000D01*
X32500D01*
Y190469D01*
D02*
G37*
G36*
X36969Y186000D02*
X33500D01*
Y182531D01*
X34044Y182603D01*
X35017Y183006D01*
X35853Y183647D01*
X36494Y184483D01*
X36897Y185456D01*
X36969Y186000D01*
D02*
G37*
G36*
X32500D02*
X29031D01*
X29103Y185456D01*
X29506Y184483D01*
X30147Y183647D01*
X30983Y183006D01*
X31956Y182603D01*
X32500Y182531D01*
Y186000D01*
D02*
G37*
G36*
X47000Y190500D02*
X39000D01*
Y182500D01*
X47000D01*
Y183971D01*
X60366D01*
X61471Y182867D01*
Y180500D01*
X59500D01*
Y179029D01*
X54000D01*
X53415Y178913D01*
X52919Y178581D01*
X48419Y174081D01*
X48087Y173585D01*
X47971Y173000D01*
Y171306D01*
X47193Y171070D01*
X46150Y170513D01*
X45237Y169763D01*
X44487Y168850D01*
X43930Y167807D01*
X43587Y166676D01*
X43471Y165500D01*
Y155500D01*
X43587Y154324D01*
X43930Y153193D01*
X44487Y152150D01*
X45237Y151237D01*
X46150Y150487D01*
X47193Y149930D01*
X48324Y149587D01*
X49500Y149471D01*
X50676Y149587D01*
X51807Y149930D01*
X52850Y150487D01*
X53763Y151237D01*
X54513Y152150D01*
X55070Y153193D01*
X55413Y154324D01*
X55529Y155500D01*
Y165500D01*
X55413Y166676D01*
X55070Y167807D01*
X54513Y168850D01*
X53763Y169763D01*
X52850Y170513D01*
X51807Y171070D01*
X51029Y171306D01*
Y172366D01*
X54633Y175971D01*
X59500D01*
Y172500D01*
X66500D01*
Y180500D01*
X64529D01*
Y183500D01*
X64413Y184085D01*
X64081Y184581D01*
X62081Y186581D01*
X61585Y186913D01*
X61000Y187029D01*
X47000D01*
Y190500D01*
D02*
G37*
G36*
X24000Y170482D02*
Y161000D01*
X29048D01*
Y165000D01*
X28858Y166436D01*
X28304Y167774D01*
X27423Y168923D01*
X26274Y169804D01*
X24936Y170358D01*
X24000Y170482D01*
D02*
G37*
G36*
X23000D02*
X22064Y170358D01*
X20726Y169804D01*
X19577Y168923D01*
X18696Y167774D01*
X18142Y166436D01*
X17953Y165000D01*
Y161000D01*
X23000D01*
Y170482D01*
D02*
G37*
G36*
X66500Y171500D02*
X59500D01*
Y163500D01*
X60971D01*
Y159750D01*
X59250D01*
Y152250D01*
X65750D01*
Y159750D01*
X64029D01*
Y163500D01*
X66500D01*
Y171500D01*
D02*
G37*
G36*
X29048Y160000D02*
X24000D01*
Y150518D01*
X24936Y150642D01*
X26274Y151196D01*
X27423Y152077D01*
X28304Y153226D01*
X28858Y154564D01*
X29048Y156000D01*
Y160000D01*
D02*
G37*
G36*
X23000D02*
X17953D01*
Y156000D01*
X18142Y154564D01*
X18696Y153226D01*
X19577Y152077D01*
X20726Y151196D01*
X22064Y150642D01*
X23000Y150518D01*
Y160000D01*
D02*
G37*
G36*
X65750Y150750D02*
X63000D01*
Y147500D01*
X65750D01*
Y150750D01*
D02*
G37*
G36*
X62000D02*
X59250D01*
Y147500D01*
X62000D01*
Y150750D01*
D02*
G37*
G36*
X65750Y146500D02*
X63000D01*
Y143250D01*
X65750D01*
Y146500D01*
D02*
G37*
G36*
X62000D02*
X59250D01*
Y143250D01*
X62000D01*
Y146500D01*
D02*
G37*
G36*
X41000Y148047D02*
X37000D01*
Y143000D01*
X46482D01*
X46358Y143936D01*
X45804Y145274D01*
X44923Y146423D01*
X43774Y147304D01*
X42436Y147858D01*
X41000Y148047D01*
D02*
G37*
G36*
X36000D02*
X32000D01*
X30564Y147858D01*
X29226Y147304D01*
X28077Y146423D01*
X27196Y145274D01*
X26642Y143936D01*
X26518Y143000D01*
X36000D01*
Y148047D01*
D02*
G37*
G36*
X46482Y142000D02*
X37000D01*
Y136952D01*
X41000D01*
X42436Y137142D01*
X43774Y137696D01*
X44923Y138577D01*
X45804Y139726D01*
X46358Y141064D01*
X46482Y142000D01*
D02*
G37*
G36*
X36000D02*
X26518D01*
X26642Y141064D01*
X27196Y139726D01*
X28077Y138577D01*
X29226Y137696D01*
X30564Y137142D01*
X32000Y136952D01*
X36000D01*
Y142000D01*
D02*
G37*
G36*
X533500Y65469D02*
Y62000D01*
X536969D01*
X536897Y62544D01*
X536494Y63517D01*
X535853Y64353D01*
X535017Y64994D01*
X534044Y65397D01*
X533500Y65469D01*
D02*
G37*
G36*
X532500D02*
X531956Y65397D01*
X530983Y64994D01*
X530147Y64353D01*
X529506Y63517D01*
X529103Y62544D01*
X529031Y62000D01*
X532500D01*
Y65469D01*
D02*
G37*
G36*
X536969Y61000D02*
X533500D01*
Y57531D01*
X534044Y57603D01*
X535017Y58006D01*
X535853Y58647D01*
X536494Y59483D01*
X536897Y60456D01*
X536969Y61000D01*
D02*
G37*
G36*
X532500D02*
X529031D01*
X529103Y60456D01*
X529506Y59483D01*
X530147Y58647D01*
X530983Y58006D01*
X531956Y57603D01*
X532500Y57531D01*
Y61000D01*
D02*
G37*
G36*
X547000Y65500D02*
X539000D01*
Y57500D01*
X547000D01*
Y58971D01*
X560366D01*
X561471Y57867D01*
Y55500D01*
X559500D01*
Y54029D01*
X554000D01*
X553415Y53913D01*
X552919Y53581D01*
X548419Y49081D01*
X548087Y48585D01*
X547971Y48000D01*
Y46306D01*
X547193Y46070D01*
X546150Y45513D01*
X545237Y44763D01*
X544487Y43850D01*
X543930Y42807D01*
X543587Y41676D01*
X543471Y40500D01*
Y30500D01*
X543587Y29324D01*
X543930Y28193D01*
X544487Y27150D01*
X545237Y26237D01*
X546150Y25487D01*
X547193Y24930D01*
X548324Y24587D01*
X549500Y24471D01*
X550676Y24587D01*
X551807Y24930D01*
X552849Y25487D01*
X553763Y26237D01*
X554513Y27150D01*
X555070Y28193D01*
X555413Y29324D01*
X555529Y30500D01*
Y40500D01*
X555413Y41676D01*
X555070Y42807D01*
X554513Y43850D01*
X553763Y44763D01*
X552849Y45513D01*
X551807Y46070D01*
X551029Y46306D01*
Y47366D01*
X554634Y50971D01*
X559500D01*
Y47500D01*
X566500D01*
Y55500D01*
X564529D01*
Y58500D01*
X564413Y59085D01*
X564081Y59581D01*
X562081Y61581D01*
X561585Y61913D01*
X561000Y62029D01*
X547000D01*
Y65500D01*
D02*
G37*
G36*
X524000Y45482D02*
Y36000D01*
X529047D01*
Y40000D01*
X528858Y41436D01*
X528304Y42774D01*
X527423Y43923D01*
X526274Y44804D01*
X524936Y45358D01*
X524000Y45482D01*
D02*
G37*
G36*
X523000D02*
X522064Y45358D01*
X520726Y44804D01*
X519577Y43923D01*
X518696Y42774D01*
X518142Y41436D01*
X517952Y40000D01*
Y36000D01*
X523000D01*
Y45482D01*
D02*
G37*
G36*
X566500Y46500D02*
X559500D01*
Y38500D01*
X560971D01*
Y34750D01*
X559250D01*
Y27250D01*
X565750D01*
Y34750D01*
X564029D01*
Y38500D01*
X566500D01*
Y46500D01*
D02*
G37*
G36*
X529047Y35000D02*
X524000D01*
Y25518D01*
X524936Y25642D01*
X526274Y26196D01*
X527423Y27077D01*
X528304Y28226D01*
X528858Y29564D01*
X529047Y31000D01*
Y35000D01*
D02*
G37*
G36*
X523000D02*
X517952D01*
Y31000D01*
X518142Y29564D01*
X518696Y28226D01*
X519577Y27077D01*
X520726Y26196D01*
X522064Y25642D01*
X523000Y25518D01*
Y35000D01*
D02*
G37*
G36*
X565750Y25750D02*
X563000D01*
Y22500D01*
X565750D01*
Y25750D01*
D02*
G37*
G36*
X562000D02*
X559250D01*
Y22500D01*
X562000D01*
Y25750D01*
D02*
G37*
G36*
X565750Y21500D02*
X563000D01*
Y18250D01*
X565750D01*
Y21500D01*
D02*
G37*
G36*
X562000D02*
X559250D01*
Y18250D01*
X562000D01*
Y21500D01*
D02*
G37*
G36*
X541000Y23047D02*
X537000D01*
Y18000D01*
X546482D01*
X546358Y18936D01*
X545804Y20274D01*
X544923Y21423D01*
X543774Y22304D01*
X542436Y22858D01*
X541000Y23047D01*
D02*
G37*
G36*
X536000D02*
X532000D01*
X530564Y22858D01*
X529226Y22304D01*
X528077Y21423D01*
X527196Y20274D01*
X526642Y18936D01*
X526518Y18000D01*
X536000D01*
Y23047D01*
D02*
G37*
G36*
X546482Y17000D02*
X537000D01*
Y11953D01*
X541000D01*
X542436Y12142D01*
X543774Y12696D01*
X544923Y13577D01*
X545804Y14726D01*
X546358Y16064D01*
X546482Y17000D01*
D02*
G37*
G36*
X536000D02*
X526518D01*
X526642Y16064D01*
X527196Y14726D01*
X528077Y13577D01*
X529226Y12696D01*
X530564Y12142D01*
X532000Y11953D01*
X536000D01*
Y17000D01*
D02*
G37*
G36*
X408500Y65469D02*
Y62000D01*
X411969D01*
X411897Y62544D01*
X411494Y63517D01*
X410853Y64353D01*
X410017Y64994D01*
X409044Y65397D01*
X408500Y65469D01*
D02*
G37*
G36*
X407500D02*
X406956Y65397D01*
X405983Y64994D01*
X405147Y64353D01*
X404506Y63517D01*
X404103Y62544D01*
X404031Y62000D01*
X407500D01*
Y65469D01*
D02*
G37*
G36*
X411969Y61000D02*
X408500D01*
Y57531D01*
X409044Y57603D01*
X410017Y58006D01*
X410853Y58647D01*
X411494Y59483D01*
X411897Y60456D01*
X411969Y61000D01*
D02*
G37*
G36*
X407500D02*
X404031D01*
X404103Y60456D01*
X404506Y59483D01*
X405147Y58647D01*
X405983Y58006D01*
X406956Y57603D01*
X407500Y57531D01*
Y61000D01*
D02*
G37*
G36*
X422000Y65500D02*
X414000D01*
Y57500D01*
X422000D01*
Y58971D01*
X435366D01*
X436471Y57867D01*
Y55500D01*
X434500D01*
Y54029D01*
X429000D01*
X428415Y53913D01*
X427919Y53581D01*
X423419Y49081D01*
X423087Y48585D01*
X422971Y48000D01*
Y46306D01*
X422193Y46070D01*
X421150Y45513D01*
X420237Y44763D01*
X419487Y43850D01*
X418930Y42807D01*
X418587Y41676D01*
X418471Y40500D01*
Y30500D01*
X418587Y29324D01*
X418930Y28193D01*
X419487Y27150D01*
X420237Y26237D01*
X421150Y25487D01*
X422193Y24930D01*
X423324Y24587D01*
X424500Y24471D01*
X425676Y24587D01*
X426807Y24930D01*
X427849Y25487D01*
X428763Y26237D01*
X429513Y27150D01*
X430070Y28193D01*
X430413Y29324D01*
X430529Y30500D01*
Y40500D01*
X430413Y41676D01*
X430070Y42807D01*
X429513Y43850D01*
X428763Y44763D01*
X427849Y45513D01*
X426807Y46070D01*
X426029Y46306D01*
Y47366D01*
X429634Y50971D01*
X434500D01*
Y47500D01*
X441500D01*
Y55500D01*
X439529D01*
Y58500D01*
X439413Y59085D01*
X439081Y59581D01*
X437081Y61581D01*
X436585Y61913D01*
X436000Y62029D01*
X422000D01*
Y65500D01*
D02*
G37*
G36*
X399000Y45482D02*
Y36000D01*
X404047D01*
Y40000D01*
X403858Y41436D01*
X403304Y42774D01*
X402423Y43923D01*
X401274Y44804D01*
X399936Y45358D01*
X399000Y45482D01*
D02*
G37*
G36*
X398000D02*
X397064Y45358D01*
X395726Y44804D01*
X394577Y43923D01*
X393696Y42774D01*
X393142Y41436D01*
X392952Y40000D01*
Y36000D01*
X398000D01*
Y45482D01*
D02*
G37*
G36*
X441500Y46500D02*
X434500D01*
Y38500D01*
X435971D01*
Y34750D01*
X434250D01*
Y27250D01*
X440750D01*
Y34750D01*
X439029D01*
Y38500D01*
X441500D01*
Y46500D01*
D02*
G37*
G36*
X404047Y35000D02*
X399000D01*
Y25518D01*
X399936Y25642D01*
X401274Y26196D01*
X402423Y27077D01*
X403304Y28226D01*
X403858Y29564D01*
X404047Y31000D01*
Y35000D01*
D02*
G37*
G36*
X398000D02*
X392952D01*
Y31000D01*
X393142Y29564D01*
X393696Y28226D01*
X394577Y27077D01*
X395726Y26196D01*
X397064Y25642D01*
X398000Y25518D01*
Y35000D01*
D02*
G37*
G36*
X440750Y25750D02*
X438000D01*
Y22500D01*
X440750D01*
Y25750D01*
D02*
G37*
G36*
X437000D02*
X434250D01*
Y22500D01*
X437000D01*
Y25750D01*
D02*
G37*
G36*
X440750Y21500D02*
X438000D01*
Y18250D01*
X440750D01*
Y21500D01*
D02*
G37*
G36*
X437000D02*
X434250D01*
Y18250D01*
X437000D01*
Y21500D01*
D02*
G37*
G36*
X416000Y23047D02*
X412000D01*
Y18000D01*
X421482D01*
X421358Y18936D01*
X420804Y20274D01*
X419923Y21423D01*
X418774Y22304D01*
X417436Y22858D01*
X416000Y23047D01*
D02*
G37*
G36*
X411000D02*
X407000D01*
X405564Y22858D01*
X404226Y22304D01*
X403077Y21423D01*
X402196Y20274D01*
X401642Y18936D01*
X401518Y18000D01*
X411000D01*
Y23047D01*
D02*
G37*
G36*
X421482Y17000D02*
X412000D01*
Y11953D01*
X416000D01*
X417436Y12142D01*
X418774Y12696D01*
X419923Y13577D01*
X420804Y14726D01*
X421358Y16064D01*
X421482Y17000D01*
D02*
G37*
G36*
X411000D02*
X401518D01*
X401642Y16064D01*
X402196Y14726D01*
X403077Y13577D01*
X404226Y12696D01*
X405564Y12142D01*
X407000Y11953D01*
X411000D01*
Y17000D01*
D02*
G37*
G36*
X283500Y65469D02*
Y62000D01*
X286969D01*
X286897Y62544D01*
X286494Y63517D01*
X285853Y64353D01*
X285017Y64994D01*
X284044Y65397D01*
X283500Y65469D01*
D02*
G37*
G36*
X282500D02*
X281956Y65397D01*
X280983Y64994D01*
X280147Y64353D01*
X279506Y63517D01*
X279103Y62544D01*
X279031Y62000D01*
X282500D01*
Y65469D01*
D02*
G37*
G36*
X286969Y61000D02*
X283500D01*
Y57531D01*
X284044Y57603D01*
X285017Y58006D01*
X285853Y58647D01*
X286494Y59483D01*
X286897Y60456D01*
X286969Y61000D01*
D02*
G37*
G36*
X282500D02*
X279031D01*
X279103Y60456D01*
X279506Y59483D01*
X280147Y58647D01*
X280983Y58006D01*
X281956Y57603D01*
X282500Y57531D01*
Y61000D01*
D02*
G37*
G36*
X297000Y65500D02*
X289000D01*
Y57500D01*
X297000D01*
Y58971D01*
X310367D01*
X311471Y57867D01*
Y55500D01*
X309500D01*
Y54029D01*
X304000D01*
X303415Y53913D01*
X302919Y53581D01*
X298419Y49081D01*
X298087Y48585D01*
X297971Y48000D01*
Y46306D01*
X297193Y46070D01*
X296150Y45513D01*
X295237Y44763D01*
X294487Y43850D01*
X293930Y42807D01*
X293587Y41676D01*
X293471Y40500D01*
Y30500D01*
X293587Y29324D01*
X293930Y28193D01*
X294487Y27150D01*
X295237Y26237D01*
X296150Y25487D01*
X297193Y24930D01*
X298324Y24587D01*
X299500Y24471D01*
X300676Y24587D01*
X301807Y24930D01*
X302850Y25487D01*
X303763Y26237D01*
X304513Y27150D01*
X305070Y28193D01*
X305413Y29324D01*
X305529Y30500D01*
Y40500D01*
X305413Y41676D01*
X305070Y42807D01*
X304513Y43850D01*
X303763Y44763D01*
X302850Y45513D01*
X301807Y46070D01*
X301029Y46306D01*
Y47366D01*
X304633Y50971D01*
X309500D01*
Y47500D01*
X316500D01*
Y55500D01*
X314529D01*
Y58500D01*
X314413Y59085D01*
X314081Y59581D01*
X312081Y61581D01*
X311585Y61913D01*
X311000Y62029D01*
X297000D01*
Y65500D01*
D02*
G37*
G36*
X274000Y45482D02*
Y36000D01*
X279047D01*
Y40000D01*
X278858Y41436D01*
X278304Y42774D01*
X277423Y43923D01*
X276274Y44804D01*
X274936Y45358D01*
X274000Y45482D01*
D02*
G37*
G36*
X273000D02*
X272064Y45358D01*
X270726Y44804D01*
X269577Y43923D01*
X268696Y42774D01*
X268142Y41436D01*
X267952Y40000D01*
Y36000D01*
X273000D01*
Y45482D01*
D02*
G37*
G36*
X316500Y46500D02*
X309500D01*
Y38500D01*
X310971D01*
Y34750D01*
X309250D01*
Y27250D01*
X315750D01*
Y34750D01*
X314029D01*
Y38500D01*
X316500D01*
Y46500D01*
D02*
G37*
G36*
X279047Y35000D02*
X274000D01*
Y25518D01*
X274936Y25642D01*
X276274Y26196D01*
X277423Y27077D01*
X278304Y28226D01*
X278858Y29564D01*
X279047Y31000D01*
Y35000D01*
D02*
G37*
G36*
X273000D02*
X267952D01*
Y31000D01*
X268142Y29564D01*
X268696Y28226D01*
X269577Y27077D01*
X270726Y26196D01*
X272064Y25642D01*
X273000Y25518D01*
Y35000D01*
D02*
G37*
G36*
X315750Y25750D02*
X313000D01*
Y22500D01*
X315750D01*
Y25750D01*
D02*
G37*
G36*
X312000D02*
X309250D01*
Y22500D01*
X312000D01*
Y25750D01*
D02*
G37*
G36*
X315750Y21500D02*
X313000D01*
Y18250D01*
X315750D01*
Y21500D01*
D02*
G37*
G36*
X312000D02*
X309250D01*
Y18250D01*
X312000D01*
Y21500D01*
D02*
G37*
G36*
X291000Y23047D02*
X287000D01*
Y18000D01*
X296482D01*
X296358Y18936D01*
X295804Y20274D01*
X294923Y21423D01*
X293774Y22304D01*
X292436Y22858D01*
X291000Y23047D01*
D02*
G37*
G36*
X286000D02*
X282000D01*
X280564Y22858D01*
X279226Y22304D01*
X278077Y21423D01*
X277196Y20274D01*
X276642Y18936D01*
X276518Y18000D01*
X286000D01*
Y23047D01*
D02*
G37*
G36*
X296482Y17000D02*
X287000D01*
Y11953D01*
X291000D01*
X292436Y12142D01*
X293774Y12696D01*
X294923Y13577D01*
X295804Y14726D01*
X296358Y16064D01*
X296482Y17000D01*
D02*
G37*
G36*
X286000D02*
X276518D01*
X276642Y16064D01*
X277196Y14726D01*
X278077Y13577D01*
X279226Y12696D01*
X280564Y12142D01*
X282000Y11953D01*
X286000D01*
Y17000D01*
D02*
G37*
G36*
X158500Y65469D02*
Y62000D01*
X161969D01*
X161897Y62544D01*
X161494Y63517D01*
X160853Y64353D01*
X160017Y64994D01*
X159044Y65397D01*
X158500Y65469D01*
D02*
G37*
G36*
X157500D02*
X156956Y65397D01*
X155983Y64994D01*
X155147Y64353D01*
X154506Y63517D01*
X154103Y62544D01*
X154031Y62000D01*
X157500D01*
Y65469D01*
D02*
G37*
G36*
X161969Y61000D02*
X158500D01*
Y57531D01*
X159044Y57603D01*
X160017Y58006D01*
X160853Y58647D01*
X161494Y59483D01*
X161897Y60456D01*
X161969Y61000D01*
D02*
G37*
G36*
X157500D02*
X154031D01*
X154103Y60456D01*
X154506Y59483D01*
X155147Y58647D01*
X155983Y58006D01*
X156956Y57603D01*
X157500Y57531D01*
Y61000D01*
D02*
G37*
G36*
X172000Y65500D02*
X164000D01*
Y57500D01*
X172000D01*
Y58971D01*
X185366D01*
X186471Y57867D01*
Y55500D01*
X184500D01*
Y54029D01*
X179000D01*
X178415Y53913D01*
X177919Y53581D01*
X173419Y49081D01*
X173087Y48585D01*
X172971Y48000D01*
Y46306D01*
X172193Y46070D01*
X171151Y45513D01*
X170237Y44763D01*
X169487Y43850D01*
X168930Y42807D01*
X168587Y41676D01*
X168471Y40500D01*
Y30500D01*
X168587Y29324D01*
X168930Y28193D01*
X169487Y27150D01*
X170237Y26237D01*
X171151Y25487D01*
X172193Y24930D01*
X173324Y24587D01*
X174500Y24471D01*
X175676Y24587D01*
X176807Y24930D01*
X177849Y25487D01*
X178763Y26237D01*
X179513Y27150D01*
X180070Y28193D01*
X180413Y29324D01*
X180529Y30500D01*
Y40500D01*
X180413Y41676D01*
X180070Y42807D01*
X179513Y43850D01*
X178763Y44763D01*
X177849Y45513D01*
X176807Y46070D01*
X176029Y46306D01*
Y47366D01*
X179633Y50971D01*
X184500D01*
Y47500D01*
X191500D01*
Y55500D01*
X189529D01*
Y58500D01*
X189413Y59085D01*
X189081Y59581D01*
X187081Y61581D01*
X186585Y61913D01*
X186000Y62029D01*
X172000D01*
Y65500D01*
D02*
G37*
G36*
X149000Y45482D02*
Y36000D01*
X154048D01*
Y40000D01*
X153858Y41436D01*
X153304Y42774D01*
X152423Y43923D01*
X151274Y44804D01*
X149936Y45358D01*
X149000Y45482D01*
D02*
G37*
G36*
X148000D02*
X147064Y45358D01*
X145726Y44804D01*
X144577Y43923D01*
X143696Y42774D01*
X143142Y41436D01*
X142953Y40000D01*
Y36000D01*
X148000D01*
Y45482D01*
D02*
G37*
G36*
X191500Y46500D02*
X184500D01*
Y38500D01*
X185971D01*
Y34750D01*
X184250D01*
Y27250D01*
X190750D01*
Y34750D01*
X189029D01*
Y38500D01*
X191500D01*
Y46500D01*
D02*
G37*
G36*
X154048Y35000D02*
X149000D01*
Y25518D01*
X149936Y25642D01*
X151274Y26196D01*
X152423Y27077D01*
X153304Y28226D01*
X153858Y29564D01*
X154048Y31000D01*
Y35000D01*
D02*
G37*
G36*
X148000D02*
X142953D01*
Y31000D01*
X143142Y29564D01*
X143696Y28226D01*
X144577Y27077D01*
X145726Y26196D01*
X147064Y25642D01*
X148000Y25518D01*
Y35000D01*
D02*
G37*
G36*
X190750Y25750D02*
X188000D01*
Y22500D01*
X190750D01*
Y25750D01*
D02*
G37*
G36*
X187000D02*
X184250D01*
Y22500D01*
X187000D01*
Y25750D01*
D02*
G37*
G36*
X190750Y21500D02*
X188000D01*
Y18250D01*
X190750D01*
Y21500D01*
D02*
G37*
G36*
X187000D02*
X184250D01*
Y18250D01*
X187000D01*
Y21500D01*
D02*
G37*
G36*
X166000Y23047D02*
X162000D01*
Y18000D01*
X171482D01*
X171358Y18936D01*
X170804Y20274D01*
X169923Y21423D01*
X168774Y22304D01*
X167436Y22858D01*
X166000Y23047D01*
D02*
G37*
G36*
X161000D02*
X157000D01*
X155564Y22858D01*
X154226Y22304D01*
X153077Y21423D01*
X152196Y20274D01*
X151642Y18936D01*
X151518Y18000D01*
X161000D01*
Y23047D01*
D02*
G37*
G36*
X171482Y17000D02*
X162000D01*
Y11953D01*
X166000D01*
X167436Y12142D01*
X168774Y12696D01*
X169923Y13577D01*
X170804Y14726D01*
X171358Y16064D01*
X171482Y17000D01*
D02*
G37*
G36*
X161000D02*
X151518D01*
X151642Y16064D01*
X152196Y14726D01*
X153077Y13577D01*
X154226Y12696D01*
X155564Y12142D01*
X157000Y11953D01*
X161000D01*
Y17000D01*
D02*
G37*
G36*
X33500Y65469D02*
Y62000D01*
X36969D01*
X36897Y62544D01*
X36494Y63517D01*
X35853Y64353D01*
X35017Y64994D01*
X34044Y65397D01*
X33500Y65469D01*
D02*
G37*
G36*
X32500D02*
X31956Y65397D01*
X30983Y64994D01*
X30147Y64353D01*
X29506Y63517D01*
X29103Y62544D01*
X29031Y62000D01*
X32500D01*
Y65469D01*
D02*
G37*
G36*
X36969Y61000D02*
X33500D01*
Y57531D01*
X34044Y57603D01*
X35017Y58006D01*
X35853Y58647D01*
X36494Y59483D01*
X36897Y60456D01*
X36969Y61000D01*
D02*
G37*
G36*
X32500D02*
X29031D01*
X29103Y60456D01*
X29506Y59483D01*
X30147Y58647D01*
X30983Y58006D01*
X31956Y57603D01*
X32500Y57531D01*
Y61000D01*
D02*
G37*
G36*
X47000Y65500D02*
X39000D01*
Y57500D01*
X47000D01*
Y58971D01*
X60366D01*
X61471Y57867D01*
Y55500D01*
X59500D01*
Y54029D01*
X54000D01*
X53415Y53913D01*
X52919Y53581D01*
X48419Y49081D01*
X48087Y48585D01*
X47971Y48000D01*
Y46306D01*
X47193Y46070D01*
X46150Y45513D01*
X45237Y44763D01*
X44487Y43850D01*
X43930Y42807D01*
X43587Y41676D01*
X43471Y40500D01*
Y30500D01*
X43587Y29324D01*
X43930Y28193D01*
X44487Y27150D01*
X45237Y26237D01*
X46150Y25487D01*
X47193Y24930D01*
X48324Y24587D01*
X49500Y24471D01*
X50676Y24587D01*
X51807Y24930D01*
X52850Y25487D01*
X53763Y26237D01*
X54513Y27150D01*
X55070Y28193D01*
X55413Y29324D01*
X55529Y30500D01*
Y40500D01*
X55413Y41676D01*
X55070Y42807D01*
X54513Y43850D01*
X53763Y44763D01*
X52850Y45513D01*
X51807Y46070D01*
X51029Y46306D01*
Y47366D01*
X54633Y50971D01*
X59500D01*
Y47500D01*
X66500D01*
Y55500D01*
X64529D01*
Y58500D01*
X64413Y59085D01*
X64081Y59581D01*
X62081Y61581D01*
X61585Y61913D01*
X61000Y62029D01*
X47000D01*
Y65500D01*
D02*
G37*
G36*
X24000Y45482D02*
Y36000D01*
X29048D01*
Y40000D01*
X28858Y41436D01*
X28304Y42774D01*
X27423Y43923D01*
X26274Y44804D01*
X24936Y45358D01*
X24000Y45482D01*
D02*
G37*
G36*
X23000D02*
X22064Y45358D01*
X20726Y44804D01*
X19577Y43923D01*
X18696Y42774D01*
X18142Y41436D01*
X17953Y40000D01*
Y36000D01*
X23000D01*
Y45482D01*
D02*
G37*
G36*
X66500Y46500D02*
X59500D01*
Y38500D01*
X60971D01*
Y34750D01*
X59250D01*
Y27250D01*
X65750D01*
Y34750D01*
X64029D01*
Y38500D01*
X66500D01*
Y46500D01*
D02*
G37*
G36*
X29048Y35000D02*
X24000D01*
Y25518D01*
X24936Y25642D01*
X26274Y26196D01*
X27423Y27077D01*
X28304Y28226D01*
X28858Y29564D01*
X29048Y31000D01*
Y35000D01*
D02*
G37*
G36*
X23000D02*
X17953D01*
Y31000D01*
X18142Y29564D01*
X18696Y28226D01*
X19577Y27077D01*
X20726Y26196D01*
X22064Y25642D01*
X23000Y25518D01*
Y35000D01*
D02*
G37*
G36*
X65750Y25750D02*
X63000D01*
Y22500D01*
X65750D01*
Y25750D01*
D02*
G37*
G36*
X62000D02*
X59250D01*
Y22500D01*
X62000D01*
Y25750D01*
D02*
G37*
G36*
X65750Y21500D02*
X63000D01*
Y18250D01*
X65750D01*
Y21500D01*
D02*
G37*
G36*
X62000D02*
X59250D01*
Y18250D01*
X62000D01*
Y21500D01*
D02*
G37*
G36*
X41000Y23047D02*
X37000D01*
Y18000D01*
X46482D01*
X46358Y18936D01*
X45804Y20274D01*
X44923Y21423D01*
X43774Y22304D01*
X42436Y22858D01*
X41000Y23047D01*
D02*
G37*
G36*
X36000D02*
X32000D01*
X30564Y22858D01*
X29226Y22304D01*
X28077Y21423D01*
X27196Y20274D01*
X26642Y18936D01*
X26518Y18000D01*
X36000D01*
Y23047D01*
D02*
G37*
G36*
X46482Y17000D02*
X37000D01*
Y11953D01*
X41000D01*
X42436Y12142D01*
X43774Y12696D01*
X44923Y13577D01*
X45804Y14726D01*
X46358Y16064D01*
X46482Y17000D01*
D02*
G37*
G36*
X36000D02*
X26518D01*
X26642Y16064D01*
X27196Y14726D01*
X28077Y13577D01*
X29226Y12696D01*
X30564Y12142D01*
X32000Y11953D01*
X36000D01*
Y17000D01*
D02*
G37*
%LPD*%
D10*
X62500Y22000D02*
D03*
Y31000D02*
D03*
X187500Y22000D02*
D03*
Y31000D02*
D03*
X312500Y22000D02*
D03*
Y31000D02*
D03*
X437500Y22000D02*
D03*
Y31000D02*
D03*
X562500Y22000D02*
D03*
Y31000D02*
D03*
X62500Y147000D02*
D03*
Y156000D02*
D03*
X187500Y147000D02*
D03*
Y156000D02*
D03*
X312500Y147000D02*
D03*
Y156000D02*
D03*
X437500Y147000D02*
D03*
Y156000D02*
D03*
X562500Y147000D02*
D03*
Y156000D02*
D03*
X62500Y272000D02*
D03*
Y281000D02*
D03*
X187500Y272000D02*
D03*
Y281000D02*
D03*
X312500Y272000D02*
D03*
Y281000D02*
D03*
X437500Y272000D02*
D03*
Y281000D02*
D03*
X562500Y272000D02*
D03*
Y281000D02*
D03*
X62500Y397000D02*
D03*
Y406000D02*
D03*
X187500Y397000D02*
D03*
Y406000D02*
D03*
X312500Y397000D02*
D03*
Y406000D02*
D03*
X437500Y397000D02*
D03*
Y406000D02*
D03*
X562500Y397000D02*
D03*
Y406000D02*
D03*
X62500Y522000D02*
D03*
Y531000D02*
D03*
X187500Y522000D02*
D03*
Y531000D02*
D03*
X312500Y522000D02*
D03*
Y531000D02*
D03*
X437500Y522000D02*
D03*
Y531000D02*
D03*
X562500Y522000D02*
D03*
Y531000D02*
D03*
X62500Y647000D02*
D03*
Y656000D02*
D03*
X187500Y647000D02*
D03*
Y656000D02*
D03*
X312500Y647000D02*
D03*
Y656000D02*
D03*
X437500Y647000D02*
D03*
Y656000D02*
D03*
X562500Y647000D02*
D03*
Y656000D02*
D03*
D11*
X63000Y51500D02*
D03*
Y42500D02*
D03*
X188000Y51500D02*
D03*
Y42500D02*
D03*
X313000Y51500D02*
D03*
Y42500D02*
D03*
X438000Y51500D02*
D03*
Y42500D02*
D03*
X563000Y51500D02*
D03*
Y42500D02*
D03*
X63000Y176500D02*
D03*
Y167500D02*
D03*
X188000Y176500D02*
D03*
Y167500D02*
D03*
X313000Y176500D02*
D03*
Y167500D02*
D03*
X438000Y176500D02*
D03*
Y167500D02*
D03*
X563000Y176500D02*
D03*
Y167500D02*
D03*
X63000Y301500D02*
D03*
Y292500D02*
D03*
X188000Y301500D02*
D03*
Y292500D02*
D03*
X313000Y301500D02*
D03*
Y292500D02*
D03*
X438000Y301500D02*
D03*
Y292500D02*
D03*
X563000Y301500D02*
D03*
Y292500D02*
D03*
X63000Y426500D02*
D03*
Y417500D02*
D03*
X188000Y426500D02*
D03*
Y417500D02*
D03*
X313000Y426500D02*
D03*
Y417500D02*
D03*
X438000Y426500D02*
D03*
Y417500D02*
D03*
X563000Y426500D02*
D03*
Y417500D02*
D03*
X63000Y551500D02*
D03*
Y542500D02*
D03*
X188000Y551500D02*
D03*
Y542500D02*
D03*
X313000Y551500D02*
D03*
Y542500D02*
D03*
X438000Y551500D02*
D03*
Y542500D02*
D03*
X563000Y551500D02*
D03*
Y542500D02*
D03*
X63000Y676500D02*
D03*
Y667500D02*
D03*
X188000Y676500D02*
D03*
Y667500D02*
D03*
X313000Y676500D02*
D03*
Y667500D02*
D03*
X438000Y676500D02*
D03*
Y667500D02*
D03*
X563000Y676500D02*
D03*
Y667500D02*
D03*
D12*
X62500Y52000D02*
X63000Y52500D01*
X62000D02*
X62500Y52000D01*
X43000Y61500D02*
X44000Y60500D01*
X61000D02*
X63000Y58500D01*
X44000Y60500D02*
X61000D01*
X63000Y52500D02*
Y58500D01*
X62500Y52000D02*
X63000Y51500D01*
X54000Y52500D02*
X62000D01*
X49500Y35500D02*
Y48000D01*
X54000Y52500D01*
X62500Y31000D02*
Y42000D01*
X63000Y42500D01*
X187500Y52000D02*
X188000Y52500D01*
X187000D02*
X187500Y52000D01*
X168000Y61500D02*
X169000Y60500D01*
X186000D02*
X188000Y58500D01*
X169000Y60500D02*
X186000D01*
X188000Y52500D02*
Y58500D01*
X187500Y52000D02*
X188000Y51500D01*
X179000Y52500D02*
X187000D01*
X174500Y35500D02*
Y48000D01*
X179000Y52500D01*
X187500Y31000D02*
Y42000D01*
X188000Y42500D01*
X312500Y52000D02*
X313000Y52500D01*
X312000D02*
X312500Y52000D01*
X293000Y61500D02*
X294000Y60500D01*
X311000D02*
X313000Y58500D01*
X294000Y60500D02*
X311000D01*
X313000Y52500D02*
Y58500D01*
X312500Y52000D02*
X313000Y51500D01*
X304000Y52500D02*
X312000D01*
X299500Y35500D02*
Y48000D01*
X304000Y52500D01*
X312500Y31000D02*
Y42000D01*
X313000Y42500D01*
X437500Y52000D02*
X438000Y52500D01*
X437000D02*
X437500Y52000D01*
X418000Y61500D02*
X419000Y60500D01*
X436000D02*
X438000Y58500D01*
X419000Y60500D02*
X436000D01*
X438000Y52500D02*
Y58500D01*
X437500Y52000D02*
X438000Y51500D01*
X429000Y52500D02*
X437000D01*
X424500Y35500D02*
Y48000D01*
X429000Y52500D01*
X437500Y31000D02*
Y42000D01*
X438000Y42500D01*
X562500Y52000D02*
X563000Y52500D01*
X562000D02*
X562500Y52000D01*
X543000Y61500D02*
X544000Y60500D01*
X561000D02*
X563000Y58500D01*
X544000Y60500D02*
X561000D01*
X563000Y52500D02*
Y58500D01*
X562500Y52000D02*
X563000Y51500D01*
X554000Y52500D02*
X562000D01*
X549500Y35500D02*
Y48000D01*
X554000Y52500D01*
X562500Y31000D02*
Y42000D01*
X563000Y42500D01*
X62500Y177000D02*
X63000Y177500D01*
X62000D02*
X62500Y177000D01*
X43000Y186500D02*
X44000Y185500D01*
X61000D02*
X63000Y183500D01*
X44000Y185500D02*
X61000D01*
X63000Y177500D02*
Y183500D01*
X62500Y177000D02*
X63000Y176500D01*
X54000Y177500D02*
X62000D01*
X49500Y160500D02*
Y173000D01*
X54000Y177500D01*
X62500Y156000D02*
Y167000D01*
X63000Y167500D01*
X187500Y177000D02*
X188000Y177500D01*
X187000D02*
X187500Y177000D01*
X168000Y186500D02*
X169000Y185500D01*
X186000D02*
X188000Y183500D01*
X169000Y185500D02*
X186000D01*
X188000Y177500D02*
Y183500D01*
X187500Y177000D02*
X188000Y176500D01*
X179000Y177500D02*
X187000D01*
X174500Y160500D02*
Y173000D01*
X179000Y177500D01*
X187500Y156000D02*
Y167000D01*
X188000Y167500D01*
X312500Y177000D02*
X313000Y177500D01*
X312000D02*
X312500Y177000D01*
X293000Y186500D02*
X294000Y185500D01*
X311000D02*
X313000Y183500D01*
X294000Y185500D02*
X311000D01*
X313000Y177500D02*
Y183500D01*
X312500Y177000D02*
X313000Y176500D01*
X304000Y177500D02*
X312000D01*
X299500Y160500D02*
Y173000D01*
X304000Y177500D01*
X312500Y156000D02*
Y167000D01*
X313000Y167500D01*
X437500Y177000D02*
X438000Y177500D01*
X437000D02*
X437500Y177000D01*
X418000Y186500D02*
X419000Y185500D01*
X436000D02*
X438000Y183500D01*
X419000Y185500D02*
X436000D01*
X438000Y177500D02*
Y183500D01*
X437500Y177000D02*
X438000Y176500D01*
X429000Y177500D02*
X437000D01*
X424500Y160500D02*
Y173000D01*
X429000Y177500D01*
X437500Y156000D02*
Y167000D01*
X438000Y167500D01*
X562500Y177000D02*
X563000Y177500D01*
X562000D02*
X562500Y177000D01*
X543000Y186500D02*
X544000Y185500D01*
X561000D02*
X563000Y183500D01*
X544000Y185500D02*
X561000D01*
X563000Y177500D02*
Y183500D01*
X562500Y177000D02*
X563000Y176500D01*
X554000Y177500D02*
X562000D01*
X549500Y160500D02*
Y173000D01*
X554000Y177500D01*
X562500Y156000D02*
Y167000D01*
X563000Y167500D01*
X62500Y302000D02*
X63000Y302500D01*
X62000D02*
X62500Y302000D01*
X43000Y311500D02*
X44000Y310500D01*
X61000D02*
X63000Y308500D01*
X44000Y310500D02*
X61000D01*
X63000Y302500D02*
Y308500D01*
X62500Y302000D02*
X63000Y301500D01*
X54000Y302500D02*
X62000D01*
X49500Y285500D02*
Y298000D01*
X54000Y302500D01*
X62500Y281000D02*
Y292000D01*
X63000Y292500D01*
X187500Y302000D02*
X188000Y302500D01*
X187000D02*
X187500Y302000D01*
X168000Y311500D02*
X169000Y310500D01*
X186000D02*
X188000Y308500D01*
X169000Y310500D02*
X186000D01*
X188000Y302500D02*
Y308500D01*
X187500Y302000D02*
X188000Y301500D01*
X179000Y302500D02*
X187000D01*
X174500Y285500D02*
Y298000D01*
X179000Y302500D01*
X187500Y281000D02*
Y292000D01*
X188000Y292500D01*
X312500Y302000D02*
X313000Y302500D01*
X312000D02*
X312500Y302000D01*
X293000Y311500D02*
X294000Y310500D01*
X311000D02*
X313000Y308500D01*
X294000Y310500D02*
X311000D01*
X313000Y302500D02*
Y308500D01*
X312500Y302000D02*
X313000Y301500D01*
X304000Y302500D02*
X312000D01*
X299500Y285500D02*
Y298000D01*
X304000Y302500D01*
X312500Y281000D02*
Y292000D01*
X313000Y292500D01*
X437500Y302000D02*
X438000Y302500D01*
X437000D02*
X437500Y302000D01*
X418000Y311500D02*
X419000Y310500D01*
X436000D02*
X438000Y308500D01*
X419000Y310500D02*
X436000D01*
X438000Y302500D02*
Y308500D01*
X437500Y302000D02*
X438000Y301500D01*
X429000Y302500D02*
X437000D01*
X424500Y285500D02*
Y298000D01*
X429000Y302500D01*
X437500Y281000D02*
Y292000D01*
X438000Y292500D01*
X562500Y302000D02*
X563000Y302500D01*
X562000D02*
X562500Y302000D01*
X543000Y311500D02*
X544000Y310500D01*
X561000D02*
X563000Y308500D01*
X544000Y310500D02*
X561000D01*
X563000Y302500D02*
Y308500D01*
X562500Y302000D02*
X563000Y301500D01*
X554000Y302500D02*
X562000D01*
X549500Y285500D02*
Y298000D01*
X554000Y302500D01*
X562500Y281000D02*
Y292000D01*
X563000Y292500D01*
X62500Y427000D02*
X63000Y427500D01*
X62000D02*
X62500Y427000D01*
X43000Y436500D02*
X44000Y435500D01*
X61000D02*
X63000Y433500D01*
X44000Y435500D02*
X61000D01*
X63000Y427500D02*
Y433500D01*
X62500Y427000D02*
X63000Y426500D01*
X54000Y427500D02*
X62000D01*
X49500Y410500D02*
Y423000D01*
X54000Y427500D01*
X62500Y406000D02*
Y417000D01*
X63000Y417500D01*
X187500Y427000D02*
X188000Y427500D01*
X187000D02*
X187500Y427000D01*
X168000Y436500D02*
X169000Y435500D01*
X186000D02*
X188000Y433500D01*
X169000Y435500D02*
X186000D01*
X188000Y427500D02*
Y433500D01*
X187500Y427000D02*
X188000Y426500D01*
X179000Y427500D02*
X187000D01*
X174500Y410500D02*
Y423000D01*
X179000Y427500D01*
X187500Y406000D02*
Y417000D01*
X188000Y417500D01*
X312500Y427000D02*
X313000Y427500D01*
X312000D02*
X312500Y427000D01*
X293000Y436500D02*
X294000Y435500D01*
X311000D02*
X313000Y433500D01*
X294000Y435500D02*
X311000D01*
X313000Y427500D02*
Y433500D01*
X312500Y427000D02*
X313000Y426500D01*
X304000Y427500D02*
X312000D01*
X299500Y410500D02*
Y423000D01*
X304000Y427500D01*
X312500Y406000D02*
Y417000D01*
X313000Y417500D01*
X437500Y427000D02*
X438000Y427500D01*
X437000D02*
X437500Y427000D01*
X418000Y436500D02*
X419000Y435500D01*
X436000D02*
X438000Y433500D01*
X419000Y435500D02*
X436000D01*
X438000Y427500D02*
Y433500D01*
X437500Y427000D02*
X438000Y426500D01*
X429000Y427500D02*
X437000D01*
X424500Y410500D02*
Y423000D01*
X429000Y427500D01*
X437500Y406000D02*
Y417000D01*
X438000Y417500D01*
X562500Y427000D02*
X563000Y427500D01*
X562000D02*
X562500Y427000D01*
X543000Y436500D02*
X544000Y435500D01*
X561000D02*
X563000Y433500D01*
X544000Y435500D02*
X561000D01*
X563000Y427500D02*
Y433500D01*
X562500Y427000D02*
X563000Y426500D01*
X554000Y427500D02*
X562000D01*
X549500Y410500D02*
Y423000D01*
X554000Y427500D01*
X562500Y406000D02*
Y417000D01*
X563000Y417500D01*
X62500Y552000D02*
X63000Y552500D01*
X62000D02*
X62500Y552000D01*
X43000Y561500D02*
X44000Y560500D01*
X61000D02*
X63000Y558500D01*
X44000Y560500D02*
X61000D01*
X63000Y552500D02*
Y558500D01*
X62500Y552000D02*
X63000Y551500D01*
X54000Y552500D02*
X62000D01*
X49500Y535500D02*
Y548000D01*
X54000Y552500D01*
X62500Y531000D02*
Y542000D01*
X63000Y542500D01*
X187500Y552000D02*
X188000Y552500D01*
X187000D02*
X187500Y552000D01*
X168000Y561500D02*
X169000Y560500D01*
X186000D02*
X188000Y558500D01*
X169000Y560500D02*
X186000D01*
X188000Y552500D02*
Y558500D01*
X187500Y552000D02*
X188000Y551500D01*
X179000Y552500D02*
X187000D01*
X174500Y535500D02*
Y548000D01*
X179000Y552500D01*
X187500Y531000D02*
Y542000D01*
X188000Y542500D01*
X312500Y552000D02*
X313000Y552500D01*
X312000D02*
X312500Y552000D01*
X293000Y561500D02*
X294000Y560500D01*
X311000D02*
X313000Y558500D01*
X294000Y560500D02*
X311000D01*
X313000Y552500D02*
Y558500D01*
X312500Y552000D02*
X313000Y551500D01*
X304000Y552500D02*
X312000D01*
X299500Y535500D02*
Y548000D01*
X304000Y552500D01*
X312500Y531000D02*
Y542000D01*
X313000Y542500D01*
X437500Y552000D02*
X438000Y552500D01*
X437000D02*
X437500Y552000D01*
X418000Y561500D02*
X419000Y560500D01*
X436000D02*
X438000Y558500D01*
X419000Y560500D02*
X436000D01*
X438000Y552500D02*
Y558500D01*
X437500Y552000D02*
X438000Y551500D01*
X429000Y552500D02*
X437000D01*
X424500Y535500D02*
Y548000D01*
X429000Y552500D01*
X437500Y531000D02*
Y542000D01*
X438000Y542500D01*
X562500Y552000D02*
X563000Y552500D01*
X562000D02*
X562500Y552000D01*
X543000Y561500D02*
X544000Y560500D01*
X561000D02*
X563000Y558500D01*
X544000Y560500D02*
X561000D01*
X563000Y552500D02*
Y558500D01*
X562500Y552000D02*
X563000Y551500D01*
X554000Y552500D02*
X562000D01*
X549500Y535500D02*
Y548000D01*
X554000Y552500D01*
X562500Y531000D02*
Y542000D01*
X563000Y542500D01*
X62500Y677000D02*
X63000Y677500D01*
X62000D02*
X62500Y677000D01*
X43000Y686500D02*
X44000Y685500D01*
X61000D02*
X63000Y683500D01*
X44000Y685500D02*
X61000D01*
X63000Y677500D02*
Y683500D01*
X62500Y677000D02*
X63000Y676500D01*
X54000Y677500D02*
X62000D01*
X49500Y660500D02*
Y673000D01*
X54000Y677500D01*
X62500Y656000D02*
Y667000D01*
X63000Y667500D01*
X187500Y677000D02*
X188000Y677500D01*
X187000D02*
X187500Y677000D01*
X168000Y686500D02*
X169000Y685500D01*
X186000D02*
X188000Y683500D01*
X169000Y685500D02*
X186000D01*
X188000Y677500D02*
Y683500D01*
X187500Y677000D02*
X188000Y676500D01*
X179000Y677500D02*
X187000D01*
X174500Y660500D02*
Y673000D01*
X179000Y677500D01*
X187500Y656000D02*
Y667000D01*
X188000Y667500D01*
X312500Y677000D02*
X313000Y677500D01*
X312000D02*
X312500Y677000D01*
X293000Y686500D02*
X294000Y685500D01*
X311000D02*
X313000Y683500D01*
X294000Y685500D02*
X311000D01*
X313000Y677500D02*
Y683500D01*
X312500Y677000D02*
X313000Y676500D01*
X304000Y677500D02*
X312000D01*
X299500Y660500D02*
Y673000D01*
X304000Y677500D01*
X312500Y656000D02*
Y667000D01*
X313000Y667500D01*
X437500Y677000D02*
X438000Y677500D01*
X437000D02*
X437500Y677000D01*
X418000Y686500D02*
X419000Y685500D01*
X436000D02*
X438000Y683500D01*
X419000Y685500D02*
X436000D01*
X438000Y677500D02*
Y683500D01*
X437500Y677000D02*
X438000Y676500D01*
X429000Y677500D02*
X437000D01*
X424500Y660500D02*
Y673000D01*
X429000Y677500D01*
X437500Y656000D02*
Y667000D01*
X438000Y667500D01*
X562500Y677000D02*
X563000Y677500D01*
X562000D02*
X562500Y677000D01*
X543000Y686500D02*
X544000Y685500D01*
X561000D02*
X563000Y683500D01*
X544000Y685500D02*
X561000D01*
X563000Y677500D02*
Y683500D01*
X562500Y677000D02*
X563000Y676500D01*
X554000Y677500D02*
X562000D01*
X549500Y660500D02*
Y673000D01*
X554000Y677500D01*
X562500Y656000D02*
Y667000D01*
X563000Y667500D01*
X0Y0D02*
Y75000D01*
X75000D01*
Y0D02*
Y75000D01*
X0Y0D02*
X75000D01*
X125000D02*
Y75000D01*
X200000D01*
Y0D02*
Y75000D01*
X125000Y0D02*
X200000D01*
X250000D02*
Y75000D01*
X325000D01*
Y0D02*
Y75000D01*
X250000Y0D02*
X325000D01*
X375000D02*
Y75000D01*
X450000D01*
Y0D02*
Y75000D01*
X375000Y0D02*
X450000D01*
X500000D02*
Y75000D01*
X575000D01*
Y0D02*
Y75000D01*
X500000Y0D02*
X575000D01*
X0Y125000D02*
Y200000D01*
X75000D01*
Y125000D02*
Y200000D01*
X0Y125000D02*
X75000D01*
X125000D02*
Y200000D01*
X200000D01*
Y125000D02*
Y200000D01*
X125000Y125000D02*
X200000D01*
X250000D02*
Y200000D01*
X325000D01*
Y125000D02*
Y200000D01*
X250000Y125000D02*
X325000D01*
X375000D02*
Y200000D01*
X450000D01*
Y125000D02*
Y200000D01*
X375000Y125000D02*
X450000D01*
X500000D02*
Y200000D01*
X575000D01*
Y125000D02*
Y200000D01*
X500000Y125000D02*
X575000D01*
X0Y250000D02*
Y325000D01*
X75000D01*
Y250000D02*
Y325000D01*
X0Y250000D02*
X75000D01*
X125000D02*
Y325000D01*
X200000D01*
Y250000D02*
Y325000D01*
X125000Y250000D02*
X200000D01*
X250000D02*
Y325000D01*
X325000D01*
Y250000D02*
Y325000D01*
X250000Y250000D02*
X325000D01*
X375000D02*
Y325000D01*
X450000D01*
Y250000D02*
Y325000D01*
X375000Y250000D02*
X450000D01*
X500000D02*
Y325000D01*
X575000D01*
Y250000D02*
Y325000D01*
X500000Y250000D02*
X575000D01*
X0Y375000D02*
Y450000D01*
X75000D01*
Y375000D02*
Y450000D01*
X0Y375000D02*
X75000D01*
X125000D02*
Y450000D01*
X200000D01*
Y375000D02*
Y450000D01*
X125000Y375000D02*
X200000D01*
X250000D02*
Y450000D01*
X325000D01*
Y375000D02*
Y450000D01*
X250000Y375000D02*
X325000D01*
X375000D02*
Y450000D01*
X450000D01*
Y375000D02*
Y450000D01*
X375000Y375000D02*
X450000D01*
X500000D02*
Y450000D01*
X575000D01*
Y375000D02*
Y450000D01*
X500000Y375000D02*
X575000D01*
X0Y500000D02*
Y575000D01*
X75000D01*
Y500000D02*
Y575000D01*
X0Y500000D02*
X75000D01*
X125000D02*
Y575000D01*
X200000D01*
Y500000D02*
Y575000D01*
X125000Y500000D02*
X200000D01*
X250000D02*
Y575000D01*
X325000D01*
Y500000D02*
Y575000D01*
X250000Y500000D02*
X325000D01*
X375000D02*
Y575000D01*
X450000D01*
Y500000D02*
Y575000D01*
X375000Y500000D02*
X450000D01*
X500000D02*
Y575000D01*
X575000D01*
Y500000D02*
Y575000D01*
X500000Y500000D02*
X575000D01*
X0Y625000D02*
Y700000D01*
X75000D01*
Y625000D02*
Y700000D01*
X0Y625000D02*
X75000D01*
X125000D02*
Y700000D01*
X200000D01*
Y625000D02*
Y700000D01*
X125000Y625000D02*
X200000D01*
X250000D02*
Y700000D01*
X325000D01*
Y625000D02*
Y700000D01*
X250000Y625000D02*
X325000D01*
X375000D02*
Y700000D01*
X450000D01*
Y625000D02*
Y700000D01*
X375000Y625000D02*
X450000D01*
X500000D02*
Y700000D01*
X575000D01*
Y625000D02*
Y700000D01*
X500000Y625000D02*
X575000D01*
D13*
X43000Y61500D02*
D03*
X168000D02*
D03*
X293000D02*
D03*
X418000D02*
D03*
X543000D02*
D03*
X43000Y186500D02*
D03*
X168000D02*
D03*
X293000D02*
D03*
X418000D02*
D03*
X543000D02*
D03*
X43000Y311500D02*
D03*
X168000D02*
D03*
X293000D02*
D03*
X418000D02*
D03*
X543000D02*
D03*
X43000Y436500D02*
D03*
X168000D02*
D03*
X293000D02*
D03*
X418000D02*
D03*
X543000D02*
D03*
X43000Y561500D02*
D03*
X168000D02*
D03*
X293000D02*
D03*
X418000D02*
D03*
X543000D02*
D03*
X43000Y686500D02*
D03*
X168000D02*
D03*
X293000D02*
D03*
X418000D02*
D03*
X543000D02*
D03*
D14*
X33000Y61500D02*
D03*
X158000D02*
D03*
X283000D02*
D03*
X408000D02*
D03*
X533000D02*
D03*
X33000Y186500D02*
D03*
X158000D02*
D03*
X283000D02*
D03*
X408000D02*
D03*
X533000D02*
D03*
X33000Y311500D02*
D03*
X158000D02*
D03*
X283000D02*
D03*
X408000D02*
D03*
X533000D02*
D03*
X33000Y436500D02*
D03*
X158000D02*
D03*
X283000D02*
D03*
X408000D02*
D03*
X533000D02*
D03*
X33000Y561500D02*
D03*
X158000D02*
D03*
X283000D02*
D03*
X408000D02*
D03*
X533000D02*
D03*
X33000Y686500D02*
D03*
X158000D02*
D03*
X283000D02*
D03*
X408000D02*
D03*
X533000D02*
D03*
D15*
X23500Y35500D02*
D03*
X148500D02*
D03*
X273500D02*
D03*
X398500D02*
D03*
X523500D02*
D03*
X23500Y160500D02*
D03*
X148500D02*
D03*
X273500D02*
D03*
X398500D02*
D03*
X523500D02*
D03*
X23500Y285500D02*
D03*
X148500D02*
D03*
X273500D02*
D03*
X398500D02*
D03*
X523500D02*
D03*
X23500Y410500D02*
D03*
X148500D02*
D03*
X273500D02*
D03*
X398500D02*
D03*
X523500D02*
D03*
X23500Y535500D02*
D03*
X148500D02*
D03*
X273500D02*
D03*
X398500D02*
D03*
X523500D02*
D03*
X23500Y660500D02*
D03*
X148500D02*
D03*
X273500D02*
D03*
X398500D02*
D03*
X523500D02*
D03*
D16*
X36500Y17500D02*
D03*
X161500D02*
D03*
X286500D02*
D03*
X411500D02*
D03*
X536500D02*
D03*
X36500Y142500D02*
D03*
X161500D02*
D03*
X286500D02*
D03*
X411500D02*
D03*
X536500D02*
D03*
X36500Y267500D02*
D03*
X161500D02*
D03*
X286500D02*
D03*
X411500D02*
D03*
X536500D02*
D03*
X36500Y392500D02*
D03*
X161500D02*
D03*
X286500D02*
D03*
X411500D02*
D03*
X536500D02*
D03*
X36500Y517500D02*
D03*
X161500D02*
D03*
X286500D02*
D03*
X411500D02*
D03*
X536500D02*
D03*
X36500Y642500D02*
D03*
X161500D02*
D03*
X286500D02*
D03*
X411500D02*
D03*
X536500D02*
D03*
D17*
X49500Y35500D02*
D03*
X174500D02*
D03*
X299500D02*
D03*
X424500D02*
D03*
X549500D02*
D03*
X49500Y160500D02*
D03*
X174500D02*
D03*
X299500D02*
D03*
X424500D02*
D03*
X549500D02*
D03*
X49500Y285500D02*
D03*
X174500D02*
D03*
X299500D02*
D03*
X424500D02*
D03*
X549500D02*
D03*
X49500Y410500D02*
D03*
X174500D02*
D03*
X299500D02*
D03*
X424500D02*
D03*
X549500D02*
D03*
X49500Y535500D02*
D03*
X174500D02*
D03*
X299500D02*
D03*
X424500D02*
D03*
X549500D02*
D03*
X49500Y660500D02*
D03*
X174500D02*
D03*
X299500D02*
D03*
X424500D02*
D03*
X549500D02*
D03*
M02*
