G04*
G04 #@! TF.GenerationSoftware,Altium Limited,Altium Designer,20.0.13 (296)*
G04*
G04 Layer_Color=16711935*
%FSLAX25Y25*%
%MOIN*%
G70*
G01*
G75*
%ADD12C,0.01000*%
D12*
X0Y0D02*
Y75000D01*
X75000D01*
Y0D02*
Y75000D01*
X0Y0D02*
X75000D01*
X125000D02*
Y75000D01*
X200000D01*
Y0D02*
Y75000D01*
X125000Y0D02*
X200000D01*
X250000D02*
Y75000D01*
X325000D01*
Y0D02*
Y75000D01*
X250000Y0D02*
X325000D01*
X375000D02*
Y75000D01*
X450000D01*
Y0D02*
Y75000D01*
X375000Y0D02*
X450000D01*
X500000D02*
Y75000D01*
X575000D01*
Y0D02*
Y75000D01*
X500000Y0D02*
X575000D01*
X0Y125000D02*
Y200000D01*
X75000D01*
Y125000D02*
Y200000D01*
X0Y125000D02*
X75000D01*
X125000D02*
Y200000D01*
X200000D01*
Y125000D02*
Y200000D01*
X125000Y125000D02*
X200000D01*
X250000D02*
Y200000D01*
X325000D01*
Y125000D02*
Y200000D01*
X250000Y125000D02*
X325000D01*
X375000D02*
Y200000D01*
X450000D01*
Y125000D02*
Y200000D01*
X375000Y125000D02*
X450000D01*
X500000D02*
Y200000D01*
X575000D01*
Y125000D02*
Y200000D01*
X500000Y125000D02*
X575000D01*
X0Y250000D02*
Y325000D01*
X75000D01*
Y250000D02*
Y325000D01*
X0Y250000D02*
X75000D01*
X125000D02*
Y325000D01*
X200000D01*
Y250000D02*
Y325000D01*
X125000Y250000D02*
X200000D01*
X250000D02*
Y325000D01*
X325000D01*
Y250000D02*
Y325000D01*
X250000Y250000D02*
X325000D01*
X375000D02*
Y325000D01*
X450000D01*
Y250000D02*
Y325000D01*
X375000Y250000D02*
X450000D01*
X500000D02*
Y325000D01*
X575000D01*
Y250000D02*
Y325000D01*
X500000Y250000D02*
X575000D01*
X0Y375000D02*
Y450000D01*
X75000D01*
Y375000D02*
Y450000D01*
X0Y375000D02*
X75000D01*
X125000D02*
Y450000D01*
X200000D01*
Y375000D02*
Y450000D01*
X125000Y375000D02*
X200000D01*
X250000D02*
Y450000D01*
X325000D01*
Y375000D02*
Y450000D01*
X250000Y375000D02*
X325000D01*
X375000D02*
Y450000D01*
X450000D01*
Y375000D02*
Y450000D01*
X375000Y375000D02*
X450000D01*
X500000D02*
Y450000D01*
X575000D01*
Y375000D02*
Y450000D01*
X500000Y375000D02*
X575000D01*
X0Y500000D02*
Y575000D01*
X75000D01*
Y500000D02*
Y575000D01*
X0Y500000D02*
X75000D01*
X125000D02*
Y575000D01*
X200000D01*
Y500000D02*
Y575000D01*
X125000Y500000D02*
X200000D01*
X250000D02*
Y575000D01*
X325000D01*
Y500000D02*
Y575000D01*
X250000Y500000D02*
X325000D01*
X375000D02*
Y575000D01*
X450000D01*
Y500000D02*
Y575000D01*
X375000Y500000D02*
X450000D01*
X500000D02*
Y575000D01*
X575000D01*
Y500000D02*
Y575000D01*
X500000Y500000D02*
X575000D01*
X0Y625000D02*
Y700000D01*
X75000D01*
Y625000D02*
Y700000D01*
X0Y625000D02*
X75000D01*
X125000D02*
Y700000D01*
X200000D01*
Y625000D02*
Y700000D01*
X125000Y625000D02*
X200000D01*
X250000D02*
Y700000D01*
X325000D01*
Y625000D02*
Y700000D01*
X250000Y625000D02*
X325000D01*
X375000D02*
Y700000D01*
X450000D01*
Y625000D02*
Y700000D01*
X375000Y625000D02*
X450000D01*
X500000D02*
Y700000D01*
X575000D01*
Y625000D02*
Y700000D01*
X500000Y625000D02*
X575000D01*
X0Y0D02*
Y75000D01*
X75000D01*
Y0D02*
Y75000D01*
X0Y0D02*
X75000D01*
X125000D02*
Y75000D01*
X200000D01*
Y0D02*
Y75000D01*
X125000Y0D02*
X200000D01*
X250000D02*
Y75000D01*
X325000D01*
Y0D02*
Y75000D01*
X250000Y0D02*
X325000D01*
X375000D02*
Y75000D01*
X450000D01*
Y0D02*
Y75000D01*
X375000Y0D02*
X450000D01*
X500000D02*
Y75000D01*
X575000D01*
Y0D02*
Y75000D01*
X500000Y0D02*
X575000D01*
X0Y125000D02*
Y200000D01*
X75000D01*
Y125000D02*
Y200000D01*
X0Y125000D02*
X75000D01*
X125000D02*
Y200000D01*
X200000D01*
Y125000D02*
Y200000D01*
X125000Y125000D02*
X200000D01*
X250000D02*
Y200000D01*
X325000D01*
Y125000D02*
Y200000D01*
X250000Y125000D02*
X325000D01*
X375000D02*
Y200000D01*
X450000D01*
Y125000D02*
Y200000D01*
X375000Y125000D02*
X450000D01*
X500000D02*
Y200000D01*
X575000D01*
Y125000D02*
Y200000D01*
X500000Y125000D02*
X575000D01*
X0Y250000D02*
Y325000D01*
X75000D01*
Y250000D02*
Y325000D01*
X0Y250000D02*
X75000D01*
X125000D02*
Y325000D01*
X200000D01*
Y250000D02*
Y325000D01*
X125000Y250000D02*
X200000D01*
X250000D02*
Y325000D01*
X325000D01*
Y250000D02*
Y325000D01*
X250000Y250000D02*
X325000D01*
X375000D02*
Y325000D01*
X450000D01*
Y250000D02*
Y325000D01*
X375000Y250000D02*
X450000D01*
X500000D02*
Y325000D01*
X575000D01*
Y250000D02*
Y325000D01*
X500000Y250000D02*
X575000D01*
X0Y375000D02*
Y450000D01*
X75000D01*
Y375000D02*
Y450000D01*
X0Y375000D02*
X75000D01*
X125000D02*
Y450000D01*
X200000D01*
Y375000D02*
Y450000D01*
X125000Y375000D02*
X200000D01*
X250000D02*
Y450000D01*
X325000D01*
Y375000D02*
Y450000D01*
X250000Y375000D02*
X325000D01*
X375000D02*
Y450000D01*
X450000D01*
Y375000D02*
Y450000D01*
X375000Y375000D02*
X450000D01*
X500000D02*
Y450000D01*
X575000D01*
Y375000D02*
Y450000D01*
X500000Y375000D02*
X575000D01*
X0Y500000D02*
Y575000D01*
X75000D01*
Y500000D02*
Y575000D01*
X0Y500000D02*
X75000D01*
X125000D02*
Y575000D01*
X200000D01*
Y500000D02*
Y575000D01*
X125000Y500000D02*
X200000D01*
X250000D02*
Y575000D01*
X325000D01*
Y500000D02*
Y575000D01*
X250000Y500000D02*
X325000D01*
X375000D02*
Y575000D01*
X450000D01*
Y500000D02*
Y575000D01*
X375000Y500000D02*
X450000D01*
X500000D02*
Y575000D01*
X575000D01*
Y500000D02*
Y575000D01*
X500000Y500000D02*
X575000D01*
X0Y625000D02*
Y700000D01*
X75000D01*
Y625000D02*
Y700000D01*
X0Y625000D02*
X75000D01*
X125000D02*
Y700000D01*
X200000D01*
Y625000D02*
Y700000D01*
X125000Y625000D02*
X200000D01*
X250000D02*
Y700000D01*
X325000D01*
Y625000D02*
Y700000D01*
X250000Y625000D02*
X325000D01*
X375000D02*
Y700000D01*
X450000D01*
Y625000D02*
Y700000D01*
X375000Y625000D02*
X450000D01*
X500000D02*
Y700000D01*
X575000D01*
Y625000D02*
Y700000D01*
X500000Y625000D02*
X575000D01*
M02*
