G04*
G04 #@! TF.GenerationSoftware,Altium Limited,Altium Designer,20.0.13 (296)*
G04*
G04 Layer_Color=8421504*
%FSLAX25Y25*%
%MOIN*%
G70*
G01*
G75*
%ADD10R,0.04500X0.05500*%
%ADD11R,0.05000X0.06000*%
%ADD12C,0.01000*%
D10*
X62500Y22000D02*
D03*
Y31000D02*
D03*
X187500Y22000D02*
D03*
Y31000D02*
D03*
X312500Y22000D02*
D03*
Y31000D02*
D03*
X437500Y22000D02*
D03*
Y31000D02*
D03*
X562500Y22000D02*
D03*
Y31000D02*
D03*
X62500Y147000D02*
D03*
Y156000D02*
D03*
X187500Y147000D02*
D03*
Y156000D02*
D03*
X312500Y147000D02*
D03*
Y156000D02*
D03*
X437500Y147000D02*
D03*
Y156000D02*
D03*
X562500Y147000D02*
D03*
Y156000D02*
D03*
X62500Y272000D02*
D03*
Y281000D02*
D03*
X187500Y272000D02*
D03*
Y281000D02*
D03*
X312500Y272000D02*
D03*
Y281000D02*
D03*
X437500Y272000D02*
D03*
Y281000D02*
D03*
X562500Y272000D02*
D03*
Y281000D02*
D03*
X62500Y397000D02*
D03*
Y406000D02*
D03*
X187500Y397000D02*
D03*
Y406000D02*
D03*
X312500Y397000D02*
D03*
Y406000D02*
D03*
X437500Y397000D02*
D03*
Y406000D02*
D03*
X562500Y397000D02*
D03*
Y406000D02*
D03*
X62500Y522000D02*
D03*
Y531000D02*
D03*
X187500Y522000D02*
D03*
Y531000D02*
D03*
X312500Y522000D02*
D03*
Y531000D02*
D03*
X437500Y522000D02*
D03*
Y531000D02*
D03*
X562500Y522000D02*
D03*
Y531000D02*
D03*
X62500Y647000D02*
D03*
Y656000D02*
D03*
X187500Y647000D02*
D03*
Y656000D02*
D03*
X312500Y647000D02*
D03*
Y656000D02*
D03*
X437500Y647000D02*
D03*
Y656000D02*
D03*
X562500Y647000D02*
D03*
Y656000D02*
D03*
D11*
X63000Y51500D02*
D03*
Y42500D02*
D03*
X188000Y51500D02*
D03*
Y42500D02*
D03*
X313000Y51500D02*
D03*
Y42500D02*
D03*
X438000Y51500D02*
D03*
Y42500D02*
D03*
X563000Y51500D02*
D03*
Y42500D02*
D03*
X63000Y176500D02*
D03*
Y167500D02*
D03*
X188000Y176500D02*
D03*
Y167500D02*
D03*
X313000Y176500D02*
D03*
Y167500D02*
D03*
X438000Y176500D02*
D03*
Y167500D02*
D03*
X563000Y176500D02*
D03*
Y167500D02*
D03*
X63000Y301500D02*
D03*
Y292500D02*
D03*
X188000Y301500D02*
D03*
Y292500D02*
D03*
X313000Y301500D02*
D03*
Y292500D02*
D03*
X438000Y301500D02*
D03*
Y292500D02*
D03*
X563000Y301500D02*
D03*
Y292500D02*
D03*
X63000Y426500D02*
D03*
Y417500D02*
D03*
X188000Y426500D02*
D03*
Y417500D02*
D03*
X313000Y426500D02*
D03*
Y417500D02*
D03*
X438000Y426500D02*
D03*
Y417500D02*
D03*
X563000Y426500D02*
D03*
Y417500D02*
D03*
X63000Y551500D02*
D03*
Y542500D02*
D03*
X188000Y551500D02*
D03*
Y542500D02*
D03*
X313000Y551500D02*
D03*
Y542500D02*
D03*
X438000Y551500D02*
D03*
Y542500D02*
D03*
X563000Y551500D02*
D03*
Y542500D02*
D03*
X63000Y676500D02*
D03*
Y667500D02*
D03*
X188000Y676500D02*
D03*
Y667500D02*
D03*
X313000Y676500D02*
D03*
Y667500D02*
D03*
X438000Y676500D02*
D03*
Y667500D02*
D03*
X563000Y676500D02*
D03*
Y667500D02*
D03*
D12*
X0Y0D02*
Y75000D01*
X75000D01*
Y0D02*
Y75000D01*
X0Y0D02*
X75000D01*
X125000D02*
Y75000D01*
X200000D01*
Y0D02*
Y75000D01*
X125000Y0D02*
X200000D01*
X250000D02*
Y75000D01*
X325000D01*
Y0D02*
Y75000D01*
X250000Y0D02*
X325000D01*
X375000D02*
Y75000D01*
X450000D01*
Y0D02*
Y75000D01*
X375000Y0D02*
X450000D01*
X500000D02*
Y75000D01*
X575000D01*
Y0D02*
Y75000D01*
X500000Y0D02*
X575000D01*
X0Y125000D02*
Y200000D01*
X75000D01*
Y125000D02*
Y200000D01*
X0Y125000D02*
X75000D01*
X125000D02*
Y200000D01*
X200000D01*
Y125000D02*
Y200000D01*
X125000Y125000D02*
X200000D01*
X250000D02*
Y200000D01*
X325000D01*
Y125000D02*
Y200000D01*
X250000Y125000D02*
X325000D01*
X375000D02*
Y200000D01*
X450000D01*
Y125000D02*
Y200000D01*
X375000Y125000D02*
X450000D01*
X500000D02*
Y200000D01*
X575000D01*
Y125000D02*
Y200000D01*
X500000Y125000D02*
X575000D01*
X0Y250000D02*
Y325000D01*
X75000D01*
Y250000D02*
Y325000D01*
X0Y250000D02*
X75000D01*
X125000D02*
Y325000D01*
X200000D01*
Y250000D02*
Y325000D01*
X125000Y250000D02*
X200000D01*
X250000D02*
Y325000D01*
X325000D01*
Y250000D02*
Y325000D01*
X250000Y250000D02*
X325000D01*
X375000D02*
Y325000D01*
X450000D01*
Y250000D02*
Y325000D01*
X375000Y250000D02*
X450000D01*
X500000D02*
Y325000D01*
X575000D01*
Y250000D02*
Y325000D01*
X500000Y250000D02*
X575000D01*
X0Y375000D02*
Y450000D01*
X75000D01*
Y375000D02*
Y450000D01*
X0Y375000D02*
X75000D01*
X125000D02*
Y450000D01*
X200000D01*
Y375000D02*
Y450000D01*
X125000Y375000D02*
X200000D01*
X250000D02*
Y450000D01*
X325000D01*
Y375000D02*
Y450000D01*
X250000Y375000D02*
X325000D01*
X375000D02*
Y450000D01*
X450000D01*
Y375000D02*
Y450000D01*
X375000Y375000D02*
X450000D01*
X500000D02*
Y450000D01*
X575000D01*
Y375000D02*
Y450000D01*
X500000Y375000D02*
X575000D01*
X0Y500000D02*
Y575000D01*
X75000D01*
Y500000D02*
Y575000D01*
X0Y500000D02*
X75000D01*
X125000D02*
Y575000D01*
X200000D01*
Y500000D02*
Y575000D01*
X125000Y500000D02*
X200000D01*
X250000D02*
Y575000D01*
X325000D01*
Y500000D02*
Y575000D01*
X250000Y500000D02*
X325000D01*
X375000D02*
Y575000D01*
X450000D01*
Y500000D02*
Y575000D01*
X375000Y500000D02*
X450000D01*
X500000D02*
Y575000D01*
X575000D01*
Y500000D02*
Y575000D01*
X500000Y500000D02*
X575000D01*
X0Y625000D02*
Y700000D01*
X75000D01*
Y625000D02*
Y700000D01*
X0Y625000D02*
X75000D01*
X125000D02*
Y700000D01*
X200000D01*
Y625000D02*
Y700000D01*
X125000Y625000D02*
X200000D01*
X250000D02*
Y700000D01*
X325000D01*
Y625000D02*
Y700000D01*
X250000Y625000D02*
X325000D01*
X375000D02*
Y700000D01*
X450000D01*
Y625000D02*
Y700000D01*
X375000Y625000D02*
X450000D01*
X500000D02*
Y700000D01*
X575000D01*
Y625000D02*
Y700000D01*
X500000Y625000D02*
X575000D01*
M02*
