G04*
G04 #@! TF.GenerationSoftware,Altium Limited,Altium Designer,20.0.13 (296)*
G04*
G04 Layer_Color=12632256*
%FSLAX25Y25*%
%MOIN*%
G70*
G01*
G75*
%ADD12C,0.01000*%
%ADD13R,0.06000X0.06000*%
%ADD14C,0.06000*%
%ADD15O,0.09000X0.18000*%
%ADD16O,0.18000X0.09000*%
%ADD17O,0.10000X0.20000*%
D12*
X0Y0D02*
Y75000D01*
X75000D01*
Y0D02*
Y75000D01*
X0Y0D02*
X75000D01*
X125000D02*
Y75000D01*
X200000D01*
Y0D02*
Y75000D01*
X125000Y0D02*
X200000D01*
X250000D02*
Y75000D01*
X325000D01*
Y0D02*
Y75000D01*
X250000Y0D02*
X325000D01*
X375000D02*
Y75000D01*
X450000D01*
Y0D02*
Y75000D01*
X375000Y0D02*
X450000D01*
X500000D02*
Y75000D01*
X575000D01*
Y0D02*
Y75000D01*
X500000Y0D02*
X575000D01*
X0Y125000D02*
Y200000D01*
X75000D01*
Y125000D02*
Y200000D01*
X0Y125000D02*
X75000D01*
X125000D02*
Y200000D01*
X200000D01*
Y125000D02*
Y200000D01*
X125000Y125000D02*
X200000D01*
X250000D02*
Y200000D01*
X325000D01*
Y125000D02*
Y200000D01*
X250000Y125000D02*
X325000D01*
X375000D02*
Y200000D01*
X450000D01*
Y125000D02*
Y200000D01*
X375000Y125000D02*
X450000D01*
X500000D02*
Y200000D01*
X575000D01*
Y125000D02*
Y200000D01*
X500000Y125000D02*
X575000D01*
X0Y250000D02*
Y325000D01*
X75000D01*
Y250000D02*
Y325000D01*
X0Y250000D02*
X75000D01*
X125000D02*
Y325000D01*
X200000D01*
Y250000D02*
Y325000D01*
X125000Y250000D02*
X200000D01*
X250000D02*
Y325000D01*
X325000D01*
Y250000D02*
Y325000D01*
X250000Y250000D02*
X325000D01*
X375000D02*
Y325000D01*
X450000D01*
Y250000D02*
Y325000D01*
X375000Y250000D02*
X450000D01*
X500000D02*
Y325000D01*
X575000D01*
Y250000D02*
Y325000D01*
X500000Y250000D02*
X575000D01*
X0Y375000D02*
Y450000D01*
X75000D01*
Y375000D02*
Y450000D01*
X0Y375000D02*
X75000D01*
X125000D02*
Y450000D01*
X200000D01*
Y375000D02*
Y450000D01*
X125000Y375000D02*
X200000D01*
X250000D02*
Y450000D01*
X325000D01*
Y375000D02*
Y450000D01*
X250000Y375000D02*
X325000D01*
X375000D02*
Y450000D01*
X450000D01*
Y375000D02*
Y450000D01*
X375000Y375000D02*
X450000D01*
X500000D02*
Y450000D01*
X575000D01*
Y375000D02*
Y450000D01*
X500000Y375000D02*
X575000D01*
X0Y500000D02*
Y575000D01*
X75000D01*
Y500000D02*
Y575000D01*
X0Y500000D02*
X75000D01*
X125000D02*
Y575000D01*
X200000D01*
Y500000D02*
Y575000D01*
X125000Y500000D02*
X200000D01*
X250000D02*
Y575000D01*
X325000D01*
Y500000D02*
Y575000D01*
X250000Y500000D02*
X325000D01*
X375000D02*
Y575000D01*
X450000D01*
Y500000D02*
Y575000D01*
X375000Y500000D02*
X450000D01*
X500000D02*
Y575000D01*
X575000D01*
Y500000D02*
Y575000D01*
X500000Y500000D02*
X575000D01*
X0Y625000D02*
Y700000D01*
X75000D01*
Y625000D02*
Y700000D01*
X0Y625000D02*
X75000D01*
X125000D02*
Y700000D01*
X200000D01*
Y625000D02*
Y700000D01*
X125000Y625000D02*
X200000D01*
X250000D02*
Y700000D01*
X325000D01*
Y625000D02*
Y700000D01*
X250000Y625000D02*
X325000D01*
X375000D02*
Y700000D01*
X450000D01*
Y625000D02*
Y700000D01*
X375000Y625000D02*
X450000D01*
X500000D02*
Y700000D01*
X575000D01*
Y625000D02*
Y700000D01*
X500000Y625000D02*
X575000D01*
D13*
X43000Y61500D02*
D03*
X168000D02*
D03*
X293000D02*
D03*
X418000D02*
D03*
X543000D02*
D03*
X43000Y186500D02*
D03*
X168000D02*
D03*
X293000D02*
D03*
X418000D02*
D03*
X543000D02*
D03*
X43000Y311500D02*
D03*
X168000D02*
D03*
X293000D02*
D03*
X418000D02*
D03*
X543000D02*
D03*
X43000Y436500D02*
D03*
X168000D02*
D03*
X293000D02*
D03*
X418000D02*
D03*
X543000D02*
D03*
X43000Y561500D02*
D03*
X168000D02*
D03*
X293000D02*
D03*
X418000D02*
D03*
X543000D02*
D03*
X43000Y686500D02*
D03*
X168000D02*
D03*
X293000D02*
D03*
X418000D02*
D03*
X543000D02*
D03*
D14*
X33000Y61500D02*
D03*
X158000D02*
D03*
X283000D02*
D03*
X408000D02*
D03*
X533000D02*
D03*
X33000Y186500D02*
D03*
X158000D02*
D03*
X283000D02*
D03*
X408000D02*
D03*
X533000D02*
D03*
X33000Y311500D02*
D03*
X158000D02*
D03*
X283000D02*
D03*
X408000D02*
D03*
X533000D02*
D03*
X33000Y436500D02*
D03*
X158000D02*
D03*
X283000D02*
D03*
X408000D02*
D03*
X533000D02*
D03*
X33000Y561500D02*
D03*
X158000D02*
D03*
X283000D02*
D03*
X408000D02*
D03*
X533000D02*
D03*
X33000Y686500D02*
D03*
X158000D02*
D03*
X283000D02*
D03*
X408000D02*
D03*
X533000D02*
D03*
D15*
X23500Y35500D02*
D03*
X148500D02*
D03*
X273500D02*
D03*
X398500D02*
D03*
X523500D02*
D03*
X23500Y160500D02*
D03*
X148500D02*
D03*
X273500D02*
D03*
X398500D02*
D03*
X523500D02*
D03*
X23500Y285500D02*
D03*
X148500D02*
D03*
X273500D02*
D03*
X398500D02*
D03*
X523500D02*
D03*
X23500Y410500D02*
D03*
X148500D02*
D03*
X273500D02*
D03*
X398500D02*
D03*
X523500D02*
D03*
X23500Y535500D02*
D03*
X148500D02*
D03*
X273500D02*
D03*
X398500D02*
D03*
X523500D02*
D03*
X23500Y660500D02*
D03*
X148500D02*
D03*
X273500D02*
D03*
X398500D02*
D03*
X523500D02*
D03*
D16*
X36500Y17500D02*
D03*
X161500D02*
D03*
X286500D02*
D03*
X411500D02*
D03*
X536500D02*
D03*
X36500Y142500D02*
D03*
X161500D02*
D03*
X286500D02*
D03*
X411500D02*
D03*
X536500D02*
D03*
X36500Y267500D02*
D03*
X161500D02*
D03*
X286500D02*
D03*
X411500D02*
D03*
X536500D02*
D03*
X36500Y392500D02*
D03*
X161500D02*
D03*
X286500D02*
D03*
X411500D02*
D03*
X536500D02*
D03*
X36500Y517500D02*
D03*
X161500D02*
D03*
X286500D02*
D03*
X411500D02*
D03*
X536500D02*
D03*
X36500Y642500D02*
D03*
X161500D02*
D03*
X286500D02*
D03*
X411500D02*
D03*
X536500D02*
D03*
D17*
X49500Y35500D02*
D03*
X174500D02*
D03*
X299500D02*
D03*
X424500D02*
D03*
X549500D02*
D03*
X49500Y160500D02*
D03*
X174500D02*
D03*
X299500D02*
D03*
X424500D02*
D03*
X549500D02*
D03*
X49500Y285500D02*
D03*
X174500D02*
D03*
X299500D02*
D03*
X424500D02*
D03*
X549500D02*
D03*
X49500Y410500D02*
D03*
X174500D02*
D03*
X299500D02*
D03*
X424500D02*
D03*
X549500D02*
D03*
X49500Y535500D02*
D03*
X174500D02*
D03*
X299500D02*
D03*
X424500D02*
D03*
X549500D02*
D03*
X49500Y660500D02*
D03*
X174500D02*
D03*
X299500D02*
D03*
X424500D02*
D03*
X549500D02*
D03*
M02*
